<svg xmlns="http://www.w3.org/2000/svg" xmlns:xlink="http://www.w3.org/1999/xlink" width="500" zoomAndPan="magnify" viewBox="0 0 375 374.999991" height="500" preserveAspectRatio="xMidYMid meet" version="1.0"><defs><clipPath id="17bdcd447c"><path d="M 51.398438 289.492188 L 171.835938 289.492188 L 171.835938 366.523438 L 51.398438 366.523438 Z M 51.398438 289.492188 " clip-rule="nonzero"/></clipPath><clipPath id="fab900b07c"><path d="M 176 8.4375 L 225 8.4375 L 225 59 L 176 59 Z M 176 8.4375 " clip-rule="nonzero"/></clipPath><clipPath id="665fe4b41a"><path d="M 273 8.4375 L 322 8.4375 L 322 59 L 273 59 Z M 273 8.4375 " clip-rule="nonzero"/></clipPath></defs><path fill="#093c5f" d="M 30.511719 142.851562 C 32.363281 136.445312 34.578125 130.164062 37.160156 124.007812 C 37.253906 123.785156 37.304688 123.550781 37.304688 123.304688 C 37.304688 123.0625 37.257812 122.824219 37.167969 122.597656 C 37.074219 122.375 36.941406 122.171875 36.769531 122 C 36.597656 121.824219 36.398438 121.691406 36.175781 121.597656 C 35.949219 121.503906 35.714844 121.457031 35.46875 121.453125 C 35.226562 121.453125 34.988281 121.5 34.765625 121.589844 C 34.539062 121.683594 34.335938 121.816406 34.164062 121.988281 C 33.992188 122.160156 33.855469 122.359375 33.761719 122.585938 C 31.125 128.871094 28.863281 135.285156 26.972656 141.828125 C 26.902344 142.0625 26.882812 142.304688 26.910156 142.546875 C 26.9375 142.789062 27.011719 143.015625 27.128906 143.230469 C 27.246094 143.445312 27.402344 143.628906 27.59375 143.78125 C 27.785156 143.933594 27.996094 144.042969 28.230469 144.113281 C 28.464844 144.179688 28.703125 144.199219 28.949219 144.171875 C 29.191406 144.144531 29.417969 144.074219 29.632812 143.953125 C 29.847656 143.835938 30.03125 143.683594 30.183594 143.492188 C 30.335938 143.300781 30.445312 143.085938 30.511719 142.851562 Z M 45.941406 106.058594 C 49.210938 100.25 52.804688 94.644531 56.726562 89.238281 C 56.871094 89.039062 56.96875 88.820312 57.027344 88.585938 C 57.082031 88.347656 57.09375 88.105469 57.054688 87.867188 C 57.015625 87.625 56.933594 87.398438 56.804688 87.191406 C 56.675781 86.984375 56.515625 86.808594 56.316406 86.664062 C 56.117188 86.519531 55.902344 86.417969 55.664062 86.363281 C 55.425781 86.304688 55.1875 86.296875 54.945312 86.335938 C 54.703125 86.375 54.476562 86.457031 54.269531 86.585938 C 54.0625 86.710938 53.886719 86.875 53.742188 87.074219 C 49.738281 92.59375 46.066406 98.320312 42.730469 104.253906 C 42.609375 104.464844 42.535156 104.691406 42.503906 104.9375 C 42.476562 105.179688 42.492188 105.417969 42.558594 105.652344 C 42.625 105.886719 42.734375 106.101562 42.886719 106.292969 C 43.035156 106.484375 43.21875 106.640625 43.429688 106.761719 C 43.644531 106.882812 43.871094 106.957031 44.113281 106.984375 C 44.355469 107.015625 44.597656 106.996094 44.832031 106.929688 C 45.066406 106.863281 45.28125 106.757812 45.472656 106.605469 C 45.664062 106.453125 45.820312 106.273438 45.941406 106.058594 Z M 69.367188 73.757812 C 73.875 68.839844 78.648438 64.195312 83.691406 59.824219 C 83.875 59.664062 84.023438 59.472656 84.132812 59.253906 C 84.238281 59.035156 84.304688 58.804688 84.320312 58.5625 C 84.339844 58.316406 84.308594 58.082031 84.230469 57.847656 C 84.152344 57.617188 84.035156 57.410156 83.875 57.222656 C 83.714844 57.039062 83.523438 56.890625 83.304688 56.78125 C 83.089844 56.671875 82.855469 56.609375 82.613281 56.59375 C 82.371094 56.574219 82.132812 56.605469 81.898438 56.683594 C 81.667969 56.761719 81.460938 56.878906 81.273438 57.039062 C 76.128906 61.503906 71.253906 66.246094 66.648438 71.269531 C 66.484375 71.449219 66.359375 71.652344 66.277344 71.882812 C 66.191406 72.113281 66.15625 72.347656 66.167969 72.59375 C 66.175781 72.835938 66.234375 73.070312 66.335938 73.292969 C 66.441406 73.511719 66.582031 73.707031 66.761719 73.871094 C 66.941406 74.035156 67.148438 74.160156 67.375 74.246094 C 67.605469 74.328125 67.84375 74.363281 68.085938 74.355469 C 68.332031 74.34375 68.566406 74.285156 68.785156 74.183594 C 69.007812 74.082031 69.199219 73.9375 69.367188 73.757812 Z M 99.511719 47.613281 C 105.023438 43.84375 110.726562 40.40625 116.625 37.300781 C 116.839844 37.183594 117.027344 37.035156 117.183594 36.847656 C 117.339844 36.660156 117.453125 36.449219 117.527344 36.214844 C 117.597656 35.980469 117.625 35.742188 117.601562 35.5 C 117.578125 35.253906 117.511719 35.027344 117.398438 34.808594 C 117.28125 34.59375 117.132812 34.40625 116.945312 34.25 C 116.753906 34.09375 116.546875 33.980469 116.3125 33.910156 C 116.078125 33.835938 115.839844 33.8125 115.597656 33.832031 C 115.351562 33.855469 115.125 33.925781 114.90625 34.039062 C 108.882812 37.210938 103.058594 40.722656 97.429688 44.574219 C 97.226562 44.710938 97.0625 44.882812 96.925781 45.085938 C 96.792969 45.292969 96.703125 45.515625 96.660156 45.753906 C 96.613281 45.996094 96.617188 46.234375 96.667969 46.472656 C 96.71875 46.710938 96.8125 46.933594 96.949219 47.132812 C 97.085938 47.335938 97.257812 47.503906 97.464844 47.636719 C 97.667969 47.769531 97.890625 47.859375 98.128906 47.90625 C 98.371094 47.949219 98.609375 47.949219 98.847656 47.898438 C 99.089844 47.847656 99.308594 47.753906 99.511719 47.613281 Z M 134.8125 29.023438 C 141.035156 26.613281 147.375 24.574219 153.832031 22.902344 C 154.070312 22.839844 154.285156 22.738281 154.480469 22.589844 C 154.675781 22.441406 154.835938 22.265625 154.957031 22.054688 C 155.082031 21.84375 155.160156 21.617188 155.195312 21.375 C 155.230469 21.132812 155.214844 20.894531 155.15625 20.65625 C 155.09375 20.417969 154.988281 20.203125 154.84375 20.007812 C 154.695312 19.8125 154.515625 19.652344 154.304688 19.53125 C 154.09375 19.40625 153.867188 19.328125 153.625 19.292969 C 153.382812 19.257812 153.144531 19.273438 152.910156 19.335938 C 146.3125 21.042969 139.835938 23.125 133.480469 25.585938 C 133.253906 25.671875 133.050781 25.800781 132.875 25.96875 C 132.699219 26.140625 132.558594 26.335938 132.460938 26.558594 C 132.363281 26.78125 132.308594 27.015625 132.304688 27.261719 C 132.296875 27.503906 132.339844 27.742188 132.429688 27.96875 C 132.515625 28.195312 132.644531 28.398438 132.8125 28.574219 C 132.980469 28.753906 133.179688 28.890625 133.402344 28.988281 C 133.625 29.089844 133.859375 29.140625 134.101562 29.144531 C 134.347656 29.152344 134.582031 29.109375 134.8125 29.023438 Z M 134.8125 29.023438 " fill-opacity="1" fill-rule="nonzero"/><g clip-path="url(#17bdcd447c)"><path fill="#093c5f" d="M 170.136719 362.863281 C 163.542969 361.816406 157.035156 360.398438 150.613281 358.601562 C 150.378906 358.539062 150.140625 358.519531 149.898438 358.546875 C 149.65625 358.578125 149.425781 358.652344 149.214844 358.773438 C 149 358.890625 148.820312 359.046875 148.667969 359.242188 C 148.519531 359.433594 148.410156 359.648438 148.34375 359.882812 C 148.277344 360.117188 148.261719 360.355469 148.289062 360.597656 C 148.316406 360.839844 148.394531 361.070312 148.511719 361.28125 C 148.632812 361.496094 148.789062 361.675781 148.980469 361.828125 C 149.171875 361.980469 149.386719 362.085938 149.621094 362.152344 C 156.179688 363.984375 162.824219 365.4375 169.5625 366.503906 C 169.800781 366.539062 170.042969 366.53125 170.28125 366.472656 C 170.515625 366.417969 170.734375 366.316406 170.933594 366.171875 C 171.128906 366.027344 171.292969 365.851562 171.421875 365.644531 C 171.546875 365.4375 171.632812 365.210938 171.667969 364.96875 C 171.707031 364.730469 171.699219 364.488281 171.640625 364.25 C 171.585938 364.015625 171.484375 363.796875 171.339844 363.597656 C 171.195312 363.402344 171.019531 363.238281 170.8125 363.109375 C 170.605469 362.984375 170.378906 362.898438 170.136719 362.863281 Z M 131.714844 352.117188 C 125.546875 349.589844 119.539062 346.714844 113.691406 343.492188 C 113.476562 343.371094 113.25 343.300781 113.007812 343.273438 C 112.765625 343.246094 112.523438 343.265625 112.289062 343.335938 C 112.054688 343.402344 111.84375 343.511719 111.652344 343.664062 C 111.460938 343.816406 111.304688 344 111.1875 344.214844 C 111.070312 344.429688 110.996094 344.65625 110.96875 344.898438 C 110.945312 345.144531 110.964844 345.382812 111.03125 345.617188 C 111.097656 345.851562 111.210938 346.0625 111.363281 346.253906 C 111.515625 346.445312 111.699219 346.601562 111.910156 346.71875 C 117.882812 350.011719 124.019531 352.949219 130.320312 355.527344 C 130.546875 355.621094 130.78125 355.667969 131.027344 355.664062 C 131.269531 355.664062 131.503906 355.617188 131.730469 355.523438 C 131.957031 355.429688 132.15625 355.292969 132.328125 355.121094 C 132.5 354.945312 132.632812 354.746094 132.722656 354.519531 C 132.816406 354.292969 132.863281 354.058594 132.859375 353.816406 C 132.859375 353.570312 132.8125 353.335938 132.71875 353.109375 C 132.625 352.886719 132.488281 352.6875 132.316406 352.515625 C 132.140625 352.34375 131.941406 352.210938 131.714844 352.117188 Z M 96.777344 332.847656 C 91.347656 328.980469 86.152344 324.808594 81.195312 320.339844 C 81.011719 320.175781 80.804688 320.054688 80.574219 319.972656 C 80.347656 319.890625 80.109375 319.855469 79.863281 319.871094 C 79.621094 319.882812 79.386719 319.941406 79.167969 320.046875 C 78.945312 320.152344 78.753906 320.292969 78.589844 320.476562 C 78.425781 320.65625 78.304688 320.863281 78.222656 321.09375 C 78.140625 321.324219 78.105469 321.5625 78.121094 321.804688 C 78.132812 322.050781 78.191406 322.28125 78.296875 322.503906 C 78.402344 322.722656 78.542969 322.914062 78.726562 323.078125 C 83.789062 327.640625 89.09375 331.898438 94.640625 335.851562 C 94.839844 335.992188 95.058594 336.089844 95.296875 336.144531 C 95.535156 336.199219 95.773438 336.207031 96.015625 336.167969 C 96.253906 336.128906 96.480469 336.042969 96.6875 335.914062 C 96.894531 335.78125 97.070312 335.617188 97.210938 335.417969 C 97.351562 335.21875 97.449219 335 97.503906 334.761719 C 97.558594 334.527344 97.566406 334.285156 97.527344 334.042969 C 97.488281 333.804688 97.402344 333.578125 97.273438 333.371094 C 97.140625 333.164062 96.976562 332.992188 96.777344 332.847656 Z M 67.136719 306.136719 C 62.722656 301.128906 58.609375 295.894531 54.796875 290.421875 C 54.660156 290.222656 54.488281 290.054688 54.28125 289.925781 C 54.074219 289.792969 53.851562 289.703125 53.609375 289.660156 C 53.371094 289.617188 53.128906 289.625 52.890625 289.675781 C 52.652344 289.726562 52.433594 289.824219 52.234375 289.964844 C 52.03125 290.101562 51.867188 290.277344 51.734375 290.480469 C 51.601562 290.6875 51.515625 290.910156 51.472656 291.152344 C 51.429688 291.390625 51.433594 291.632812 51.488281 291.871094 C 51.539062 292.109375 51.632812 292.328125 51.773438 292.527344 C 55.664062 298.113281 59.867188 303.464844 64.375 308.574219 C 64.535156 308.757812 64.726562 308.902344 64.945312 309.007812 C 65.164062 309.117188 65.398438 309.179688 65.640625 309.195312 C 65.886719 309.207031 66.121094 309.175781 66.355469 309.097656 C 66.585938 309.019531 66.792969 308.898438 66.976562 308.734375 C 67.160156 308.574219 67.304688 308.382812 67.410156 308.164062 C 67.519531 307.945312 67.582031 307.714844 67.59375 307.46875 C 67.609375 307.226562 67.578125 306.988281 67.5 306.757812 C 67.421875 306.527344 67.300781 306.316406 67.136719 306.136719 Z M 67.136719 306.136719 " fill-opacity="1" fill-rule="nonzero"/></g><path fill="#093c5f" d="M 367.734375 155.757812 C 369.085938 162.277344 370.058594 168.867188 370.652344 175.527344 C 370.671875 175.769531 370.742188 176 370.855469 176.21875 C 370.96875 176.433594 371.117188 176.621094 371.304688 176.777344 C 371.492188 176.933594 371.703125 177.046875 371.9375 177.121094 C 372.167969 177.195312 372.40625 177.21875 372.652344 177.199219 C 372.894531 177.175781 373.125 177.109375 373.339844 176.996094 C 373.558594 176.882812 373.746094 176.734375 373.902344 176.546875 C 374.058594 176.359375 374.171875 176.148438 374.246094 175.914062 C 374.320312 175.679688 374.34375 175.441406 374.324219 175.199219 C 373.714844 168.398438 372.722656 161.671875 371.34375 155.011719 C 371.292969 154.773438 371.199219 154.550781 371.0625 154.347656 C 370.925781 154.148438 370.753906 153.980469 370.550781 153.84375 C 370.347656 153.710938 370.125 153.621094 369.882812 153.574219 C 369.644531 153.527344 369.40625 153.53125 369.164062 153.582031 C 368.925781 153.628906 368.707031 153.722656 368.503906 153.859375 C 368.300781 154 368.132812 154.167969 368 154.375 C 367.863281 154.578125 367.773438 154.800781 367.730469 155.039062 C 367.683594 155.28125 367.683594 155.519531 367.734375 155.757812 Z M 371.292969 195.503906 C 371.132812 202.191406 370.589844 208.832031 369.671875 215.421875 C 369.636719 215.664062 369.652344 215.902344 369.714844 216.140625 C 369.773438 216.375 369.878906 216.59375 370.027344 216.785156 C 370.171875 216.980469 370.351562 217.140625 370.5625 217.265625 C 370.773438 217.390625 371 217.46875 371.242188 217.5 C 371.484375 217.535156 371.722656 217.523438 371.960938 217.460938 C 372.195312 217.398438 372.414062 217.292969 372.609375 217.148438 C 372.800781 217 372.960938 216.820312 373.085938 216.609375 C 373.210938 216.398438 373.289062 216.171875 373.320312 215.929688 C 374.261719 209.203125 374.8125 202.421875 374.980469 195.59375 C 374.984375 195.347656 374.945312 195.113281 374.855469 194.882812 C 374.769531 194.65625 374.640625 194.453125 374.472656 194.277344 C 374.304688 194.101562 374.105469 193.960938 373.882812 193.863281 C 373.660156 193.765625 373.425781 193.710938 373.183594 193.707031 C 372.9375 193.699219 372.703125 193.742188 372.472656 193.828125 C 372.246094 193.917969 372.042969 194.042969 371.867188 194.214844 C 371.6875 194.382812 371.550781 194.578125 371.453125 194.800781 C 371.351562 195.023438 371.300781 195.257812 371.292969 195.503906 Z M 365.773438 235.019531 C 364.097656 241.476562 362.050781 247.8125 359.636719 254.035156 C 359.550781 254.261719 359.507812 254.5 359.515625 254.742188 C 359.519531 254.988281 359.570312 255.222656 359.671875 255.445312 C 359.769531 255.667969 359.90625 255.863281 360.082031 256.035156 C 360.261719 256.203125 360.460938 256.332031 360.691406 256.417969 C 360.917969 256.507812 361.152344 256.550781 361.398438 256.542969 C 361.640625 256.539062 361.875 256.484375 362.101562 256.386719 C 362.324219 256.289062 362.519531 256.152344 362.6875 255.972656 C 362.859375 255.796875 362.984375 255.59375 363.074219 255.367188 C 365.539062 249.015625 367.628906 242.539062 369.34375 235.945312 C 369.402344 235.710938 369.417969 235.46875 369.382812 235.226562 C 369.347656 234.984375 369.269531 234.761719 369.148438 234.550781 C 369.023438 234.339844 368.863281 234.160156 368.667969 234.011719 C 368.472656 233.863281 368.257812 233.761719 368.023438 233.699219 C 367.785156 233.636719 367.546875 233.625 367.304688 233.65625 C 367.0625 233.691406 366.835938 233.769531 366.625 233.894531 C 366.414062 234.019531 366.234375 234.175781 366.085938 234.371094 C 365.941406 234.566406 365.835938 234.78125 365.773438 235.019531 Z M 365.773438 235.019531 " fill-opacity="1" fill-rule="nonzero"/><path fill="#edc7ec" d="M 326.503906 191.183594 C 326.503906 262.417969 268.757812 320.160156 197.527344 320.160156 C 126.296875 320.160156 68.550781 262.417969 68.550781 191.183594 C 68.550781 119.953125 126.296875 62.210938 197.527344 62.210938 C 268.757812 62.210938 326.503906 119.953125 326.503906 191.183594 " fill-opacity="1" fill-rule="nonzero"/><path fill="#dc3aa7" d="M 174.050781 125.210938 C 165.492188 125.210938 158.746094 117.945312 159.320312 109.402344 C 160.484375 92.214844 162.890625 75.652344 170.179688 65.78125 C 174.835938 59.472656 182.164062 52.296875 189.777344 52.316406 C 196.015625 52.332031 203.449219 52.355469 212.050781 52.367188 C 220.023438 52.375 227.535156 60.015625 232.261719 66.742188 C 239.148438 76.535156 241.378906 92.730469 242.464844 109.457031 C 243.019531 117.980469 236.269531 125.214844 227.726562 125.210938 L 174.050781 125.210938 " fill-opacity="1" fill-rule="nonzero"/><path stroke-linecap="round" transform="matrix(0.0164531, 0, 0, -0.0164531, 0.230348, 366.524976)" fill="none" stroke-linejoin="round" d="M 10564.574384 14666.745837 C 10044.394456 14666.745837 9634.375863 15108.340847 9669.276114 15627.571109 C 9740.026282 16672.204466 9886.274952 17678.851155 10329.294462 18278.803085 C 10612.295135 18662.231011 11057.688812 19098.365437 11520.413906 19097.178354 C 11899.568331 19096.228687 12351.372258 19094.804187 12874.16377 19094.091937 C 13358.731198 19093.617104 13815.283458 18629.230093 14102.557631 18220.398584 C 14521.123224 17625.194987 14656.688144 16640.865465 14722.689979 15624.247275 C 14756.403146 15106.204097 14346.147137 14666.50842 13826.916875 14666.745837 Z M 10564.574384 14666.745837 " stroke="#093c5f" stroke-width="224.01801" stroke-opacity="1" stroke-miterlimit="10"/><path fill="#ffffff" d="M 222.640625 33.449219 C 222.640625 46.226562 212.636719 56.585938 200.292969 56.585938 C 187.953125 56.585938 177.949219 46.226562 177.949219 33.449219 C 177.949219 20.671875 187.953125 10.316406 200.292969 10.316406 C 212.636719 10.316406 222.640625 20.671875 222.640625 33.449219 " fill-opacity="1" fill-rule="nonzero"/><g clip-path="url(#fab900b07c)"><path stroke-linecap="round" transform="matrix(0.0164531, 0, 0, -0.0164531, 0.230348, 366.524976)" fill="none" stroke-linejoin="round" d="M 13517.800368 20243.90088 C 13517.800368 19467.310946 12909.776271 18837.681932 12159.539587 18837.681932 C 11409.54032 18837.681932 10801.516223 19467.310946 10801.516223 20243.90088 C 10801.516223 21020.490814 11409.54032 21649.882412 12159.539587 21649.882412 C 12909.776271 21649.882412 13517.800368 21020.490814 13517.800368 20243.90088 Z M 13517.800368 20243.90088 " stroke="#093c5f" stroke-width="224.01801" stroke-opacity="1" stroke-miterlimit="10"/></g><path fill="#dc3aa7" d="M 271.214844 125.210938 C 262.652344 125.210938 255.90625 117.945312 256.484375 109.402344 C 257.644531 92.214844 260.054688 75.652344 267.339844 65.78125 C 272 59.472656 279.328125 52.296875 286.9375 52.316406 C 293.179688 52.332031 300.613281 52.355469 309.214844 52.367188 C 317.183594 52.375 324.695312 60.015625 329.425781 66.742188 C 336.308594 76.535156 338.542969 92.730469 339.628906 109.457031 C 340.179688 117.980469 333.433594 125.214844 324.890625 125.210938 L 271.214844 125.210938 " fill-opacity="1" fill-rule="nonzero"/><path stroke-linecap="round" transform="matrix(0.0164531, 0, 0, -0.0164531, 0.230348, 366.524976)" fill="none" stroke-linejoin="round" d="M 16470.076685 14666.745837 C 15949.65934 14666.745837 15539.640747 15108.340847 15574.778415 15627.571109 C 15645.291166 16672.204466 15791.777253 17678.851155 16234.559346 18278.803085 C 16517.797436 18662.231011 16963.191113 19098.365437 17425.67879 19097.178354 C 17805.070632 19096.228687 18256.874559 19094.804187 18779.666071 19094.091937 C 19263.996082 19093.617104 19720.548342 18629.230093 20008.059932 18220.398584 C 20426.388108 17625.194987 20562.190444 16640.865465 20628.192279 15624.247275 C 20661.66803 15106.204097 20251.649437 14666.50842 19732.419176 14666.745837 Z M 16470.076685 14666.745837 " stroke="#093c5f" stroke-width="224.01801" stroke-opacity="1" stroke-miterlimit="10"/><path fill="#ffffff" d="M 319.800781 33.449219 C 319.800781 46.226562 309.796875 56.585938 297.457031 56.585938 C 285.113281 56.585938 275.113281 46.226562 275.113281 33.449219 C 275.113281 20.671875 285.113281 10.316406 297.457031 10.316406 C 309.796875 10.316406 319.800781 20.671875 319.800781 33.449219 " fill-opacity="1" fill-rule="nonzero"/><g clip-path="url(#665fe4b41a)"><path stroke-linecap="round" transform="matrix(0.0164531, 0, 0, -0.0164531, 0.230348, 366.524976)" fill="none" stroke-linejoin="round" d="M 19423.065252 20243.90088 C 19423.065252 19467.310946 18815.041155 18837.681932 18065.041888 18837.681932 C 17314.805204 18837.681932 16707.018524 19467.310946 16707.018524 20243.90088 C 16707.018524 21020.490814 17314.805204 21649.882412 18065.041888 21649.882412 C 18815.041155 21649.882412 19423.065252 21020.490814 19423.065252 20243.90088 Z M 19423.065252 20243.90088 " stroke="#093c5f" stroke-width="224.01801" stroke-opacity="1" stroke-miterlimit="10"/></g><path fill="#fdc175" d="M 222.0625 157.351562 C 213.265625 157.351562 206.332031 149.886719 206.925781 141.105469 C 208.117188 123.441406 210.59375 106.421875 218.078125 96.28125 C 222.867188 89.796875 230.398438 82.425781 238.21875 82.441406 C 244.632812 82.460938 252.273438 82.484375 261.113281 82.496094 C 269.300781 82.503906 277.023438 90.355469 281.878906 97.269531 C 288.957031 107.328125 291.25 123.976562 292.363281 141.164062 C 292.933594 149.925781 286 157.355469 277.222656 157.351562 L 222.0625 157.351562 " fill-opacity="1" fill-rule="nonzero"/><path stroke-linecap="round" transform="matrix(0.0164531, 0, 0, -0.0164531, 0.230348, 366.524976)" fill="none" stroke-linejoin="round" d="M 13482.6627 12713.281459 C 12948.000355 12713.281459 12526.585762 13166.984719 12562.673096 13700.697398 C 12635.085181 14774.295589 12785.607351 15808.720029 13240.497695 16425.05371 C 13531.570535 16819.165386 13989.309879 17267.170646 14464.618056 17266.220979 C 14854.456232 17265.033896 15318.843242 17263.609396 15856.117171 17262.897146 C 16353.742516 17262.422312 16823.115276 16785.214802 17118.2242 16364.987292 C 17548.423209 15753.639361 17687.786796 14741.769505 17755.450547 13697.136148 C 17790.113382 13164.610553 17368.698789 12713.044042 16835.223527 12713.281459 Z M 13482.6627 12713.281459 " stroke="#093c5f" stroke-width="224.01801" stroke-opacity="1" stroke-miterlimit="10"/><path fill="#ffffff" d="M 271.992188 63.058594 C 271.992188 76.1875 261.710938 86.828125 249.027344 86.828125 C 236.347656 86.828125 226.066406 76.1875 226.066406 63.058594 C 226.066406 49.925781 236.347656 39.28125 249.027344 39.28125 C 261.710938 39.28125 271.992188 49.925781 271.992188 63.058594 " fill-opacity="1" fill-rule="nonzero"/><path stroke-linecap="round" transform="matrix(0.0164531, 0, 0, -0.0164531, 0.230348, 366.524976)" fill="none" stroke-linejoin="round" d="M 16517.322603 18444.282506 C 16517.322603 17646.325071 15892.441922 16999.602056 15121.549988 16999.602056 C 14350.89547 16999.602056 13726.014789 17646.325071 13726.014789 18444.282506 C 13726.014789 19242.477357 14350.89547 19889.437789 15121.549988 19889.437789 C 15892.441922 19889.437789 16517.322603 19242.477357 16517.322603 18444.282506 Z M 16517.322603 18444.282506 " stroke="#093c5f" stroke-width="224.01801" stroke-opacity="1" stroke-miterlimit="10"/><path fill="#aa1da4" d="M 351.832031 155.054688 C 335.347656 171.539062 308.625 171.539062 292.144531 155.054688 C 275.660156 138.574219 275.660156 111.851562 292.144531 95.367188 C 308.625 78.882812 335.347656 78.882812 351.832031 95.367188 C 368.316406 111.851562 368.316406 138.574219 351.832031 155.054688 " fill-opacity="1" fill-rule="nonzero"/><path stroke-linecap="round" transform="matrix(0.0164531, 0, 0, -0.0164531, 0.230348, 366.524976)" fill="none" stroke-linejoin="round" d="M 21369.881963 12852.882462 C 20367.983607 11850.984106 18743.816153 11850.984106 17742.155214 12852.882462 C 16740.256858 13854.543402 16740.256858 15478.710855 17742.155214 16480.609211 C 18743.816153 17482.507567 20367.983607 17482.507567 21369.881963 16480.609211 C 22371.780319 15478.710855 22371.780319 13854.543402 21369.881963 12852.882462 Z M 21369.881963 12852.882462 " stroke="#093c5f" stroke-width="224.01801" stroke-opacity="1" stroke-miterlimit="10"/><path fill="#ffffff" d="M 328.71875 133.011719 L 344.605469 133.011719 C 348.191406 133.011719 351.089844 130.109375 351.09375 126.527344 C 351.089844 122.945312 348.1875 120.039062 344.605469 120.039062 L 328.71875 120.039062 L 328.71875 104.148438 C 328.714844 100.566406 325.8125 97.667969 322.230469 97.664062 C 318.648438 97.664062 315.746094 100.566406 315.746094 104.148438 L 315.746094 120.039062 L 299.855469 120.039062 C 296.273438 120.039062 293.371094 122.941406 293.371094 126.527344 C 293.371094 128.316406 294.097656 129.9375 295.269531 131.113281 C 296.441406 132.285156 298.066406 133.011719 299.855469 133.011719 L 315.746094 133.011719 L 315.746094 148.902344 C 315.746094 150.691406 316.472656 152.3125 317.644531 153.488281 C 318.820312 154.660156 320.441406 155.386719 322.230469 155.386719 C 325.8125 155.386719 328.71875 152.484375 328.71875 148.902344 L 328.71875 133.011719 " fill-opacity="1" fill-rule="nonzero"/><path stroke-linecap="round" transform="matrix(0.0164531, 0, 0, -0.0164531, 0.230348, 366.524976)" fill="none" stroke-linejoin="round" d="M 19965.087514 14192.624743 L 20930.66112 14192.624743 C 21148.609624 14192.624743 21324.772795 14369.02533 21325.010212 14586.736418 C 21324.772795 14804.447507 21148.372208 14981.085511 20930.66112 14981.085511 L 19965.087514 14981.085511 L 19965.087514 15946.896533 C 19964.850098 16164.607621 19788.44951 16340.770791 19570.738422 16341.008208 C 19353.027334 16341.008208 19176.626746 16164.607621 19176.626746 15946.896533 L 19176.626746 14981.085511 L 18210.815724 14981.085511 C 17993.104636 14981.085511 17816.704049 14804.684923 17816.704049 14586.736418 C 17816.704049 14477.999583 17860.86355 14379.471664 17932.088551 14308.009245 C 18003.313553 14236.784244 18102.078889 14192.624743 18210.815724 14192.624743 L 19176.626746 14192.624743 L 19176.626746 13226.813721 C 19176.626746 13118.076885 19220.786247 13019.548966 19292.011249 12948.086548 C 19363.473667 12876.861546 19462.001586 12832.702045 19570.738422 12832.702045 C 19788.44951 12832.702045 19965.087514 13009.102633 19965.087514 13226.813721 Z M 19965.087514 14192.624743 " stroke="#093c5f" stroke-width="224.01801" stroke-opacity="1" stroke-miterlimit="10"/><path fill="#ffffff" d="M 157.585938 250.214844 C 154.40625 254.644531 148.613281 255.488281 144.644531 252.09375 C 148.613281 255.488281 149.253906 261.832031 146.074219 266.265625 C 142.894531 270.699219 137.101562 271.539062 133.132812 268.144531 L 129.046875 264.652344 C 131.238281 266.523438 132.414062 269.292969 132.496094 272.144531 C 132.5625 274.464844 131.902344 276.835938 130.480469 278.824219 C 127.300781 283.253906 121.507812 284.097656 117.539062 280.703125 L 110.125 274.359375 C 112.3125 276.234375 113.492188 279.003906 113.574219 281.855469 C 113.640625 284.175781 113.210938 285.65625 111.792969 287.589844 C 109.871094 290.210938 105.378906 293.523438 100.429688 289.820312 L 19.84375 223.746094 C 20.609375 223.382812 21.300781 222.8125 21.855469 222.042969 L 51.65625 180.480469 C 53.402344 178.050781 55.199219 176.300781 55.199219 176.300781 C 56.554688 176.066406 58.796875 177.398438 62.507812 177.363281 C 73.035156 177.257812 96.425781 177.320312 104.714844 182.589844 C 107.5 184.359375 150.484375 231.265625 150.484375 231.265625 L 156.152344 236.042969 C 160.121094 239.4375 160.761719 245.78125 157.585938 250.214844 " fill-opacity="1" fill-rule="nonzero"/><path stroke-linecap="round" transform="matrix(0.0164531, 0, 0, -0.0164531, 0.230348, 366.524976)" fill="none" stroke-linejoin="round" d="M 9563.863111 7069.174914 C 9370.60594 6799.944408 9018.517016 6748.662407 8777.301677 6954.977495 C 9018.517016 6748.662407 9057.45335 6363.097732 8864.196179 6093.629809 C 8670.939008 5824.161886 8318.850083 5773.117302 8077.634744 5979.43239 L 7829.296905 6191.682894 C 7962.487658 6077.960308 8033.950077 5909.631888 8038.935827 5736.317717 C 8042.97191 5595.292214 8002.848493 5451.180294 7916.428824 5330.335208 C 7723.171653 5061.104702 7371.082728 5009.822701 7129.86739 5216.137789 L 6679.250546 5601.702464 C 6812.203882 5487.742462 6883.903717 5319.414041 6888.889467 5146.099871 C 6892.925551 5005.074367 6866.809717 4915.093449 6780.627465 4797.572196 C 6663.818462 4638.265609 6390.789289 4436.936271 6089.982366 4662.007276 L 1192.076421 8677.910284 C 1238.610089 8699.990035 1280.63284 8734.652869 1314.346007 8781.423953 L 3125.597799 11307.537344 C 3231.723051 11455.210514 3340.93472 11561.573183 3340.93472 11561.573183 C 3423.318305 11575.818183 3559.595475 11494.859098 3785.141314 11496.995848 C 4424.979245 11503.406098 5846.630277 11499.607432 6350.428455 11179.332341 C 6519.706542 11071.782589 9132.239602 8220.88319 9132.239602 8220.88319 L 9476.731193 7930.522601 C 9717.946532 7724.207513 9756.882866 7338.642837 9563.863111 7069.174914 Z M 9563.863111 7069.174914 " stroke="#093c5f" stroke-width="224.01801" stroke-opacity="1" stroke-miterlimit="10"/><path stroke-linecap="round" transform="matrix(0.0164531, 0, 0, -0.0164531, 0.230348, 366.524976)" fill="none" stroke-linejoin="round" d="M 8777.301677 6954.977495 L 7814.814488 7738.215096 " stroke="#093c5f" stroke-width="224.01801" stroke-opacity="1" stroke-miterlimit="10"/><path stroke-linecap="round" transform="matrix(0.0164531, 0, 0, -0.0164531, 0.230348, 366.524976)" fill="none" stroke-linejoin="round" d="M 7829.296905 6191.682894 L 7090.456222 6822.261575 " stroke="#093c5f" stroke-width="224.01801" stroke-opacity="1" stroke-miterlimit="10"/><path stroke-linecap="round" transform="matrix(0.0164531, 0, 0, -0.0164531, 0.230348, 366.524976)" fill="none" stroke-linejoin="round" d="M 6679.250546 5601.702464 L 6513.296292 5763.858051 " stroke="#093c5f" stroke-width="224.01801" stroke-opacity="1" stroke-miterlimit="10"/><path fill="#aa1da4" d="M 39.964844 159.945312 L 61.949219 174.34375 C 64.519531 176.292969 65.085938 180.085938 63.214844 182.808594 L 31.191406 229.40625 C 29.320312 232.128906 25.71875 232.757812 23.148438 230.804688 L 2.074219 214.796875 L 39.964844 159.945312 " fill-opacity="1" fill-rule="nonzero"/><path stroke-linecap="round" transform="matrix(0.0164531, 0, 0, -0.0164531, 0.230348, 366.524976)" fill="none" stroke-linejoin="round" d="M 2415.009699 12555.636789 L 3751.190729 11680.518936 C 3907.4109 11562.048016 3941.836317 11331.516428 3828.113731 11166.037007 L 1881.771854 8333.893526 C 1768.049268 8168.414106 1549.151096 8130.190022 1392.930926 8248.898358 L 112.06798 9221.83188 Z M 2415.009699 12555.636789 " stroke="#093c5f" stroke-width="224.01801" stroke-opacity="1" stroke-miterlimit="10"/><path stroke-linecap="round" transform="matrix(0.0164531, 0, 0, -0.0164531, 0.230348, 366.524976)" fill-opacity="1" fill="#ffffff" fill-rule="nonzero" stroke-linejoin="round" d="M 8266.143582 11346.473678 C 8169.752413 11369.977929 7750.47457 11440.015847 7482.193731 11463.994931 C 6777.066215 11527.622599 6265.19587 11410.813596 5688.74819 11156.54034 L 3975.074651 10337.927655 C 3657.648561 10150.131068 3552.710392 9740.587308 3740.506979 9423.161218 L 3740.981813 9422.448968 C 3928.7784 9105.022877 4338.559576 9000.084708 4656.223083 9187.881296 L 6693.732963 10198.089235 L 9826.683367 7676.486761 L 10503.795716 8017.891936 " stroke="#093c5f" stroke-width="224.01801" stroke-opacity="1" stroke-miterlimit="10"/><path fill="#ffffff" d="M 85.839844 266.609375 C 89.460938 263.4375 94.882812 263.910156 97.949219 267.664062 C 101.015625 271.414062 100.566406 277.027344 96.945312 280.199219 L 88.5 286.917969 C 85.003906 288.84375 80.570312 288.054688 77.910156 284.796875 C 76.574219 283.164062 75.902344 281.179688 75.871094 279.191406 C 75.832031 276.621094 76.867188 274.046875 78.914062 272.257812 L 85.839844 266.609375 " fill-opacity="1" fill-rule="nonzero"/><path stroke-linecap="round" transform="matrix(0.0164531, 0, 0, -0.0164531, 0.230348, 366.524976)" fill="none" stroke-linejoin="round" d="M 5203.231096 6072.737142 C 5423.316351 6265.519479 5752.850692 6236.792062 5939.222779 6008.63464 C 6125.594867 5780.714635 6098.291949 5439.546877 5878.206694 5246.76454 L 5364.911849 4838.407864 C 5152.423928 4721.361444 4882.956005 4769.319612 4721.275251 4967.325117 C 4640.07875 5066.565286 4599.243082 5187.172955 4597.343749 5308.018041 C 4594.969582 5464.238211 4657.885 5620.695798 4782.291336 5729.432634 Z M 5203.231096 6072.737142 " stroke="#093c5f" stroke-width="224.01801" stroke-opacity="1" stroke-miterlimit="10"/><path fill="#ffffff" d="M 56.550781 245.753906 C 58.597656 243.960938 59.632812 241.390625 59.59375 238.820312 C 59.5625 236.832031 58.890625 234.847656 57.558594 233.214844 C 54.894531 229.953125 50.457031 229.171875 46.964844 231.097656 L 35.105469 240.671875 C 31.484375 243.84375 31.035156 249.453125 34.101562 253.210938 C 37.164062 256.960938 42.589844 257.433594 46.210938 254.261719 L 56.550781 245.753906 " fill-opacity="1" fill-rule="nonzero"/><path stroke-linecap="round" transform="matrix(0.0164531, 0, 0, -0.0164531, 0.230348, 366.524976)" fill="none" stroke-linejoin="round" d="M 3423.080889 7340.304754 C 3547.487225 7449.279006 3610.402643 7605.499176 3608.028476 7761.719347 C 3606.129143 7882.564433 3565.293475 8003.172102 3484.33439 8102.412271 C 3322.41622 8300.655192 3052.71088 8348.138527 2840.460375 8231.092107 L 2119.663359 7649.183844 C 1899.578104 7456.401506 1872.275187 7115.471165 2058.647274 6887.076327 C 2244.781945 6659.156322 2574.553703 6630.428904 2794.638958 6823.211242 Z M 3423.080889 7340.304754 " stroke="#093c5f" stroke-width="224.01801" stroke-opacity="1" stroke-miterlimit="10"/><path fill="#ffffff" d="M 74.421875 253.417969 L 78.148438 250.15625 C 81.769531 246.984375 87.191406 247.457031 90.261719 251.207031 C 93.328125 254.964844 92.875 260.578125 89.257812 263.75 L 78.914062 272.257812 L 72.144531 278.183594 C 68.527344 281.355469 63.105469 280.882812 60.035156 277.128906 C 58.703125 275.496094 58.03125 273.507812 58.003906 271.527344 C 57.960938 268.949219 58.996094 266.382812 61.042969 264.589844 L 74.421875 253.417969 " fill-opacity="1" fill-rule="nonzero"/><path stroke-linecap="round" transform="matrix(0.0164531, 0, 0, -0.0164531, 0.230348, 366.524976)" fill="none" stroke-linejoin="round" d="M 4509.262163 6874.493243 L 4735.757668 7072.736164 C 4955.842923 7265.518502 5285.377264 7236.791085 5471.986769 7008.87108 C 5658.358856 6780.476241 5630.818522 6439.308483 5410.970684 6246.526146 L 4782.291336 5729.432634 L 4370.848244 5369.271542 C 4151.000405 5176.489205 3821.466064 5205.216622 3634.85656 5433.374044 C 3553.897475 5532.614213 3513.061807 5653.459299 3511.399891 5773.829552 C 3508.788307 5930.524555 3571.703725 6086.507309 3696.110062 6195.481561 Z M 4509.262163 6874.493243 " stroke="#093c5f" stroke-width="224.01801" stroke-opacity="1" stroke-miterlimit="10"/><path fill="#ffffff" d="M 56.550781 245.753906 L 63.316406 239.828125 C 66.941406 236.65625 72.359375 237.128906 75.425781 240.882812 C 76.761719 242.515625 77.429688 244.503906 77.460938 246.484375 C 77.503906 249.058594 76.46875 251.628906 74.421875 253.417969 L 61.042969 264.589844 L 57.3125 267.855469 C 53.695312 271.027344 48.273438 270.554688 45.203125 266.800781 C 42.140625 263.046875 42.589844 257.433594 46.210938 254.261719 L 56.550781 245.753906 " fill-opacity="1" fill-rule="nonzero"/><path stroke-linecap="round" transform="matrix(0.0164531, 0, 0, -0.0164531, 0.230348, 366.524976)" fill="none" stroke-linejoin="round" d="M 3423.080889 7340.304754 L 3834.286565 7700.465845 C 4054.609236 7893.248183 4383.90616 7864.520766 4570.278248 7636.363344 C 4651.47475 7537.123175 4692.073001 7416.278089 4693.972334 7295.907836 C 4696.583918 7139.450249 4633.6685 6983.230079 4509.262163 6874.493243 L 3696.110062 6195.481561 L 3469.37714 5997.001223 C 3249.529301 5804.218886 2919.994961 5832.946303 2733.385456 6061.103725 C 2547.250785 6289.261147 2574.553703 6630.428904 2794.638958 6823.211242 Z M 3423.080889 7340.304754 " stroke="#093c5f" stroke-width="224.01801" stroke-opacity="1" stroke-miterlimit="10"/><path stroke-linecap="round" transform="matrix(0.0164531, 0, 0, -0.0164531, 0.230348, 366.524976)" fill-opacity="1" fill="#ffffff" fill-rule="nonzero" stroke-linejoin="round" d="M 3423.080889 7340.304754 L 2794.638958 6823.211242 " stroke="#093c5f" stroke-width="224.01801" stroke-opacity="1" stroke-miterlimit="10"/><path fill="#fdc175" d="M 198.917969 223.226562 L 175.300781 236.917969 C 172.421875 238.585938 168.675781 237.507812 166.9375 234.507812 L 137.183594 183.191406 C 135.445312 180.191406 136.367188 176.40625 139.25 174.738281 L 162.988281 159.902344 L 198.917969 223.226562 " fill-opacity="1" fill-rule="nonzero"/><path stroke-linecap="round" transform="matrix(0.0164531, 0, 0, -0.0164531, 0.230348, 366.524976)" fill="none" stroke-linejoin="round" d="M 12075.968918 8709.486702 L 10640.547719 7877.341266 C 10465.571632 7775.964347 10237.889043 7841.491349 10132.238624 8023.827353 L 8323.835833 11142.770173 C 8218.185414 11325.106178 8274.215749 11555.162933 8449.429253 11656.539852 L 9892.210369 12558.248372 Z M 12075.968918 8709.486702 " stroke="#093c5f" stroke-width="224.01801" stroke-opacity="1" stroke-miterlimit="10"/><path fill="#ffffff" d="M 64.902344 125.980469 C 64.902344 145.355469 80.609375 161.0625 99.984375 161.0625 C 119.359375 161.0625 135.066406 145.355469 135.066406 125.980469 C 135.066406 106.605469 119.359375 90.898438 99.984375 90.898438 C 80.609375 90.898438 64.902344 106.605469 64.902344 125.980469 " fill-opacity="1" fill-rule="nonzero"/><path stroke-linecap="round" transform="matrix(0.0164531, 0, 0, -0.0164531, 0.230348, 366.524976)" fill="none" stroke-linejoin="round" d="M 3930.677734 14619.974752 C 3930.677734 13442.388059 4885.330172 12487.735621 6062.916865 12487.735621 C 7240.503559 12487.735621 8195.155997 13442.388059 8195.155997 14619.974752 C 8195.155997 15797.561446 7240.503559 16752.213884 6062.916865 16752.213884 C 4885.330172 16752.213884 3930.677734 15797.561446 3930.677734 14619.974752 Z M 3930.677734 14619.974752 " stroke="#093c5f" stroke-width="224.01801" stroke-opacity="1" stroke-miterlimit="10"/><path fill="#dc3aa7" d="M 132.851562 101.167969 C 129.898438 98.210938 125.109375 98.210938 122.152344 101.167969 L 98.566406 124.757812 L 89.804688 115.996094 C 86.847656 113.039062 82.0625 113.039062 79.105469 115.996094 C 76.152344 118.949219 76.152344 123.734375 79.105469 126.691406 L 92.574219 140.160156 C 94.214844 141.800781 96.421875 142.496094 98.566406 142.3125 C 100.710938 142.496094 102.914062 141.800781 104.554688 140.160156 L 132.851562 111.863281 C 135.804688 108.910156 135.804688 104.121094 132.851562 101.167969 " fill-opacity="1" fill-rule="nonzero"/><path stroke-linecap="round" transform="matrix(0.0164531, 0, 0, -0.0164531, 0.230348, 366.524976)" fill="none" stroke-linejoin="round" d="M 8060.540744 16128.045453 C 7881.05374 16307.769874 7589.9809 16307.769874 7410.256479 16128.045453 L 5976.734613 14694.286171 L 5444.209018 15226.811766 C 5264.484597 15406.536187 4973.649174 15406.536187 4793.924753 15226.811766 C 4614.437749 15047.324762 4614.437749 14756.489339 4793.924753 14576.764918 L 5612.537438 13758.152233 C 5712.252441 13658.437231 5846.39286 13616.177063 5976.734613 13627.335647 C 6107.076366 13616.177063 6240.979369 13658.437231 6340.694372 13758.152233 L 8060.540744 15477.998605 C 8240.027748 15657.485609 8240.027748 15948.558449 8060.540744 16128.045453 Z M 8060.540744 16128.045453 " stroke="#093c5f" stroke-width="224.01801" stroke-opacity="1" stroke-miterlimit="10"/><path stroke-linecap="round" transform="matrix(0.0164531, 0, 0, -0.0164531, 0.230348, 366.524976)" fill-opacity="1" fill="#ffffff" fill-rule="nonzero" stroke-linejoin="round" d="M 17500.465042 714.005437 C 17500.465042 714.005437 17262.098703 3814.90459 17353.504122 4129.481681 C 17383.893456 4234.182433 17426.628457 4330.573602 17485.982625 4401.798604 C 17804.595799 4782.140112 18054.358138 4869.509448 18358.488894 5691.683383 C 18497.852481 6068.226225 18829.048738 7561.102259 18905.25949 7923.637517 C 18927.814074 8030.712436 18907.39624 8144.672439 18839.495072 8230.379857 C 18679.001402 8431.709195 18405.022562 8318.461443 18213.664725 8002.459852 C 18041.300221 7718.272096 17920.692551 7291.159503 17845.431466 6954.265245 C 17834.272883 6904.407744 17818.840799 6855.499909 17793.912048 6811.102992 C 17748.802881 7031.900497 17845.668883 9443.341635 17797.948132 10283.321821 C 17770.645214 10764.802832 17185.650534 10913.663085 17041.538615 10350.985572 L 15351.84416 9651.081223 C 15350.894493 10025.012481 14562.196308 10116.655317 14535.130808 9449.514468 C 14457.258139 7532.137425 14313.621053 5550.895297 14921.64515 4414.619104 C 14966.991734 4330.098769 14991.920485 4244.39135 14996.431401 4112.387681 C 15004.740985 3876.632925 14878.197899 434.328597 14878.197899 434.328597 " stroke="#093c5f" stroke-width="224.01801" stroke-opacity="1" stroke-miterlimit="10"/><path stroke-linecap="round" transform="matrix(0.0164531, 0, 0, -0.0164531, 0.230348, 366.524976)" fill-opacity="1" fill="#ffffff" fill-rule="nonzero" stroke-linejoin="round" d="M 15351.84416 7872.592933 C 15351.84416 7872.592933 15353.743493 9671.024223 15351.84416 10582.466827 C 15350.894493 11045.904171 16109.678177 11059.436922 16146.002928 10587.452578 L 16146.002928 8239.876524 C 16146.240344 8242.488108 16146.002928 9965.420897 16146.002928 10997.708587 C 16146.002928 11212.095842 16352.792849 11379.474596 16556.02152 11381.611346 C 16786.078275 11383.748096 17015.897614 11227.290509 17021.120781 10953.311669 C 17037.977364 10064.423649 17023.257531 8136.837689 17023.257531 8136.837689 " stroke="#093c5f" stroke-width="224.01801" stroke-opacity="1" stroke-miterlimit="10"/><path stroke-linecap="round" transform="matrix(0.0164531, 0, 0, -0.0164531, 0.230348, 366.524976)" fill-opacity="1" fill="#dc3aa7" fill-rule="nonzero" stroke-linejoin="round" d="M 12944.201688 471.603015 C 12944.201688 471.603015 12856.35752 1765.049044 12923.071604 1993.918716 C 12945.151355 2070.366884 12976.252939 2140.642219 13019.70019 2192.399054 C 13251.418862 2469.46431 13433.517449 2533.091978 13655.027204 3132.094242 C 13756.64154 3406.310498 13997.856879 4493.678856 14053.41238 4757.686195 C 14069.79413 4835.79628 14055.074297 4918.892115 14005.454212 4981.095284 C 13888.64521 5128.056204 13688.977788 5045.197785 13549.614202 4815.14103 C 13424.020782 4608.113692 13336.176614 4297.097851 13281.333363 4051.609012 C 13273.261196 4015.521678 13262.102612 3979.909178 13244.058945 3947.383093 C 13211.058028 4108.351597 13281.570779 5864.760137 13246.907945 6476.820318 C 13226.964945 6827.484742 12800.802018 6935.746745 12695.863849 6525.965569 L 11465.095821 6016.231974 C 11464.383571 6288.31148 10889.835225 6355.262981 10870.129641 5869.271054 C 10813.387056 4472.548772 10678.29697 3029.530239 11121.31648 2201.89572 C 11154.317398 2140.167386 11172.598481 2077.726801 11175.684898 1981.573049 C 11181.620315 1809.920795 11119.89198 471.603015 11119.89198 471.603015 " stroke="#093c5f" stroke-width="224.01801" stroke-opacity="1" stroke-miterlimit="10"/><path stroke-linecap="round" transform="matrix(0.0164531, 0, 0, -0.0164531, 0.230348, 366.524976)" fill-opacity="1" fill="#dc3aa7" fill-rule="nonzero" stroke-linejoin="round" d="M 11465.095821 4720.649194 C 11465.095821 4720.649194 11466.520321 6030.714391 11465.095821 6694.531406 C 11464.383571 7032.137913 12017.089584 7042.109414 12043.442834 6698.092656 L 12043.442834 4988.217784 C 12043.680251 4990.117117 12043.442834 6245.101646 12043.442834 6997.000246 C 12043.442834 7153.220416 12194.202421 7275.015169 12342.113008 7276.677086 C 12509.729178 7278.339002 12677.107932 7164.141583 12680.906599 6964.711579 C 12693.252266 6317.038897 12682.568516 4913.194115 12682.568516 4913.194115 " stroke="#093c5f" stroke-width="224.01801" stroke-opacity="1" stroke-miterlimit="10"/><path stroke-linecap="round" transform="matrix(0.0164531, 0, 0, -0.0164531, 0.230348, 366.524976)" fill-opacity="1" fill="#aa1da4" fill-rule="nonzero" stroke-linejoin="round" d="M 20912.854869 1438.60112 C 20912.854869 1438.60112 20899.796952 1730.861043 20966.511037 1959.968132 C 20988.828204 2036.178883 21019.692372 2106.454218 21063.139623 2158.211053 C 21295.095711 2435.276309 21476.956882 2498.903977 21698.704054 3097.906241 C 21800.080973 3372.122497 22041.296311 4459.490855 22096.851813 4723.735611 C 22113.233563 4801.60828 22098.513729 4884.704115 22048.893645 4946.907283 C 21932.084642 5093.868203 21732.417221 5011.247201 21593.053635 4780.953029 C 21467.697632 4573.925691 21379.616046 4262.909851 21324.772795 4017.421012 C 21316.700628 3981.333678 21305.304628 3945.721177 21287.498378 3913.195093 C 21254.49746 4074.163596 21325.010212 5830.572136 21290.347378 6442.3949 C 21270.404377 6793.296741 20844.241451 6901.558744 20739.303282 6491.777568 L 19508.535254 5982.043973 C 19507.823004 6254.360896 18933.274658 6321.074981 18913.569074 5835.083053 C 18856.826489 4438.360771 18721.736403 2995.342238 19164.755913 2167.70772 C 19197.75683 2105.979385 19215.800497 2043.5388 19219.124331 1947.385048 C 19225.059747 1775.732794 19163.568829 942.875109 19163.568829 942.875109 " stroke="#093c5f" stroke-width="224.01801" stroke-opacity="1" stroke-miterlimit="10"/><path stroke-linecap="round" transform="matrix(0.0164531, 0, 0, -0.0164531, 0.230348, 366.524976)" fill-opacity="1" fill="#aa1da4" fill-rule="nonzero" stroke-linejoin="round" d="M 19508.535254 4686.461194 C 19508.535254 4686.461194 19509.959754 5996.52639 19508.535254 6660.343405 C 19507.823004 6997.949913 20060.2916 7007.683996 20086.882267 6663.904655 L 20086.882267 4954.029783 C 20087.119684 4955.929116 20086.882267 6210.913645 20086.882267 6962.812245 C 20086.882267 7118.794999 20237.641854 7240.827168 20385.789857 7242.489085 C 20553.168611 7244.151002 20720.547365 7129.953582 20724.346032 6930.523578 C 20736.691698 6283.088313 20726.007948 4879.006115 20726.007948 4879.006115 " stroke="#093c5f" stroke-width="224.01801" stroke-opacity="1" stroke-miterlimit="10"/></svg>