<svg xmlns="http://www.w3.org/2000/svg" xmlns:xlink="http://www.w3.org/1999/xlink" width="500" zoomAndPan="magnify" viewBox="0 0 375 374.999991" height="500" preserveAspectRatio="xMidYMid meet" version="1.0"><defs><clipPath id="e3b41de175"><path d="M 106 323 L 280 323 L 280 360.515625 L 106 360.515625 Z M 106 323 " clip-rule="nonzero"/></clipPath></defs><path fill="#43105f" d="M 3.523438 193.96875 C 2.550781 193.96875 1.746094 193.199219 1.710938 192.222656 C 1.636719 190.109375 1.597656 187.964844 1.597656 185.847656 C 1.597656 181.285156 1.777344 176.679688 2.128906 172.15625 C 2.203125 171.15625 3.078125 170.410156 4.074219 170.488281 C 5.074219 170.566406 5.820312 171.4375 5.742188 172.433594 C 5.398438 176.867188 5.222656 181.378906 5.222656 185.847656 C 5.222656 187.921875 5.261719 190.023438 5.335938 192.089844 C 5.371094 193.09375 4.589844 193.933594 3.589844 193.96875 C 3.566406 193.96875 3.546875 193.96875 3.523438 193.96875 Z M 6.605469 154.421875 C 6.492188 154.421875 6.375 154.410156 6.257812 154.386719 C 5.273438 154.195312 4.632812 153.246094 4.824219 152.261719 C 6.101562 145.710938 7.773438 139.164062 9.796875 132.808594 C 10.101562 131.855469 11.121094 131.328125 12.074219 131.632812 C 13.03125 131.9375 13.558594 132.957031 13.253906 133.910156 C 11.273438 140.132812 9.632812 146.539062 8.382812 152.953125 C 8.214844 153.820312 7.457031 154.421875 6.605469 154.421875 Z M 18.640625 116.625 C 18.390625 116.625 18.136719 116.570312 17.894531 116.460938 C 16.980469 116.050781 16.574219 114.976562 16.988281 114.0625 C 19.730469 107.988281 22.859375 102.003906 26.292969 96.273438 C 26.804688 95.414062 27.917969 95.136719 28.777344 95.648438 C 29.636719 96.164062 29.917969 97.277344 29.402344 98.136719 C 26.042969 103.746094 22.980469 109.605469 20.292969 115.554688 C 19.988281 116.226562 19.328125 116.625 18.640625 116.625 Z M 39.011719 82.585938 C 38.628906 82.585938 38.238281 82.464844 37.910156 82.210938 C 37.117188 81.601562 36.964844 80.464844 37.574219 79.671875 C 41.632812 74.378906 46.042969 69.265625 50.679688 64.46875 C 51.378906 63.746094 52.527344 63.726562 53.246094 64.425781 C 53.964844 65.121094 53.984375 66.269531 53.289062 66.988281 C 48.746094 71.6875 44.425781 76.695312 40.453125 81.878906 C 40.09375 82.34375 39.554688 82.585938 39.011719 82.585938 Z M 39.011719 82.585938 " fill-opacity="1" fill-rule="nonzero"/><g clip-path="url(#e3b41de175)"><path fill="#43105f" d="M 185.910156 360.207031 C 184.953125 360.207031 184.152344 359.460938 184.101562 358.492188 C 184.046875 357.492188 184.8125 356.640625 185.8125 356.582031 C 192.347656 356.222656 198.917969 355.480469 205.339844 354.378906 C 206.328125 354.210938 207.265625 354.871094 207.433594 355.859375 C 207.601562 356.847656 206.941406 357.785156 205.953125 357.953125 C 199.394531 359.078125 192.683594 359.835938 186.011719 360.203125 C 185.976562 360.207031 185.941406 360.207031 185.910156 360.207031 Z M 166.046875 360.179688 C 166.011719 360.179688 165.972656 360.175781 165.9375 360.175781 C 159.261719 359.789062 152.554688 359.011719 145.996094 357.867188 C 145.011719 357.695312 144.351562 356.753906 144.523438 355.769531 C 144.695312 354.78125 145.632812 354.121094 146.621094 354.292969 C 153.042969 355.414062 159.613281 356.175781 166.148438 356.554688 C 167.148438 356.613281 167.910156 357.472656 167.851562 358.472656 C 167.796875 359.433594 167 360.179688 166.046875 360.179688 Z M 224.996094 353.496094 C 224.214844 353.496094 223.488281 352.984375 223.257812 352.191406 C 222.976562 351.230469 223.527344 350.222656 224.488281 349.941406 C 230.753906 348.101562 236.980469 345.875 242.992188 343.320312 C 243.914062 342.929688 244.980469 343.359375 245.371094 344.28125 C 245.761719 345.203125 245.332031 346.269531 244.410156 346.660156 C 238.269531 349.265625 231.90625 351.542969 225.507812 353.421875 C 225.339844 353.472656 225.164062 353.496094 224.996094 353.496094 Z M 126.96875 353.351562 C 126.796875 353.351562 126.625 353.328125 126.453125 353.277344 C 120.058594 351.378906 113.703125 349.085938 107.566406 346.460938 C 106.648438 346.066406 106.21875 345 106.613281 344.078125 C 107.007812 343.160156 108.074219 342.730469 108.996094 343.125 C 115.003906 345.695312 121.222656 347.941406 127.484375 349.800781 C 128.441406 350.085938 128.988281 351.09375 128.707031 352.054688 C 128.472656 352.84375 127.75 353.351562 126.96875 353.351562 Z M 261.511719 337.996094 C 260.878906 337.996094 260.265625 337.667969 259.933594 337.082031 C 259.4375 336.210938 259.742188 335.101562 260.613281 334.609375 C 266.289062 331.382812 271.839844 327.789062 277.113281 323.925781 C 277.921875 323.335938 279.058594 323.511719 279.648438 324.320312 C 280.242188 325.128906 280.066406 326.261719 279.257812 326.851562 C 273.871094 330.796875 268.199219 334.464844 262.40625 337.761719 C 262.121094 337.921875 261.8125 337.996094 261.511719 337.996094 Z M 261.511719 337.996094 " fill-opacity="1" fill-rule="nonzero"/></g><path fill="#43105f" d="M 347.207031 162.441406 C 346.320312 162.441406 345.546875 161.792969 345.414062 160.890625 C 344.46875 154.421875 343.136719 147.945312 341.453125 141.640625 C 341.195312 140.671875 341.769531 139.679688 342.738281 139.421875 C 343.707031 139.164062 344.699219 139.738281 344.957031 140.703125 C 346.675781 147.144531 348.039062 153.757812 349.003906 160.367188 C 349.148438 161.355469 348.460938 162.277344 347.472656 162.421875 C 347.382812 162.4375 347.292969 162.441406 347.207031 162.441406 Z M 336.980469 124.125 C 336.261719 124.125 335.578125 123.691406 335.296875 122.976562 C 332.894531 116.910156 330.113281 110.910156 327.023438 105.152344 C 326.550781 104.269531 326.882812 103.167969 327.761719 102.695312 C 328.644531 102.222656 329.746094 102.554688 330.21875 103.4375 C 333.375 109.320312 336.214844 115.445312 338.667969 121.644531 C 339.035156 122.574219 338.578125 123.628906 337.648438 123.996094 C 337.429688 124.082031 337.203125 124.125 336.980469 124.125 Z M 318.242188 89.171875 C 317.667969 89.171875 317.105469 88.898438 316.753906 88.390625 C 313.027344 83.03125 308.949219 77.824219 304.628906 72.917969 C 303.96875 72.164062 304.042969 71.019531 304.792969 70.359375 C 305.546875 69.695312 306.691406 69.769531 307.351562 70.523438 C 311.761719 75.53125 315.925781 80.847656 319.730469 86.324219 C 320.300781 87.144531 320.097656 88.273438 319.277344 88.847656 C 318.960938 89.066406 318.601562 89.171875 318.242188 89.171875 Z M 292.035156 59.394531 C 291.601562 59.394531 291.167969 59.242188 290.820312 58.925781 C 285.96875 54.546875 280.816406 50.398438 275.503906 46.605469 C 274.6875 46.023438 274.5 44.890625 275.082031 44.074219 C 275.664062 43.261719 276.796875 43.070312 277.609375 43.652344 C 283.039062 47.527344 288.300781 51.761719 293.25 56.238281 C 293.996094 56.90625 294.050781 58.054688 293.382812 58.796875 C 293.023438 59.191406 292.53125 59.394531 292.035156 59.394531 Z M 292.035156 59.394531 " fill-opacity="1" fill-rule="nonzero"/><path fill="#edc7ec" d="M 303.105469 185.847656 C 303.105469 187.925781 303.054688 190 302.953125 192.074219 C 302.851562 194.148438 302.699219 196.21875 302.496094 198.285156 C 302.289062 200.351562 302.035156 202.410156 301.730469 204.464844 C 301.425781 206.519531 301.074219 208.566406 300.667969 210.601562 C 300.261719 212.636719 299.808594 214.664062 299.304688 216.675781 C 298.796875 218.691406 298.246094 220.691406 297.640625 222.679688 C 297.039062 224.667969 296.386719 226.636719 295.6875 228.59375 C 294.988281 230.546875 294.242188 232.484375 293.445312 234.402344 C 292.652344 236.320312 291.8125 238.21875 290.921875 240.097656 C 290.035156 241.972656 289.101562 243.828125 288.125 245.660156 C 287.144531 247.492188 286.121094 249.296875 285.054688 251.078125 C 283.984375 252.859375 282.875 254.613281 281.722656 256.339844 C 280.566406 258.066406 279.371094 259.761719 278.136719 261.429688 C 276.898438 263.097656 275.621094 264.734375 274.304688 266.339844 C 272.988281 267.945312 271.632812 269.519531 270.238281 271.054688 C 268.84375 272.59375 267.410156 274.097656 265.941406 275.566406 C 264.472656 277.035156 262.972656 278.464844 261.433594 279.859375 C 259.894531 281.253906 258.320312 282.613281 256.714844 283.929688 C 255.113281 285.246094 253.476562 286.523438 251.808594 287.761719 C 250.140625 288.996094 248.441406 290.191406 246.714844 291.347656 C 244.988281 292.5 243.234375 293.609375 241.453125 294.679688 C 239.671875 295.746094 237.867188 296.769531 236.035156 297.746094 C 234.203125 298.726562 232.351562 299.660156 230.472656 300.546875 C 228.59375 301.433594 226.699219 302.277344 224.777344 303.070312 C 222.859375 303.867188 220.925781 304.613281 218.96875 305.3125 C 217.015625 306.011719 215.042969 306.664062 213.054688 307.265625 C 211.070312 307.867188 209.066406 308.421875 207.054688 308.925781 C 205.039062 309.433594 203.015625 309.886719 200.976562 310.292969 C 198.941406 310.695312 196.894531 311.050781 194.839844 311.355469 C 192.785156 311.660156 190.726562 311.914062 188.660156 312.117188 C 186.59375 312.320312 184.523438 312.476562 182.449219 312.578125 C 180.375 312.679688 178.300781 312.730469 176.222656 312.730469 C 174.148438 312.730469 172.070312 312.679688 169.996094 312.578125 C 167.925781 312.476562 165.855469 312.324219 163.785156 312.117188 C 161.71875 311.914062 159.660156 311.660156 157.605469 311.355469 C 155.550781 311.050781 153.507812 310.695312 151.46875 310.292969 C 149.433594 309.886719 147.40625 309.433594 145.394531 308.925781 C 143.378906 308.421875 141.378906 307.867188 139.390625 307.265625 C 137.40625 306.664062 135.433594 306.011719 133.476562 305.3125 C 131.523438 304.613281 129.585938 303.867188 127.667969 303.070312 C 125.75 302.277344 123.851562 301.433594 121.976562 300.546875 C 120.097656 299.660156 118.242188 298.726562 116.410156 297.746094 C 114.582031 296.769531 112.773438 295.746094 110.992188 294.679688 C 109.210938 293.609375 107.457031 292.5 105.730469 291.347656 C 104.003906 290.191406 102.308594 288.996094 100.640625 287.761719 C 98.972656 286.523438 97.335938 285.246094 95.730469 283.929688 C 94.125 282.613281 92.554688 281.253906 91.015625 279.859375 C 89.476562 278.464844 87.972656 277.035156 86.503906 275.566406 C 85.035156 274.097656 83.605469 272.59375 82.210938 271.054688 C 80.816406 269.519531 79.460938 267.945312 78.144531 266.339844 C 76.824219 264.734375 75.546875 263.097656 74.3125 261.429688 C 73.074219 259.761719 71.878906 258.066406 70.726562 256.339844 C 69.570312 254.613281 68.460938 252.859375 67.394531 251.078125 C 66.324219 249.296875 65.304688 247.492188 64.324219 245.660156 C 63.34375 243.828125 62.410156 241.972656 61.523438 240.097656 C 60.636719 238.21875 59.792969 236.320312 59 234.402344 C 58.207031 232.484375 57.457031 230.546875 56.757812 228.59375 C 56.058594 226.636719 55.40625 224.667969 54.804688 222.679688 C 54.203125 220.691406 53.648438 218.691406 53.144531 216.675781 C 52.640625 214.664062 52.183594 212.636719 51.78125 210.601562 C 51.375 208.566406 51.019531 206.519531 50.714844 204.464844 C 50.410156 202.410156 50.15625 200.351562 49.953125 198.285156 C 49.75 196.21875 49.597656 194.148438 49.496094 192.074219 C 49.394531 190 49.34375 187.925781 49.34375 185.847656 C 49.34375 183.769531 49.394531 181.695312 49.496094 179.621094 C 49.597656 177.546875 49.75 175.476562 49.953125 173.410156 C 50.15625 171.34375 50.410156 169.285156 50.714844 167.230469 C 51.019531 165.175781 51.375 163.132812 51.78125 161.09375 C 52.183594 159.058594 52.640625 157.03125 53.144531 155.019531 C 53.648438 153.003906 54.203125 151.003906 54.804688 149.015625 C 55.40625 147.027344 56.058594 145.058594 56.757812 143.101562 C 57.457031 141.148438 58.207031 139.210938 59 137.292969 C 59.792969 135.375 60.636719 133.476562 61.523438 131.597656 C 62.410156 129.722656 63.34375 127.867188 64.324219 126.035156 C 65.304688 124.203125 66.324219 122.398438 67.394531 120.617188 C 68.460938 118.835938 69.570312 117.082031 70.726562 115.355469 C 71.878906 113.628906 73.074219 111.933594 74.3125 110.265625 C 75.546875 108.597656 76.824219 106.960938 78.144531 105.355469 C 79.460938 103.75 80.816406 102.179688 82.210938 100.640625 C 83.605469 99.101562 85.035156 97.597656 86.503906 96.128906 C 87.972656 94.660156 89.476562 93.230469 91.015625 91.835938 C 92.554688 90.441406 94.125 89.085938 95.730469 87.765625 C 97.335938 86.449219 98.972656 85.171875 100.640625 83.933594 C 102.308594 82.699219 104.003906 81.503906 105.730469 80.347656 C 107.457031 79.195312 109.210938 78.085938 110.992188 77.019531 C 112.773438 75.949219 114.582031 74.925781 116.410156 73.949219 C 118.242188 72.96875 120.097656 72.035156 121.976562 71.148438 C 123.851562 70.261719 125.75 69.417969 127.667969 68.625 C 129.585938 67.828125 131.523438 67.082031 133.476562 66.382812 C 135.433594 65.683594 137.40625 65.03125 139.390625 64.429688 C 141.378906 63.828125 143.378906 63.273438 145.394531 62.769531 C 147.410156 62.265625 149.433594 61.808594 151.46875 61.402344 C 153.507812 61 155.550781 60.644531 157.605469 60.339844 C 159.660156 60.035156 161.71875 59.78125 163.785156 59.578125 C 165.855469 59.375 167.925781 59.222656 169.996094 59.117188 C 172.070312 59.015625 174.148438 58.964844 176.222656 58.964844 C 178.300781 58.964844 180.375 59.015625 182.449219 59.117188 C 184.523438 59.222656 186.59375 59.375 188.660156 59.578125 C 190.726562 59.78125 192.785156 60.035156 194.839844 60.339844 C 196.894531 60.644531 198.941406 61 200.976562 61.402344 C 203.015625 61.808594 205.039062 62.265625 207.054688 62.769531 C 209.066406 63.273438 211.070312 63.828125 213.054688 64.429688 C 215.042969 65.03125 217.015625 65.683594 218.96875 66.382812 C 220.925781 67.082031 222.859375 67.828125 224.777344 68.625 C 226.699219 69.417969 228.59375 70.261719 230.472656 71.148438 C 232.351562 72.035156 234.203125 72.96875 236.035156 73.949219 C 237.867188 74.925781 239.671875 75.949219 241.453125 77.019531 C 243.234375 78.085938 244.988281 79.195312 246.714844 80.347656 C 248.441406 81.503906 250.140625 82.699219 251.808594 83.933594 C 253.476562 85.171875 255.113281 86.449219 256.714844 87.765625 C 258.320312 89.085938 259.894531 90.441406 261.433594 91.835938 C 262.972656 93.230469 264.472656 94.660156 265.941406 96.128906 C 267.410156 97.597656 268.84375 99.101562 270.238281 100.640625 C 271.632812 102.179688 272.988281 103.75 274.304688 105.355469 C 275.621094 106.960938 276.898438 108.597656 278.136719 110.265625 C 279.371094 111.933594 280.566406 113.628906 281.722656 115.355469 C 282.875 117.082031 283.984375 118.835938 285.054688 120.617188 C 286.121094 122.398438 287.144531 124.203125 288.125 126.035156 C 289.101562 127.867188 290.035156 129.722656 290.921875 131.597656 C 291.8125 133.476562 292.652344 135.375 293.445312 137.292969 C 294.242188 139.210938 294.988281 141.148438 295.6875 143.101562 C 296.386719 145.058594 297.039062 147.027344 297.640625 149.015625 C 298.246094 151.003906 298.796875 153.003906 299.304688 155.019531 C 299.808594 157.03125 300.261719 159.058594 300.667969 161.09375 C 301.074219 163.132812 301.425781 165.175781 301.730469 167.230469 C 302.035156 169.285156 302.289062 171.34375 302.496094 173.410156 C 302.699219 175.476562 302.851562 177.546875 302.953125 179.621094 C 303.054688 181.695312 303.105469 183.769531 303.105469 185.847656 Z M 303.105469 185.847656 " fill-opacity="1" fill-rule="nonzero"/><path fill="#aa1da4" d="M 108.679688 174.292969 C 97.476562 174.292969 87.824219 180.832031 83.257812 190.289062 C 78.695312 180.832031 69.042969 174.292969 57.839844 174.292969 C 42.242188 174.292969 29.59375 186.9375 29.59375 202.539062 C 29.59375 236.429688 83.257812 267.5 83.257812 267.5 C 83.257812 267.5 136.925781 236.429688 136.925781 202.539062 C 136.925781 186.9375 124.277344 174.292969 108.679688 174.292969 Z M 108.679688 174.292969 " fill-opacity="1" fill-rule="nonzero"/><path fill="#43105f" d="M 83.257812 269.3125 C 82.945312 269.3125 82.632812 269.230469 82.351562 269.070312 C 82.214844 268.988281 68.617188 261.070312 55.21875 249.078125 C 47.3125 242.003906 41 234.90625 36.464844 227.980469 C 30.703125 219.1875 27.78125 210.628906 27.78125 202.539062 C 27.78125 185.964844 41.265625 172.480469 57.839844 172.480469 C 63.597656 172.480469 69.191406 174.117188 74.019531 177.21875 C 77.757812 179.621094 80.90625 182.8125 83.257812 186.550781 C 85.609375 182.8125 88.761719 179.621094 92.5 177.21875 C 97.324219 174.117188 102.921875 172.480469 108.679688 172.480469 C 125.253906 172.480469 138.738281 185.964844 138.738281 202.539062 C 138.738281 210.628906 135.816406 219.1875 130.054688 227.980469 C 125.515625 234.90625 119.207031 242.003906 111.300781 249.078125 C 97.898438 261.070312 84.304688 268.988281 84.167969 269.070312 C 83.886719 269.230469 83.574219 269.3125 83.257812 269.3125 Z M 57.839844 176.105469 C 43.265625 176.105469 31.40625 187.960938 31.40625 202.539062 C 31.40625 219.359375 45.644531 235.640625 57.589844 246.335938 C 68.742188 256.324219 80.035156 263.429688 83.257812 265.386719 C 86.484375 263.429688 97.777344 256.324219 108.929688 246.335938 C 120.875 235.640625 135.109375 219.359375 135.109375 202.539062 C 135.109375 187.960938 123.253906 176.105469 108.679688 176.105469 C 98.464844 176.105469 89.351562 181.84375 84.890625 191.074219 C 84.589844 191.703125 83.957031 192.101562 83.257812 192.101562 C 82.5625 192.101562 81.929688 191.703125 81.628906 191.074219 C 77.167969 181.84375 68.054688 176.105469 57.839844 176.105469 Z M 57.839844 176.105469 " fill-opacity="1" fill-rule="nonzero"/><path fill="#ffffff" d="M 127.316406 331.625 L 127.316406 328.269531 C 127.316406 326.144531 128.160156 324.105469 129.664062 322.605469 L 160.789062 291.476562 C 163.292969 288.972656 164.699219 285.578125 164.699219 282.039062 L 164.699219 217.148438 C 164.699219 212.535156 160.960938 208.796875 156.347656 208.796875 C 152.011719 208.796875 148.394531 212.117188 148.027344 216.4375 L 144.605469 256.476562 L 143.773438 256.960938 C 140.726562 255.765625 137.125 256.398438 134.660156 258.863281 L 124.945312 268.582031 C 122.1875 271.335938 118.453125 272.882812 114.558594 272.882812 L 114.480469 272.882812 C 109.878906 272.882812 105.460938 274.710938 102.207031 277.964844 L 87.167969 293.003906 C 84.664062 295.507812 83.257812 298.902344 83.257812 302.445312 L 83.257812 331.625 Z M 127.316406 331.625 " fill-opacity="1" fill-rule="nonzero"/><path fill="#43105f" d="M 127.316406 333.4375 C 126.316406 333.4375 125.503906 332.628906 125.503906 331.625 L 125.503906 328.269531 C 125.503906 325.644531 126.527344 323.179688 128.382812 321.324219 L 159.507812 290.195312 C 161.6875 288.015625 162.886719 285.121094 162.886719 282.039062 L 162.886719 217.148438 C 162.886719 213.542969 159.953125 210.609375 156.347656 210.609375 C 152.925781 210.609375 150.125 213.183594 149.832031 216.59375 L 146.414062 256.628906 C 146.363281 257.21875 146.03125 257.746094 145.519531 258.042969 L 144.6875 258.527344 C 144.207031 258.804688 143.628906 258.851562 143.113281 258.648438 C 140.636719 257.679688 137.820312 258.265625 135.941406 260.144531 L 126.226562 269.863281 C 123.109375 272.980469 118.964844 274.695312 114.558594 274.695312 L 114.480469 274.695312 C 110.328125 274.695312 106.425781 276.3125 103.488281 279.246094 L 88.453125 294.285156 C 86.273438 296.464844 85.074219 299.363281 85.074219 302.445312 L 85.074219 331.625 C 85.074219 332.628906 84.261719 333.4375 83.257812 333.4375 C 82.257812 333.4375 81.445312 332.628906 81.445312 331.625 L 81.445312 302.445312 C 81.445312 298.394531 83.023438 294.585938 85.886719 291.722656 L 100.925781 276.683594 C 104.546875 273.0625 109.359375 271.070312 114.480469 271.070312 L 114.558594 271.070312 C 117.996094 271.070312 121.230469 269.730469 123.660156 267.296875 L 133.378906 257.582031 C 135.902344 255.058594 139.519531 254.042969 142.929688 254.8125 L 146.21875 216.285156 C 146.4375 213.742188 147.59375 211.390625 149.472656 209.664062 C 151.355469 207.933594 153.796875 206.984375 156.347656 206.984375 C 161.953125 206.984375 166.511719 211.542969 166.511719 217.148438 L 166.511719 282.039062 C 166.511719 286.089844 164.9375 289.894531 162.070312 292.761719 L 130.945312 323.886719 C 129.773438 325.058594 129.128906 326.613281 129.128906 328.269531 L 129.128906 331.625 C 129.128906 332.628906 128.320312 333.4375 127.316406 333.4375 Z M 127.316406 333.4375 " fill-opacity="1" fill-rule="nonzero"/><path fill="#ffffff" d="M 83.257812 331.625 L 83.257812 302.445312 C 83.257812 298.902344 81.851562 295.507812 79.347656 293.003906 L 64.3125 277.964844 C 61.054688 274.710938 56.640625 272.882812 52.039062 272.882812 L 51.960938 272.882812 C 48.066406 272.882812 44.328125 271.335938 41.574219 268.582031 L 31.859375 258.863281 C 29.476562 256.484375 26.039062 255.8125 23.058594 256.84375 L 21.910156 256.476562 L 18.492188 216.4375 C 18.125 212.117188 14.507812 208.796875 10.171875 208.796875 C 5.558594 208.796875 1.820312 212.535156 1.820312 217.148438 L 1.820312 282.039062 C 1.820312 285.578125 3.226562 288.972656 5.730469 291.476562 L 36.855469 322.605469 C 38.355469 324.105469 39.203125 326.144531 39.203125 328.269531 L 39.203125 331.625 Z M 83.257812 331.625 " fill-opacity="1" fill-rule="nonzero"/><path fill="#43105f" d="M 83.257812 333.4375 C 82.257812 333.4375 81.445312 332.628906 81.445312 331.625 L 81.445312 302.445312 C 81.445312 299.363281 80.246094 296.464844 78.066406 294.285156 L 63.027344 279.246094 C 60.09375 276.3125 56.191406 274.695312 52.039062 274.695312 L 51.960938 274.695312 C 47.550781 274.695312 43.410156 272.980469 40.292969 269.863281 L 30.578125 260.144531 C 28.75 258.316406 26.09375 257.710938 23.652344 258.558594 C 23.28125 258.6875 22.875 258.691406 22.5 258.570312 L 21.355469 258.199219 C 20.660156 257.976562 20.167969 257.359375 20.105469 256.628906 L 16.6875 216.59375 C 16.394531 213.183594 13.59375 210.609375 10.171875 210.609375 C 6.566406 210.609375 3.632812 213.542969 3.632812 217.148438 L 3.632812 282.039062 C 3.632812 285.121094 4.832031 288.015625 7.011719 290.195312 L 38.136719 321.324219 C 39.992188 323.179688 41.015625 325.644531 41.015625 328.269531 L 41.015625 331.625 C 41.015625 332.628906 40.203125 333.4375 39.199219 333.4375 C 38.199219 333.4375 37.386719 332.628906 37.386719 331.625 L 37.386719 328.269531 C 37.386719 326.613281 36.742188 325.058594 35.574219 323.886719 L 4.445312 292.761719 C 1.582031 289.894531 0.00390625 286.089844 0.00390625 282.039062 L 0.00390625 217.148438 C 0.00390625 211.542969 4.566406 206.984375 10.171875 206.984375 C 12.722656 206.984375 15.164062 207.933594 17.046875 209.664062 C 18.925781 211.390625 20.082031 213.742188 20.296875 216.285156 L 23.589844 254.8125 C 26.996094 254.054688 30.640625 255.082031 33.140625 257.582031 L 42.855469 267.296875 C 45.289062 269.730469 48.519531 271.070312 51.960938 271.070312 L 52.039062 271.070312 C 57.160156 271.070312 61.972656 273.0625 65.59375 276.683594 L 80.628906 291.722656 C 83.496094 294.585938 85.070312 298.394531 85.070312 302.445312 L 85.070312 331.625 C 85.074219 332.628906 84.261719 333.4375 83.257812 333.4375 Z M 83.257812 333.4375 " fill-opacity="1" fill-rule="nonzero"/><path fill="#43105f" d="M 123.3125 296.054688 C 122.847656 296.054688 122.382812 295.878906 122.03125 295.523438 C 121.320312 294.816406 121.320312 293.667969 122.03125 292.960938 L 145.394531 269.597656 C 146.65625 268.335938 147.351562 266.65625 147.351562 264.871094 C 147.351562 263.085938 146.65625 261.40625 145.394531 260.144531 C 145.046875 259.796875 144.664062 259.488281 144.253906 259.230469 C 143.410156 258.691406 143.164062 257.570312 143.699219 256.726562 C 144.238281 255.882812 145.359375 255.632812 146.203125 256.171875 C 146.835938 256.574219 147.425781 257.046875 147.957031 257.582031 C 149.90625 259.527344 150.976562 262.117188 150.976562 264.871094 C 150.976562 267.625 149.90625 270.214844 147.957031 272.160156 L 124.59375 295.523438 C 124.238281 295.878906 123.777344 296.054688 123.3125 296.054688 Z M 123.3125 296.054688 " fill-opacity="1" fill-rule="nonzero"/><path fill="#43105f" d="M 43.207031 296.054688 C 42.742188 296.054688 42.277344 295.878906 41.925781 295.523438 L 18.558594 272.160156 C 16.613281 270.214844 15.539062 267.625 15.539062 264.871094 C 15.539062 262.117188 16.613281 259.527344 18.558594 257.582031 C 19.320312 256.820312 20.191406 256.1875 21.140625 255.699219 C 22.03125 255.242188 23.125 255.589844 23.582031 256.480469 C 24.039062 257.371094 23.6875 258.464844 22.796875 258.921875 C 22.183594 259.238281 21.621094 259.652344 21.125 260.144531 C 19.863281 261.40625 19.167969 263.085938 19.167969 264.871094 C 19.167969 266.65625 19.863281 268.335938 21.125 269.597656 L 44.488281 292.960938 C 45.195312 293.667969 45.195312 294.816406 44.488281 295.527344 C 44.132812 295.878906 43.671875 296.054688 43.207031 296.054688 Z M 43.207031 296.054688 " fill-opacity="1" fill-rule="nonzero"/><path fill="#ffffff" d="M 233.421875 119.707031 C 229.800781 124.757812 223.199219 125.71875 218.679688 121.851562 C 223.199219 125.71875 223.929688 132.945312 220.308594 137.996094 C 216.6875 143.046875 210.085938 144.003906 205.566406 140.136719 L 200.910156 136.15625 C 203.402344 138.289062 204.746094 141.445312 204.839844 144.691406 C 204.914062 147.335938 204.164062 150.035156 202.539062 152.300781 C 198.917969 157.351562 192.316406 158.308594 187.796875 154.441406 L 179.351562 147.214844 C 181.84375 149.351562 183.1875 152.503906 183.28125 155.753906 C 183.355469 158.394531 182.863281 160.085938 181.25 162.289062 C 179.058594 165.273438 173.941406 169.046875 168.304688 164.828125 L 76.496094 89.546875 C 77.367188 89.132812 78.15625 88.484375 78.789062 87.605469 L 112.746094 40.253906 C 114.730469 37.484375 116.777344 35.492188 116.777344 35.492188 C 118.324219 35.226562 120.878906 36.746094 125.105469 36.703125 C 137.097656 36.585938 163.75 36.660156 173.191406 42.660156 C 176.363281 44.675781 225.335938 98.121094 225.335938 98.121094 L 231.792969 103.5625 C 236.316406 107.429688 237.042969 114.660156 233.421875 119.707031 Z M 233.421875 119.707031 " fill-opacity="1" fill-rule="nonzero"/><path fill="#43105f" d="M 173.460938 168.527344 C 171.308594 168.527344 169.214844 167.773438 167.21875 166.277344 C 167.195312 166.261719 167.175781 166.246094 167.152344 166.230469 L 75.347656 90.949219 C 74.867188 90.554688 74.625 89.945312 74.699219 89.328125 C 74.773438 88.710938 75.160156 88.175781 75.71875 87.910156 C 76.34375 87.613281 76.882812 87.152344 77.316406 86.546875 L 111.273438 39.195312 C 113.328125 36.328125 115.425781 34.277344 115.515625 34.191406 C 115.777344 33.9375 116.109375 33.769531 116.46875 33.707031 C 117.523438 33.523438 118.613281 33.800781 119.871094 34.125 C 121.238281 34.476562 122.933594 34.910156 125.085938 34.890625 C 151.101562 34.632812 167.15625 36.675781 174.164062 41.128906 C 174.761719 41.507812 176.34375 42.515625 201.78125 69.914062 C 213.753906 82.808594 225.515625 95.632812 226.59375 96.808594 L 232.960938 102.175781 C 235.515625 104.359375 237.109375 107.496094 237.464844 111.011719 C 237.816406 114.5 236.90625 117.964844 234.894531 120.765625 C 232.789062 123.699219 229.765625 125.542969 226.375 125.953125 C 225.441406 126.066406 224.511719 126.066406 223.601562 125.953125 C 223.980469 127.011719 224.234375 128.132812 224.351562 129.296875 C 224.703125 132.789062 223.789062 136.25 221.78125 139.050781 C 219.675781 141.988281 216.652344 143.828125 213.265625 144.238281 C 210.902344 144.527344 208.570312 144.078125 206.507812 142.96875 C 206.585938 143.519531 206.636719 144.078125 206.652344 144.640625 C 206.738281 147.761719 205.804688 150.859375 204.015625 153.355469 C 201.910156 156.292969 198.882812 158.132812 195.496094 158.542969 C 192.28125 158.933594 189.128906 157.964844 186.617188 155.816406 L 185 154.433594 C 185.050781 154.851562 185.078125 155.273438 185.09375 155.703125 C 185.179688 158.796875 184.535156 160.871094 182.710938 163.359375 C 181.960938 164.382812 179.171875 167.777344 174.855469 168.421875 C 174.386719 168.492188 173.921875 168.527344 173.460938 168.527344 Z M 169.421875 163.398438 C 171.03125 164.597656 172.679688 165.078125 174.320312 164.835938 C 176.648438 164.488281 178.671875 162.738281 179.785156 161.214844 C 181.140625 159.371094 181.53125 158.105469 181.46875 155.804688 C 181.386719 152.945312 180.183594 150.316406 178.171875 148.59375 C 177.410156 147.941406 177.324219 146.796875 177.972656 146.035156 C 178.625 145.277344 179.769531 145.1875 180.53125 145.839844 L 188.976562 153.0625 C 190.703125 154.542969 192.867188 155.210938 195.058594 154.945312 C 197.425781 154.65625 199.5625 153.34375 201.066406 151.246094 C 202.398438 149.386719 203.09375 147.078125 203.027344 144.746094 C 202.945312 141.886719 201.746094 139.261719 199.738281 137.539062 L 199.734375 137.535156 C 199.730469 137.535156 199.730469 137.53125 199.730469 137.53125 C 198.972656 136.882812 198.882812 135.738281 199.535156 134.976562 C 200.183594 134.214844 201.328125 134.128906 202.089844 134.777344 C 202.089844 134.78125 202.09375 134.78125 202.09375 134.78125 L 206.742188 138.757812 C 208.472656 140.238281 210.632812 140.90625 212.828125 140.640625 C 215.195312 140.351562 217.328125 139.039062 218.835938 136.941406 C 221.914062 132.644531 221.316406 126.492188 217.5 123.226562 C 217.082031 122.871094 216.867188 122.363281 216.867188 121.851562 C 216.867188 121.433594 217.007812 121.015625 217.300781 120.671875 C 217.953125 119.910156 219.097656 119.824219 219.859375 120.472656 C 221.585938 121.953125 223.746094 122.621094 225.941406 122.355469 C 228.308594 122.066406 230.441406 120.753906 231.949219 118.652344 C 235.03125 114.355469 234.433594 108.203125 230.613281 104.941406 L 224.167969 99.507812 C 224.105469 99.457031 224.050781 99.402344 224 99.34375 C 204.570312 78.140625 174.757812 45.96875 172.210938 44.1875 C 168.382812 41.753906 160.894531 40.074219 149.957031 39.195312 C 140.828125 38.457031 131.410156 38.453125 125.121094 38.515625 C 122.5 38.539062 120.457031 38.019531 118.972656 37.636719 C 118.496094 37.515625 117.941406 37.375 117.539062 37.308594 C 116.839844 38.046875 115.507812 39.511719 114.21875 41.308594 L 80.261719 88.664062 C 80.015625 89.007812 79.742188 89.328125 79.453125 89.625 Z M 233.421875 119.707031 L 233.425781 119.707031 Z M 233.421875 119.707031 " fill-opacity="1" fill-rule="nonzero"/><path fill="#43105f" d="M 218.679688 123.664062 C 218.277344 123.664062 217.871094 123.53125 217.535156 123.257812 L 199.492188 108.574219 C 198.71875 107.941406 198.601562 106.800781 199.230469 106.023438 C 199.863281 105.246094 201.007812 105.128906 201.78125 105.761719 L 219.824219 120.445312 C 220.601562 121.078125 220.71875 122.21875 220.085938 122.996094 C 219.726562 123.4375 219.203125 123.664062 218.679688 123.664062 Z M 218.679688 123.664062 " fill-opacity="1" fill-rule="nonzero"/><path fill="#43105f" d="M 200.910156 137.96875 C 200.492188 137.96875 200.074219 137.824219 199.734375 137.535156 L 185.882812 125.714844 C 185.121094 125.066406 185.027344 123.921875 185.679688 123.160156 C 186.328125 122.398438 187.472656 122.308594 188.234375 122.957031 L 202.085938 134.777344 C 202.847656 135.425781 202.941406 136.570312 202.289062 137.332031 C 201.929688 137.753906 201.421875 137.96875 200.910156 137.96875 Z M 200.910156 137.96875 " fill-opacity="1" fill-rule="nonzero"/><path fill="#43105f" d="M 179.351562 149.027344 C 178.894531 149.027344 178.4375 148.855469 178.082031 148.511719 L 174.976562 145.472656 C 174.257812 144.773438 174.246094 143.625 174.945312 142.90625 C 175.644531 142.191406 176.792969 142.179688 177.511719 142.878906 L 180.617188 145.917969 C 181.335938 146.621094 181.347656 147.769531 180.648438 148.484375 C 180.292969 148.847656 179.820312 149.027344 179.351562 149.027344 Z M 179.351562 149.027344 " fill-opacity="1" fill-rule="nonzero"/><path fill="#fdc175" d="M 99.425781 16.855469 L 124.472656 33.261719 C 127.398438 35.484375 128.042969 39.804688 125.910156 42.90625 L 89.425781 95.992188 C 87.292969 99.097656 83.1875 99.808594 80.261719 97.585938 L 56.25 79.347656 Z M 99.425781 16.855469 " fill-opacity="1" fill-rule="nonzero"/><path fill="#43105f" d="M 84.054688 100.695312 C 82.304688 100.695312 80.601562 100.121094 79.164062 99.027344 L 55.15625 80.792969 C 54.382812 80.203125 54.207031 79.113281 54.761719 78.316406 L 97.933594 15.828125 C 98.492188 15.015625 99.59375 14.800781 100.417969 15.339844 L 125.464844 31.746094 C 125.5 31.769531 125.535156 31.792969 125.566406 31.816406 C 129.25 34.617188 130.074219 40.050781 127.40625 43.933594 L 90.917969 97.019531 C 89.585938 98.960938 87.609375 100.226562 85.351562 100.589844 C 84.917969 100.660156 84.484375 100.695312 84.054688 100.695312 Z M 58.726562 78.953125 L 81.359375 96.140625 C 82.351562 96.898438 83.566406 97.207031 84.777344 97.011719 C 86.046875 96.804688 87.164062 96.082031 87.929688 94.96875 L 124.417969 41.882812 C 125.996094 39.585938 125.546875 36.394531 123.421875 34.742188 L 99.910156 19.34375 Z M 58.726562 78.953125 " fill-opacity="1" fill-rule="nonzero"/><path fill="#ffffff" d="M 209.101562 39.527344 C 207.292969 39.089844 199.4375 37.773438 194.40625 37.324219 C 181.191406 36.132812 171.597656 38.320312 160.789062 43.085938 L 128.667969 58.429688 C 122.714844 61.953125 120.746094 69.628906 124.269531 75.578125 L 124.277344 75.59375 C 127.796875 81.542969 135.476562 83.511719 141.429688 79.988281 L 179.628906 61.050781 L 238.351562 108.324219 L 251.046875 101.925781 Z M 209.101562 39.527344 " fill-opacity="1" fill-rule="nonzero"/><path fill="#43105f" d="M 238.351562 110.136719 C 237.945312 110.136719 237.542969 110 237.214844 109.738281 L 179.394531 63.191406 L 142.296875 81.585938 C 140.027344 82.914062 137.535156 83.542969 135.078125 83.542969 C 130.171875 83.542969 125.390625 81.03125 122.714844 76.515625 C 122.707031 76.5 122.695312 76.484375 122.6875 76.464844 C 120.753906 73.179688 120.210938 69.339844 121.160156 65.644531 C 122.109375 61.933594 124.449219 58.820312 127.742188 56.867188 C 127.789062 56.839844 127.835938 56.816406 127.886719 56.792969 L 160.007812 41.453125 C 160.023438 41.445312 160.042969 41.4375 160.058594 41.429688 C 172.125 36.109375 182.125 34.394531 194.570312 35.519531 C 199.5 35.960938 207.519531 37.28125 209.53125 37.765625 C 210.503906 38.003906 211.101562 38.980469 210.867188 39.957031 C 210.628906 40.929688 209.648438 41.527344 208.675781 41.292969 C 207.027344 40.890625 199.203125 39.574219 194.246094 39.128906 C 182.316406 38.054688 173.144531 39.625 161.546875 44.734375 L 129.523438 60.027344 C 127.097656 61.488281 125.375 63.800781 124.671875 66.542969 C 123.960938 69.3125 124.375 72.195312 125.832031 74.65625 C 125.839844 74.671875 125.847656 74.6875 125.855469 74.703125 C 128.875 79.757812 135.4375 81.429688 140.507812 78.429688 C 140.546875 78.40625 140.585938 78.382812 140.625 78.363281 L 178.824219 59.429688 C 179.457031 59.113281 180.214844 59.195312 180.765625 59.640625 L 238.578125 106.179688 L 250.230469 100.304688 C 251.125 99.855469 252.214844 100.214844 252.667969 101.109375 C 253.117188 102.003906 252.757812 103.09375 251.863281 103.542969 L 239.167969 109.945312 C 238.910156 110.074219 238.628906 110.136719 238.351562 110.136719 Z M 238.351562 110.136719 " fill-opacity="1" fill-rule="nonzero"/><path fill="#ffffff" d="M 151.683594 138.382812 C 155.808594 134.765625 161.984375 135.304688 165.480469 139.582031 C 168.972656 143.859375 168.460938 150.253906 164.335938 153.867188 L 154.710938 161.519531 C 150.730469 163.714844 145.679688 162.816406 142.644531 159.105469 C 141.125 157.242188 140.359375 154.980469 140.324219 152.71875 C 140.28125 149.789062 141.457031 146.859375 143.792969 144.820312 Z M 151.683594 138.382812 " fill-opacity="1" fill-rule="nonzero"/><path fill="#43105f" d="M 150.160156 164.503906 C 146.808594 164.503906 143.503906 163.019531 141.242188 160.25 C 139.523438 158.148438 138.554688 155.484375 138.511719 152.746094 C 138.457031 149.160156 139.945312 145.773438 142.597656 143.453125 C 142.613281 143.441406 142.628906 143.425781 142.644531 143.414062 L 150.515625 136.996094 C 152.867188 134.945312 155.855469 133.957031 158.933594 134.214844 C 162.046875 134.472656 164.871094 135.972656 166.882812 138.4375 C 170.980469 143.453125 170.375 150.988281 165.53125 155.230469 C 165.507812 155.25 165.484375 155.269531 165.464844 155.289062 L 155.839844 162.9375 C 155.761719 163 155.675781 163.058594 155.585938 163.105469 C 153.878906 164.050781 152.011719 164.503906 150.160156 164.503906 Z M 144.960938 146.203125 C 143.128906 147.820312 142.101562 150.179688 142.136719 152.691406 C 142.167969 154.613281 142.847656 156.484375 144.050781 157.957031 C 146.425781 160.863281 150.464844 161.710938 153.710938 160 L 163.171875 152.476562 C 166.535156 149.5 166.945312 144.238281 164.078125 140.730469 C 162.691406 139.035156 160.757812 138.003906 158.632812 137.828125 C 156.535156 137.652344 154.492188 138.332031 152.878906 139.746094 C 152.863281 139.761719 152.847656 139.773438 152.832031 139.789062 Z M 151.683594 138.382812 L 151.6875 138.382812 Z M 151.683594 138.382812 " fill-opacity="1" fill-rule="nonzero"/><path fill="#ffffff" d="M 118.316406 114.617188 C 120.648438 112.578125 121.828125 109.648438 121.78125 106.71875 C 121.746094 104.457031 120.984375 102.195312 119.460938 100.335938 C 116.429688 96.617188 111.375 95.726562 107.394531 97.921875 L 93.882812 108.828125 C 89.757812 112.441406 89.242188 118.835938 92.738281 123.113281 C 96.230469 127.390625 102.40625 127.925781 106.53125 124.316406 Z M 118.316406 114.617188 " fill-opacity="1" fill-rule="nonzero"/><path fill="#43105f" d="M 100.238281 128.523438 C 99.921875 128.523438 99.601562 128.507812 99.28125 128.480469 C 96.167969 128.222656 93.34375 126.722656 91.332031 124.261719 C 87.234375 119.242188 87.84375 111.707031 92.6875 107.464844 C 92.707031 107.445312 92.722656 107.429688 92.742188 107.414062 L 106.253906 96.511719 C 106.335938 96.445312 106.425781 96.386719 106.519531 96.335938 C 111.320312 93.683594 117.355469 94.886719 120.867188 99.1875 C 122.582031 101.289062 123.554688 103.953125 123.59375 106.691406 C 123.652344 110.277344 122.160156 113.664062 119.511719 115.984375 C 119.496094 115.996094 119.484375 116.007812 119.46875 116.019531 L 107.707031 125.699219 C 105.59375 127.539062 102.972656 128.523438 100.238281 128.523438 Z M 95.050781 110.214844 C 91.683594 113.191406 91.273438 118.453125 94.140625 121.96875 C 95.523438 123.660156 97.457031 124.691406 99.582031 124.867188 C 101.679688 125.042969 103.726562 124.363281 105.339844 122.953125 C 105.351562 122.941406 105.367188 122.925781 105.382812 122.914062 L 117.144531 113.238281 C 118.976562 111.621094 120.007812 109.257812 119.96875 106.746094 C 119.941406 104.824219 119.261719 102.953125 118.058594 101.480469 C 115.6875 98.574219 111.648438 97.730469 108.402344 99.4375 Z M 118.316406 114.617188 L 118.320312 114.617188 Z M 118.316406 114.617188 " fill-opacity="1" fill-rule="nonzero"/><path fill="#ffffff" d="M 138.675781 123.355469 L 142.921875 119.636719 C 147.050781 116.023438 153.226562 116.5625 156.71875 120.839844 C 160.214844 125.117188 159.699219 131.511719 155.574219 135.125 L 143.792969 144.820312 L 136.082031 151.566406 C 131.957031 155.179688 125.78125 154.644531 122.285156 150.367188 C 120.761719 148.503906 120.003906 146.242188 119.96875 143.984375 C 119.921875 141.050781 121.101562 138.121094 123.429688 136.082031 Z M 138.675781 123.355469 " fill-opacity="1" fill-rule="nonzero"/><path fill="#43105f" d="M 129.785156 155.773438 C 129.46875 155.773438 129.148438 155.761719 128.828125 155.734375 C 125.714844 155.476562 122.894531 153.976562 120.882812 151.511719 C 119.164062 149.414062 118.199219 146.75 118.15625 144.011719 C 118.101562 140.421875 119.585938 137.035156 122.234375 134.71875 C 122.246094 134.707031 122.257812 134.699219 122.269531 134.691406 L 137.496094 121.976562 L 141.726562 118.273438 C 144.085938 116.207031 147.085938 115.210938 150.175781 115.46875 C 153.289062 115.730469 156.109375 117.230469 158.125 119.691406 C 162.222656 124.707031 161.613281 132.242188 156.769531 136.488281 C 156.753906 136.5 156.742188 136.511719 156.726562 136.527344 L 144.964844 146.203125 L 137.273438 152.933594 C 135.160156 154.785156 132.53125 155.773438 129.785156 155.773438 Z M 124.609375 137.460938 C 122.773438 139.074219 121.742188 141.441406 121.78125 143.957031 C 121.808594 145.878906 122.488281 147.75 123.6875 149.21875 C 125.074219 150.914062 127.007812 151.945312 129.128906 152.121094 C 131.230469 152.296875 133.273438 151.617188 134.886719 150.203125 L 142.597656 143.453125 C 142.609375 143.441406 142.625 143.429688 142.640625 143.417969 L 154.402344 133.742188 C 157.773438 130.769531 158.1875 125.5 155.316406 121.984375 C 153.933594 120.292969 152 119.261719 149.875 119.082031 C 147.773438 118.90625 145.730469 119.589844 144.117188 121 L 139.871094 124.71875 C 139.859375 124.730469 139.847656 124.738281 139.835938 124.746094 Z M 138.675781 123.355469 Z M 138.675781 123.355469 " fill-opacity="1" fill-rule="nonzero"/><path fill="#ffffff" d="M 118.316406 114.617188 L 126.023438 107.871094 C 130.152344 104.257812 136.328125 104.796875 139.820312 109.070312 C 141.339844 110.933594 142.105469 113.195312 142.140625 115.457031 C 142.183594 118.386719 141.007812 121.316406 138.675781 123.355469 L 123.429688 136.082031 L 119.183594 139.800781 C 115.058594 143.414062 108.882812 142.875 105.386719 138.601562 C 101.894531 134.320312 102.40625 127.925781 106.53125 124.316406 Z M 118.316406 114.617188 " fill-opacity="1" fill-rule="nonzero"/><path fill="#43105f" d="M 112.890625 144.007812 C 112.574219 144.007812 112.253906 143.996094 111.933594 143.96875 C 108.820312 143.707031 105.996094 142.210938 103.984375 139.746094 C 99.886719 134.726562 100.492188 127.195312 105.339844 122.953125 C 105.351562 122.941406 105.367188 122.925781 105.378906 122.914062 L 117.144531 113.238281 L 124.828125 106.507812 C 127.191406 104.441406 130.191406 103.445312 133.277344 103.703125 C 136.390625 103.964844 139.214844 105.464844 141.222656 107.925781 C 142.941406 110.027344 143.910156 112.691406 143.953125 115.429688 C 144.007812 119.015625 142.519531 122.402344 139.867188 124.722656 C 139.855469 124.730469 139.847656 124.738281 139.835938 124.746094 L 124.609375 137.460938 L 120.378906 141.164062 C 118.265625 143.015625 115.636719 144.007812 112.890625 144.007812 Z M 107.707031 125.695312 C 104.335938 128.667969 103.921875 133.9375 106.792969 137.453125 C 108.175781 139.148438 110.109375 140.175781 112.234375 140.355469 C 114.332031 140.527344 116.378906 139.847656 117.988281 138.4375 L 122.234375 134.71875 C 122.246094 134.707031 122.257812 134.699219 122.269531 134.691406 L 137.496094 121.976562 C 139.335938 120.363281 140.367188 117.996094 140.328125 115.484375 C 140.296875 113.5625 139.617188 111.691406 138.417969 110.21875 C 137.03125 108.523438 135.101562 107.496094 132.976562 107.316406 C 130.878906 107.140625 128.832031 107.824219 127.21875 109.234375 L 119.511719 115.984375 C 119.496094 115.996094 119.484375 116.007812 119.46875 116.019531 Z M 118.316406 114.617188 L 118.320312 114.617188 Z M 118.316406 114.617188 " fill-opacity="1" fill-rule="nonzero"/><path fill="#ffffff" d="M 118.316406 114.617188 L 106.53125 124.316406 Z M 118.316406 114.617188 " fill-opacity="1" fill-rule="nonzero"/><path fill="#43105f" d="M 106.535156 126.128906 C 106.011719 126.128906 105.492188 125.902344 105.132812 125.46875 C 104.496094 124.695312 104.609375 123.550781 105.382812 122.914062 L 117.164062 113.21875 C 117.9375 112.582031 119.082031 112.691406 119.71875 113.464844 C 120.351562 114.238281 120.242188 115.382812 119.46875 116.019531 L 107.683594 125.714844 C 107.347656 125.992188 106.9375 126.128906 106.535156 126.128906 Z M 106.535156 126.128906 " fill-opacity="1" fill-rule="nonzero"/><path fill="#aa1da4" d="M 280.515625 88.960938 L 253.609375 104.558594 C 250.328125 106.460938 246.0625 105.234375 244.082031 101.816406 L 210.183594 43.347656 C 208.203125 39.929688 209.257812 35.617188 212.539062 33.714844 L 239.585938 16.816406 Z M 280.515625 88.960938 " fill-opacity="1" fill-rule="nonzero"/><path fill="#43105f" d="M 250.28125 107.265625 C 247.21875 107.265625 244.195312 105.628906 242.511719 102.726562 L 208.617188 44.257812 C 206.140625 39.992188 207.480469 34.574219 211.601562 32.164062 L 238.625 15.28125 C 239.042969 15.019531 239.550781 14.9375 240.03125 15.0625 C 240.511719 15.183594 240.917969 15.492188 241.164062 15.921875 L 282.09375 88.066406 C 282.582031 88.933594 282.285156 90.03125 281.425781 90.53125 L 254.519531 106.128906 C 253.1875 106.898438 251.730469 107.265625 250.28125 107.265625 Z M 238.941406 19.359375 L 213.5 35.253906 C 213.480469 35.265625 213.464844 35.273438 213.449219 35.285156 C 211.035156 36.683594 210.277344 39.890625 211.753906 42.441406 L 245.648438 100.90625 C 247.125 103.453125 250.289062 104.390625 252.699219 102.992188 L 278.054688 88.292969 Z M 238.941406 19.359375 " fill-opacity="1" fill-rule="nonzero"/><path fill="#aa1da4" d="M 310.726562 327.628906 L 310.746094 254.964844 L 357.171875 255.046875 L 357.015625 327.628906 Z M 310.726562 327.628906 " fill-opacity="1" fill-rule="nonzero"/><path fill="#43105f" d="M 357.015625 329.441406 C 357.015625 329.441406 357.011719 329.441406 357.011719 329.441406 C 356.011719 329.441406 355.199219 328.628906 355.203125 327.625 L 355.355469 256.859375 L 312.558594 256.78125 L 312.539062 327.632812 C 312.539062 328.632812 311.726562 329.441406 310.726562 329.441406 C 309.726562 329.441406 308.914062 328.632812 308.914062 327.628906 L 308.933594 254.964844 C 308.933594 254.484375 309.125 254.023438 309.464844 253.683594 C 309.804688 253.34375 310.265625 253.152344 310.746094 253.152344 C 310.75 253.152344 310.75 253.152344 310.75 253.152344 L 357.175781 253.234375 C 357.65625 253.238281 358.117188 253.429688 358.457031 253.769531 C 358.792969 254.109375 358.984375 254.570312 358.984375 255.054688 L 358.828125 327.632812 C 358.828125 328.632812 358.015625 329.441406 357.015625 329.441406 Z M 357.015625 329.441406 " fill-opacity="1" fill-rule="nonzero"/><path fill="#ffffff" d="M 246.382812 192.15625 C 246.382812 192.71875 246.351562 193.277344 246.296875 193.835938 C 246.242188 194.394531 246.160156 194.949219 246.050781 195.5 C 245.941406 196.050781 245.804688 196.59375 245.644531 197.132812 C 245.480469 197.667969 245.289062 198.195312 245.074219 198.714844 C 244.859375 199.234375 244.621094 199.742188 244.355469 200.238281 C 244.09375 200.730469 243.804688 201.210938 243.492188 201.679688 C 243.179688 202.144531 242.847656 202.597656 242.488281 203.03125 C 242.132812 203.464844 241.757812 203.878906 241.359375 204.277344 C 240.964844 204.675781 240.546875 205.050781 240.113281 205.40625 C 239.679688 205.761719 239.230469 206.097656 238.761719 206.410156 C 238.296875 206.722656 237.816406 207.007812 237.320312 207.273438 C 236.824219 207.539062 236.316406 207.777344 235.796875 207.992188 C 235.28125 208.207031 234.753906 208.398438 234.214844 208.558594 C 233.675781 208.722656 233.132812 208.859375 232.582031 208.96875 C 232.03125 209.078125 231.476562 209.160156 230.917969 209.214844 C 230.359375 209.269531 229.800781 209.296875 229.238281 209.296875 C 228.675781 209.296875 228.117188 209.269531 227.558594 209.214844 C 227 209.160156 226.445312 209.078125 225.894531 208.96875 C 225.34375 208.859375 224.800781 208.722656 224.261719 208.558594 C 223.726562 208.398438 223.195312 208.207031 222.679688 207.992188 C 222.160156 207.777344 221.652344 207.539062 221.15625 207.273438 C 220.664062 207.007812 220.179688 206.722656 219.714844 206.410156 C 219.246094 206.097656 218.796875 205.761719 218.363281 205.40625 C 217.929688 205.050781 217.515625 204.675781 217.117188 204.277344 C 216.71875 203.878906 216.34375 203.464844 215.988281 203.03125 C 215.632812 202.597656 215.296875 202.144531 214.984375 201.679688 C 214.671875 201.210938 214.386719 200.730469 214.121094 200.238281 C 213.855469 199.742188 213.617188 199.234375 213.402344 198.714844 C 213.1875 198.195312 212.996094 197.667969 212.835938 197.132812 C 212.671875 196.59375 212.535156 196.050781 212.425781 195.5 C 212.316406 194.949219 212.234375 194.394531 212.179688 193.835938 C 212.125 193.277344 212.097656 192.71875 212.097656 192.15625 C 212.097656 191.59375 212.125 191.035156 212.179688 190.476562 C 212.234375 189.917969 212.316406 189.363281 212.425781 188.8125 C 212.535156 188.261719 212.671875 187.71875 212.835938 187.179688 C 212.996094 186.640625 213.1875 186.113281 213.402344 185.597656 C 213.617188 185.078125 213.855469 184.570312 214.121094 184.074219 C 214.386719 183.578125 214.671875 183.097656 214.984375 182.632812 C 215.296875 182.164062 215.632812 181.714844 215.988281 181.28125 C 216.34375 180.847656 216.71875 180.429688 217.117188 180.035156 C 217.515625 179.636719 217.929688 179.261719 218.363281 178.90625 C 218.796875 178.546875 219.246094 178.214844 219.714844 177.902344 C 220.179688 177.589844 220.664062 177.300781 221.15625 177.039062 C 221.652344 176.773438 222.160156 176.535156 222.679688 176.320312 C 223.195312 176.105469 223.726562 175.914062 224.261719 175.75 C 224.800781 175.589844 225.34375 175.453125 225.894531 175.34375 C 226.445312 175.234375 227 175.152344 227.558594 175.097656 C 228.117188 175.042969 228.675781 175.011719 229.238281 175.011719 C 229.800781 175.011719 230.359375 175.042969 230.917969 175.097656 C 231.476562 175.152344 232.03125 175.234375 232.582031 175.34375 C 233.132812 175.453125 233.675781 175.589844 234.214844 175.75 C 234.753906 175.914062 235.28125 176.105469 235.796875 176.320312 C 236.316406 176.535156 236.824219 176.773438 237.320312 177.039062 C 237.816406 177.300781 238.296875 177.589844 238.761719 177.902344 C 239.230469 178.214844 239.679688 178.546875 240.113281 178.90625 C 240.546875 179.261719 240.964844 179.636719 241.359375 180.035156 C 241.757812 180.429688 242.132812 180.847656 242.488281 181.28125 C 242.847656 181.714844 243.179688 182.164062 243.492188 182.632812 C 243.804688 183.097656 244.09375 183.578125 244.355469 184.074219 C 244.621094 184.570312 244.859375 185.078125 245.074219 185.597656 C 245.289062 186.113281 245.480469 186.640625 245.644531 187.179688 C 245.804688 187.71875 245.941406 188.261719 246.050781 188.8125 C 246.160156 189.363281 246.242188 189.917969 246.296875 190.476562 C 246.351562 191.035156 246.382812 191.59375 246.382812 192.15625 Z M 246.382812 192.15625 " fill-opacity="1" fill-rule="nonzero"/><path fill="#43105f" d="M 229.238281 211.109375 C 218.785156 211.109375 210.285156 202.609375 210.285156 192.15625 C 210.285156 181.703125 218.785156 173.199219 229.238281 173.199219 C 239.691406 173.199219 248.195312 181.703125 248.195312 192.15625 C 248.195312 202.609375 239.691406 211.109375 229.238281 211.109375 Z M 229.238281 176.828125 C 220.785156 176.828125 213.910156 183.703125 213.910156 192.15625 C 213.910156 200.609375 220.785156 207.484375 229.238281 207.484375 C 237.691406 207.484375 244.566406 200.609375 244.566406 192.15625 C 244.566406 183.703125 237.691406 176.828125 229.238281 176.828125 Z M 229.238281 176.828125 " fill-opacity="1" fill-rule="nonzero"/><path fill="#ffffff" d="M 249.488281 238.347656 C 255.492188 240.535156 262.910156 242.046875 271.679688 241.707031 C 276.71875 241.511719 280.601562 246.105469 279.574219 251.039062 C 278.902344 254.273438 276.253906 256.777344 272.976562 257.167969 C 270.972656 257.410156 269.015625 257.566406 267.113281 257.65625 L 244.269531 259.074219 Z M 249.488281 238.347656 " fill-opacity="1" fill-rule="nonzero"/><path fill="#43105f" d="M 244.265625 260.886719 C 243.316406 260.886719 242.519531 260.148438 242.460938 259.1875 C 242.398438 258.1875 243.15625 257.324219 244.15625 257.265625 L 267 255.84375 C 267.007812 255.84375 267.019531 255.84375 267.027344 255.84375 C 268.925781 255.757812 270.855469 255.597656 272.757812 255.371094 C 275.25 255.070312 277.277344 253.183594 277.800781 250.671875 C 278.175781 248.867188 277.707031 247.027344 276.515625 245.617188 C 275.324219 244.210938 273.589844 243.449219 271.75 243.519531 C 263.746094 243.832031 256.042969 242.664062 248.867188 240.050781 C 247.925781 239.710938 247.441406 238.667969 247.78125 237.726562 C 248.125 236.785156 249.164062 236.300781 250.105469 236.644531 C 256.839844 239.09375 264.074219 240.1875 271.609375 239.894531 C 274.570312 239.78125 277.367188 241.011719 279.285156 243.277344 C 281.199219 245.542969 281.953125 248.503906 281.347656 251.410156 C 280.507812 255.445312 277.230469 258.484375 273.191406 258.96875 C 271.203125 259.207031 269.191406 259.375 267.207031 259.464844 L 244.382812 260.882812 C 244.34375 260.886719 244.304688 260.886719 244.265625 260.886719 Z M 244.265625 260.886719 " fill-opacity="1" fill-rule="nonzero"/><path fill="#fdc175" d="M 249.046875 327.628906 L 249.046875 235.347656 C 249.046875 226.351562 241.753906 219.054688 232.757812 219.054688 L 225.003906 219.054688 C 216.007812 219.054688 208.714844 226.347656 208.714844 235.347656 L 208.714844 327.628906 Z M 249.046875 327.628906 " fill-opacity="1" fill-rule="nonzero"/><path fill="#43105f" d="M 249.046875 329.441406 C 248.046875 329.441406 247.234375 328.632812 247.234375 327.628906 L 247.234375 235.347656 C 247.234375 227.363281 240.742188 220.871094 232.757812 220.871094 L 225.003906 220.871094 C 217.019531 220.871094 210.527344 227.363281 210.527344 235.347656 L 210.527344 327.628906 C 210.527344 328.632812 209.714844 329.441406 208.714844 329.441406 C 207.710938 329.441406 206.902344 328.632812 206.902344 327.628906 L 206.902344 235.347656 C 206.902344 225.363281 215.023438 217.242188 225.003906 217.242188 L 232.757812 217.242188 C 242.742188 217.242188 250.863281 225.363281 250.863281 235.347656 L 250.863281 327.628906 C 250.863281 328.632812 250.050781 329.441406 249.046875 329.441406 Z M 249.046875 329.441406 " fill-opacity="1" fill-rule="nonzero"/><path fill="#43105f" d="M 234.929688 329.441406 C 233.929688 329.441406 233.117188 328.632812 233.117188 327.628906 L 233.117188 307.792969 C 233.117188 306.792969 233.929688 305.980469 234.929688 305.980469 C 235.933594 305.980469 236.746094 306.792969 236.746094 307.792969 L 236.746094 327.628906 C 236.746094 328.632812 235.933594 329.441406 234.929688 329.441406 Z M 234.929688 329.441406 " fill-opacity="1" fill-rule="nonzero"/><path fill="#43105f" d="M 249.046875 286.105469 L 208.800781 286.105469 C 207.800781 286.105469 206.988281 285.296875 206.988281 284.292969 C 206.988281 283.292969 207.800781 282.480469 208.800781 282.480469 L 249.046875 282.480469 C 250.050781 282.480469 250.863281 283.292969 250.863281 284.292969 C 250.863281 285.296875 250.050781 286.105469 249.046875 286.105469 Z M 249.046875 286.105469 " fill-opacity="1" fill-rule="nonzero"/><path fill="#ffffff" d="M 223.585938 250.832031 C 223.585938 250.832031 238.339844 270.242188 268.226562 274.765625 C 271.492188 275.261719 274.707031 273.550781 276.21875 270.613281 C 278.523438 266.132812 276.003906 260.667969 271.097656 259.515625 C 245.148438 253.425781 235.78125 234.15625 235.78125 234.15625 Z M 223.585938 250.832031 " fill-opacity="1" fill-rule="nonzero"/><path fill="#43105f" d="M 269.359375 276.664062 C 268.894531 276.664062 268.425781 276.628906 267.957031 276.558594 C 252.152344 274.167969 240.566406 267.632812 233.628906 262.570312 C 226.078125 257.058594 222.300781 252.136719 222.140625 251.929688 C 221.535156 251.132812 221.691406 249.996094 222.488281 249.390625 C 223.285156 248.785156 224.421875 248.941406 225.027344 249.734375 C 225.0625 249.78125 228.71875 254.519531 235.882812 259.726562 C 242.476562 264.515625 253.488281 270.703125 268.496094 272.972656 C 270.976562 273.347656 273.433594 272.066406 274.605469 269.785156 C 275.449219 268.148438 275.488281 266.246094 274.714844 264.574219 C 273.941406 262.902344 272.472656 261.703125 270.683594 261.28125 C 256.863281 258.039062 247.691406 251.089844 242.425781 245.835938 C 236.691406 240.105469 234.25 235.15625 234.148438 234.949219 C 233.710938 234.046875 234.085938 232.960938 234.988281 232.523438 C 235.886719 232.085938 236.972656 232.460938 237.410156 233.363281 C 237.433594 233.40625 239.75 238.066406 245.101562 243.378906 C 250.019531 248.261719 258.59375 254.71875 271.511719 257.75 C 274.394531 258.429688 276.761719 260.359375 278.007812 263.054688 C 279.25 265.746094 279.1875 268.804688 277.832031 271.441406 C 276.167969 274.683594 272.875 276.664062 269.359375 276.664062 Z M 269.359375 276.664062 " fill-opacity="1" fill-rule="nonzero"/><path fill="#ffffff" d="M 310.675781 255.007812 L 310.675781 294.273438 C 310.675781 298.71875 307.085938 302.324219 302.640625 302.34375 C 298.175781 302.359375 294.542969 298.742188 294.542969 294.273438 L 294.542969 253.132812 C 294.542969 239.6875 373.195312 239.6875 373.195312 253.132812 L 373.195312 295.253906 C 373.195312 299.742188 369.53125 303.367188 365.042969 303.320312 C 360.621094 303.273438 357.0625 299.675781 357.0625 295.253906 L 357.0625 257.023438 Z M 310.675781 255.007812 " fill-opacity="1" fill-rule="nonzero"/><path fill="#43105f" d="M 365.132812 305.132812 C 365.09375 305.132812 365.058594 305.132812 365.023438 305.132812 C 359.632812 305.074219 355.25 300.644531 355.25 295.253906 L 355.25 257.023438 C 355.25 256.023438 356.0625 255.210938 357.0625 255.210938 C 358.0625 255.210938 358.875 256.023438 358.875 257.023438 L 358.875 295.253906 C 358.875 298.664062 361.652344 301.46875 365.0625 301.507812 C 366.746094 301.523438 368.332031 300.882812 369.527344 299.699219 C 370.722656 298.515625 371.382812 296.9375 371.382812 295.253906 L 371.382812 253.132812 C 371.382812 251.53125 368.527344 249.167969 360.503906 247.339844 C 353.5 245.742188 344.039062 244.863281 333.871094 244.863281 C 323.699219 244.863281 314.238281 245.742188 307.234375 247.339844 C 299.214844 249.167969 296.355469 251.53125 296.355469 253.132812 L 296.355469 294.273438 C 296.355469 295.949219 297.011719 297.523438 298.195312 298.707031 C 299.378906 299.882812 300.945312 300.527344 302.609375 300.527344 C 302.617188 300.527344 302.625 300.527344 302.636719 300.527344 C 306.070312 300.515625 308.863281 297.710938 308.863281 294.273438 L 308.863281 255.007812 C 308.863281 254.003906 309.675781 253.195312 310.675781 253.195312 C 311.679688 253.195312 312.492188 254.003906 312.492188 255.007812 L 312.492188 294.273438 C 312.492188 299.703125 308.074219 304.132812 302.648438 304.15625 C 302.636719 304.15625 302.621094 304.15625 302.609375 304.15625 C 299.976562 304.15625 297.503906 303.132812 295.636719 301.273438 C 293.761719 299.40625 292.730469 296.921875 292.730469 294.273438 L 292.730469 253.132812 C 292.730469 249.015625 297.339844 245.875 306.429688 243.800781 C 313.691406 242.148438 323.4375 241.238281 333.871094 241.238281 C 344.304688 241.238281 354.046875 242.148438 361.308594 243.800781 C 370.398438 245.875 375.007812 249.011719 375.007812 253.132812 L 375.007812 295.253906 C 375.007812 297.914062 373.96875 300.40625 372.078125 302.277344 C 370.214844 304.121094 367.75 305.132812 365.132812 305.132812 Z M 365.132812 305.132812 " fill-opacity="1" fill-rule="nonzero"/><path fill="#43105f" d="M 334.789062 329.441406 C 333.789062 329.441406 332.976562 328.632812 332.976562 327.628906 L 332.976562 315.507812 C 332.976562 314.507812 333.789062 313.695312 334.789062 313.695312 C 335.792969 313.695312 336.605469 314.507812 336.605469 315.507812 L 336.605469 327.628906 C 336.605469 328.632812 335.792969 329.441406 334.789062 329.441406 Z M 334.789062 329.441406 " fill-opacity="1" fill-rule="nonzero"/><path fill="#aa1da4" d="M 310.726562 287.230469 L 310.746094 254.964844 L 310.675781 255.007812 L 310.785156 254.964844 L 310.765625 262.546875 L 310.589844 262.546875 C 302.238281 257.417969 294.871094 262.546875 294.871094 262.546875 L 294.542969 262.546875 L 294.542969 253.132812 C 294.542969 239.6875 305.441406 228.789062 318.886719 228.789062 L 348.851562 228.789062 C 362.296875 228.789062 373.195312 239.6875 373.195312 253.132812 L 373.195312 262.546875 L 372.734375 262.546875 C 364.382812 257.417969 357.019531 262.546875 357.019531 262.546875 L 357.171875 255.046875 L 357.0625 257.023438 L 357.0625 262.546875 L 357.230469 287.273438 Z M 310.726562 287.230469 " fill-opacity="1" fill-rule="nonzero"/><path fill="#43105f" d="M 357.230469 289.089844 C 356.234375 289.089844 355.425781 288.285156 355.417969 287.289062 L 355.253906 262.960938 C 355.21875 262.816406 355.203125 262.664062 355.203125 262.511719 L 355.25 260.339844 L 355.25 257.023438 C 355.25 256.992188 355.25 256.957031 355.253906 256.925781 L 355.359375 254.949219 C 355.414062 253.960938 356.25 253.199219 357.238281 253.238281 C 358.226562 253.273438 359.003906 254.097656 358.984375 255.085938 L 358.890625 259.597656 C 359.605469 259.324219 360.433594 259.058594 361.351562 258.855469 C 363.835938 258.300781 367.433594 258.101562 371.382812 259.804688 L 371.382812 253.132812 C 371.382812 240.710938 361.277344 230.601562 348.851562 230.601562 L 318.886719 230.601562 C 306.464844 230.601562 296.355469 240.710938 296.355469 253.132812 L 296.355469 259.75 C 297.152344 259.421875 298.113281 259.097656 299.207031 258.855469 C 301.625 258.316406 305.101562 258.113281 308.929688 259.675781 L 308.933594 255.503906 C 308.710938 254.726562 309.035156 253.871094 309.753906 253.445312 L 309.824219 253.40625 C 310.113281 253.234375 310.445312 253.148438 310.765625 253.152344 C 311.136719 253.148438 311.503906 253.257812 311.816406 253.472656 C 312.308594 253.8125 312.601562 254.375 312.597656 254.972656 L 312.578125 262.554688 C 312.578125 262.648438 312.570312 262.742188 312.554688 262.835938 L 312.539062 287.234375 C 312.539062 288.234375 311.726562 289.042969 310.726562 289.042969 C 309.722656 289.042969 308.914062 288.230469 308.914062 287.230469 L 308.929688 263.679688 C 302.039062 259.949219 296.15625 263.867188 295.902344 264.039062 C 295.597656 264.253906 295.242188 264.359375 294.871094 264.359375 L 294.542969 264.359375 C 293.542969 264.359375 292.730469 263.550781 292.730469 262.546875 L 292.730469 253.132812 C 292.730469 238.710938 304.464844 226.976562 318.886719 226.976562 L 348.851562 226.976562 C 363.277344 226.976562 375.007812 238.710938 375.007812 253.132812 L 375.007812 262.546875 C 375.007812 263.550781 374.199219 264.359375 373.195312 264.359375 L 372.738281 264.359375 C 372.402344 264.359375 372.074219 264.269531 371.789062 264.09375 C 366.027344 260.554688 360.851562 262.535156 358.882812 263.554688 L 359.042969 287.261719 C 359.050781 288.265625 358.246094 289.082031 357.242188 289.089844 C 357.238281 289.089844 357.234375 289.089844 357.230469 289.089844 Z M 357.230469 289.089844 " fill-opacity="1" fill-rule="nonzero"/><path fill="#ffffff" d="M 347.707031 185.703125 C 348.128906 186.125 348.527344 186.566406 348.902344 187.023438 C 349.28125 187.484375 349.632812 187.960938 349.964844 188.453125 C 350.296875 188.949219 350.601562 189.457031 350.878906 189.984375 C 351.160156 190.507812 351.414062 191.042969 351.640625 191.59375 C 351.871094 192.140625 352.070312 192.703125 352.242188 193.269531 C 352.414062 193.839844 352.558594 194.414062 352.675781 194.996094 C 352.789062 195.582031 352.878906 196.167969 352.9375 196.761719 C 352.996094 197.351562 353.023438 197.945312 353.023438 198.539062 C 353.023438 199.132812 352.996094 199.726562 352.9375 200.316406 C 352.878906 200.910156 352.789062 201.496094 352.675781 202.078125 C 352.558594 202.664062 352.414062 203.238281 352.242188 203.808594 C 352.070312 204.375 351.871094 204.9375 351.640625 205.484375 C 351.414062 206.035156 351.160156 206.570312 350.878906 207.09375 C 350.601562 207.621094 350.296875 208.128906 349.964844 208.621094 C 349.632812 209.117188 349.28125 209.59375 348.902344 210.054688 C 348.527344 210.511719 348.128906 210.953125 347.707031 211.375 C 347.289062 211.792969 346.847656 212.191406 346.386719 212.570312 C 345.929688 212.945312 345.453125 213.300781 344.957031 213.632812 C 344.464844 213.960938 343.953125 214.265625 343.429688 214.546875 C 342.90625 214.828125 342.367188 215.082031 341.820312 215.308594 C 341.269531 215.535156 340.710938 215.734375 340.140625 215.910156 C 339.574219 216.082031 338.996094 216.226562 338.414062 216.339844 C 337.832031 216.457031 337.242188 216.542969 336.652344 216.601562 C 336.0625 216.660156 335.46875 216.691406 334.875 216.691406 C 334.277344 216.691406 333.6875 216.660156 333.09375 216.601562 C 332.503906 216.542969 331.914062 216.457031 331.332031 216.339844 C 330.75 216.226562 330.171875 216.082031 329.605469 215.910156 C 329.035156 215.734375 328.476562 215.535156 327.925781 215.308594 C 327.378906 215.082031 326.839844 214.828125 326.316406 214.546875 C 325.792969 214.265625 325.285156 213.960938 324.789062 213.632812 C 324.296875 213.300781 323.816406 212.949219 323.359375 212.570312 C 322.898438 212.191406 322.460938 211.792969 322.039062 211.375 C 321.617188 210.953125 321.21875 210.515625 320.84375 210.054688 C 320.464844 209.59375 320.113281 209.117188 319.78125 208.625 C 319.453125 208.128906 319.144531 207.621094 318.867188 207.097656 C 318.585938 206.570312 318.332031 206.035156 318.105469 205.484375 C 317.875 204.9375 317.675781 204.378906 317.503906 203.808594 C 317.332031 203.238281 317.1875 202.664062 317.070312 202.082031 C 316.957031 201.496094 316.867188 200.910156 316.808594 200.320312 C 316.75 199.726562 316.722656 199.132812 316.722656 198.539062 C 316.722656 197.945312 316.75 197.351562 316.808594 196.761719 C 316.867188 196.167969 316.957031 195.582031 317.070312 195 C 317.1875 194.414062 317.332031 193.839844 317.503906 193.269531 C 317.675781 192.703125 317.875 192.144531 318.105469 191.59375 C 318.332031 191.042969 318.585938 190.507812 318.867188 189.984375 C 319.144531 189.460938 319.449219 188.949219 319.78125 188.457031 C 320.113281 187.960938 320.464844 187.484375 320.84375 187.023438 C 321.21875 186.566406 321.617188 186.125 322.039062 185.707031 C 322.457031 185.285156 322.898438 184.886719 323.359375 184.507812 C 323.816406 184.132812 324.292969 183.777344 324.789062 183.449219 C 325.28125 183.117188 325.792969 182.8125 326.316406 182.53125 C 326.839844 182.25 327.378906 181.996094 327.925781 181.769531 C 328.476562 181.542969 329.035156 181.34375 329.605469 181.171875 C 330.171875 180.996094 330.75 180.851562 331.332031 180.738281 C 331.914062 180.621094 332.503906 180.535156 333.09375 180.476562 C 333.683594 180.417969 334.277344 180.390625 334.871094 180.386719 C 335.46875 180.386719 336.058594 180.417969 336.652344 180.476562 C 337.242188 180.535156 337.832031 180.621094 338.414062 180.738281 C 338.996094 180.851562 339.574219 180.996094 340.140625 181.171875 C 340.710938 181.34375 341.269531 181.542969 341.820312 181.769531 C 342.367188 181.996094 342.90625 182.25 343.429688 182.53125 C 343.953125 182.8125 344.460938 183.117188 344.957031 183.449219 C 345.449219 183.777344 345.929688 184.132812 346.386719 184.507812 C 346.847656 184.886719 347.285156 185.285156 347.707031 185.703125 Z M 347.707031 185.703125 " fill-opacity="1" fill-rule="nonzero"/><path fill="#43105f" d="M 334.878906 218.503906 C 323.871094 218.503906 314.914062 209.546875 314.914062 198.539062 C 314.914062 187.53125 323.871094 178.574219 334.878906 178.574219 C 345.886719 178.574219 354.84375 187.53125 354.84375 198.539062 C 354.84375 209.546875 345.886719 218.503906 334.878906 218.503906 Z M 334.878906 182.199219 C 325.871094 182.199219 318.539062 189.53125 318.539062 198.539062 C 318.539062 207.546875 325.871094 214.875 334.878906 214.875 C 343.886719 214.875 351.214844 207.546875 351.214844 198.539062 C 351.214844 189.53125 343.886719 182.199219 334.878906 182.199219 Z M 334.878906 182.199219 " fill-opacity="1" fill-rule="nonzero"/><path fill="#43105f" d="M 355.046875 289.089844 L 310.675781 289.089844 C 309.675781 289.089844 308.863281 288.277344 308.863281 287.273438 C 308.863281 286.273438 309.675781 285.460938 310.675781 285.460938 L 355.046875 285.460938 C 356.046875 285.460938 356.859375 286.273438 356.859375 287.273438 C 356.859375 288.277344 356.046875 289.089844 355.046875 289.089844 Z M 355.046875 289.089844 " fill-opacity="1" fill-rule="nonzero"/><path fill="#43105f" d="M 334.789062 329.441406 C 333.789062 329.441406 332.976562 328.632812 332.976562 327.628906 L 332.976562 315.507812 C 332.976562 314.507812 333.789062 313.695312 334.789062 313.695312 C 335.792969 313.695312 336.605469 314.507812 336.605469 315.507812 L 336.605469 327.628906 C 336.605469 328.632812 335.792969 329.441406 334.789062 329.441406 Z M 334.789062 329.441406 " fill-opacity="1" fill-rule="nonzero"/><path fill="#fdc175" d="M 223.585938 250.832031 C 223.585938 250.832031 226.488281 254.652344 232.328125 259.300781 L 232.511719 259.074219 C 232.511719 259.074219 232.613281 248.773438 244.269531 245.425781 L 244.429688 245.257812 C 238.324219 239.386719 235.78125 234.15625 235.78125 234.15625 Z M 223.585938 250.832031 " fill-opacity="1" fill-rule="nonzero"/><path fill="#43105f" d="M 232.328125 261.113281 C 231.933594 261.113281 231.535156 260.984375 231.199219 260.71875 C 225.25 255.984375 222.265625 252.09375 222.140625 251.929688 C 221.535156 251.132812 221.691406 249.996094 222.488281 249.390625 C 223.285156 248.785156 224.421875 248.9375 225.027344 249.734375 C 225.050781 249.765625 227.117188 252.449219 231.175781 255.980469 C 231.425781 255.011719 231.808594 253.882812 232.394531 252.699219 C 233.703125 250.0625 236.265625 246.6875 241.214844 244.585938 C 236.347656 239.410156 234.246094 235.148438 234.148438 234.949219 C 233.710938 234.046875 234.085938 232.964844 234.988281 232.523438 C 235.886719 232.085938 236.972656 232.460938 237.410156 233.363281 C 237.433594 233.410156 239.917969 238.40625 245.6875 243.953125 C 246.40625 244.644531 246.429688 245.792969 245.734375 246.515625 L 245.578125 246.679688 C 245.355469 246.910156 245.078125 247.078125 244.769531 247.167969 C 234.621094 250.082031 234.332031 258.734375 234.324219 259.101562 C 234.320312 259.503906 234.179688 259.890625 233.925781 260.203125 L 233.746094 260.429688 C 233.386719 260.878906 232.859375 261.113281 232.328125 261.113281 Z M 232.328125 261.113281 " fill-opacity="1" fill-rule="nonzero"/><path fill="#aa1da4" d="M 279.335938 186.445312 L 275.613281 193.992188 C 275.261719 194.699219 274.585938 195.191406 273.804688 195.304688 L 265.480469 196.515625 C 263.511719 196.800781 262.726562 199.21875 264.148438 200.605469 L 270.175781 206.480469 C 270.738281 207.03125 271 207.824219 270.863281 208.605469 L 269.441406 216.898438 C 269.105469 218.859375 271.164062 220.351562 272.925781 219.429688 L 280.371094 215.511719 C 281.070312 215.144531 281.90625 215.144531 282.605469 215.511719 L 290.054688 219.429688 C 291.8125 220.351562 293.871094 218.859375 293.535156 216.898438 L 292.113281 208.605469 C 291.980469 207.824219 292.238281 207.03125 292.800781 206.480469 L 298.828125 200.605469 C 300.253906 199.21875 299.46875 196.800781 297.5 196.515625 L 289.171875 195.304688 C 288.390625 195.191406 287.714844 194.699219 287.363281 193.992188 L 283.640625 186.445312 C 282.761719 184.664062 280.21875 184.664062 279.335938 186.445312 Z M 279.335938 186.445312 " fill-opacity="1" fill-rule="nonzero"/><path fill="#43105f" d="M 271.804688 221.519531 C 270.933594 221.519531 270.070312 221.25 269.332031 220.710938 C 268.023438 219.761719 267.382812 218.183594 267.65625 216.589844 L 269.078125 208.300781 C 269.109375 208.109375 269.046875 207.914062 268.910156 207.78125 L 262.882812 201.90625 C 261.726562 200.777344 261.320312 199.121094 261.820312 197.585938 C 262.316406 196.050781 263.621094 194.953125 265.21875 194.722656 L 273.546875 193.511719 C 273.738281 193.484375 273.902344 193.363281 273.988281 193.191406 L 277.710938 185.644531 C 278.425781 184.195312 279.875 183.296875 281.488281 183.296875 C 283.105469 183.296875 284.550781 184.195312 285.265625 185.644531 L 288.992188 193.191406 C 289.074219 193.363281 289.242188 193.484375 289.433594 193.511719 L 297.757812 194.722656 C 299.359375 194.953125 300.660156 196.050781 301.160156 197.585938 C 301.660156 199.121094 301.25 200.777344 300.09375 201.90625 L 294.066406 207.78125 C 293.929688 207.914062 293.867188 208.109375 293.898438 208.300781 L 295.324219 216.589844 C 295.59375 218.1875 294.953125 219.765625 293.644531 220.714844 C 292.335938 221.660156 290.640625 221.785156 289.210938 221.035156 L 281.761719 217.117188 C 281.589844 217.027344 281.386719 217.027344 281.214844 217.117188 L 273.769531 221.035156 C 273.144531 221.359375 272.472656 221.519531 271.804688 221.519531 Z M 280.964844 187.246094 L 277.238281 194.792969 C 276.625 196.039062 275.4375 196.898438 274.066406 197.097656 L 265.738281 198.308594 C 265.425781 198.355469 265.308594 198.578125 265.265625 198.707031 C 265.226562 198.835938 265.1875 199.085938 265.414062 199.308594 L 271.441406 205.183594 C 272.433594 206.148438 272.886719 207.542969 272.652344 208.914062 L 271.230469 217.203125 C 271.175781 217.515625 271.351562 217.699219 271.460938 217.777344 C 271.574219 217.859375 271.800781 217.972656 272.082031 217.824219 L 279.527344 213.90625 C 280.757812 213.261719 282.222656 213.261719 283.449219 213.90625 L 290.898438 217.824219 C 291.179688 217.972656 291.402344 217.859375 291.515625 217.777344 C 291.625 217.699219 291.800781 217.515625 291.75 217.203125 L 290.324219 208.914062 C 290.09375 207.542969 290.546875 206.148438 291.539062 205.183594 L 297.5625 199.308594 C 297.789062 199.085938 297.753906 198.835938 297.710938 198.707031 C 297.667969 198.578125 297.550781 198.355469 297.238281 198.308594 L 288.910156 197.097656 C 287.542969 196.898438 286.355469 196.039062 285.738281 194.796875 L 282.015625 187.25 C 281.875 186.964844 281.625 186.921875 281.488281 186.921875 C 281.351562 186.921875 281.105469 186.964844 280.964844 187.246094 Z M 280.964844 187.246094 " fill-opacity="1" fill-rule="nonzero"/><path fill="#aa1da4" d="M 303.605469 143.523438 L 299.882812 151.070312 C 299.535156 151.777344 298.859375 152.269531 298.078125 152.382812 L 289.75 153.59375 C 287.78125 153.878906 286.996094 156.296875 288.417969 157.6875 L 294.445312 163.5625 C 295.011719 164.113281 295.269531 164.90625 295.136719 165.683594 L 293.710938 173.976562 C 293.375 175.9375 295.433594 177.433594 297.195312 176.507812 L 304.644531 172.59375 C 305.339844 172.226562 306.175781 172.226562 306.875 172.59375 L 314.324219 176.507812 C 316.082031 177.433594 318.140625 175.9375 317.804688 173.976562 L 316.382812 165.683594 C 316.25 164.90625 316.507812 164.113281 317.074219 163.5625 L 323.097656 157.6875 C 324.523438 156.296875 323.738281 153.878906 321.769531 153.59375 L 313.441406 152.382812 C 312.660156 152.269531 311.984375 151.777344 311.632812 151.070312 L 307.910156 143.523438 C 307.03125 141.742188 304.488281 141.742188 303.605469 143.523438 Z M 303.605469 143.523438 " fill-opacity="1" fill-rule="nonzero"/><path fill="#43105f" d="M 296.074219 178.601562 C 295.203125 178.601562 294.339844 178.328125 293.601562 177.792969 C 292.292969 176.839844 291.652344 175.261719 291.925781 173.671875 L 293.347656 165.378906 C 293.382812 165.1875 293.316406 164.996094 293.179688 164.859375 L 287.152344 158.984375 C 285.996094 157.855469 285.589844 156.203125 286.089844 154.667969 C 286.589844 153.128906 287.890625 152.03125 289.488281 151.800781 L 297.816406 150.589844 C 298.007812 150.5625 298.171875 150.441406 298.257812 150.269531 L 301.980469 142.722656 C 302.695312 141.273438 304.144531 140.375 305.757812 140.375 C 305.757812 140.375 305.757812 140.375 305.761719 140.375 C 307.375 140.375 308.820312 141.273438 309.535156 142.722656 L 313.261719 150.269531 C 313.34375 150.441406 313.511719 150.5625 313.703125 150.589844 L 322.027344 151.800781 C 323.628906 152.03125 324.929688 153.132812 325.429688 154.667969 C 325.929688 156.203125 325.519531 157.859375 324.363281 158.984375 L 318.339844 164.859375 C 318.199219 164.996094 318.136719 165.1875 318.167969 165.382812 L 319.59375 173.671875 C 319.863281 175.265625 319.222656 176.84375 317.914062 177.792969 C 316.609375 178.742188 314.910156 178.863281 313.480469 178.113281 L 306.03125 174.195312 C 305.863281 174.109375 305.65625 174.109375 305.484375 174.199219 L 298.039062 178.113281 C 297.417969 178.441406 296.742188 178.601562 296.074219 178.601562 Z M 305.234375 144.328125 L 301.507812 151.875 C 300.894531 153.117188 299.710938 153.980469 298.335938 154.179688 L 290.007812 155.386719 C 289.695312 155.433594 289.578125 155.65625 289.535156 155.789062 C 289.496094 155.917969 289.457031 156.167969 289.6875 156.390625 L 295.710938 162.261719 C 296.703125 163.230469 297.15625 164.625 296.921875 165.992188 L 295.5 174.285156 C 295.445312 174.597656 295.621094 174.777344 295.734375 174.859375 C 295.84375 174.9375 296.070312 175.050781 296.351562 174.902344 L 303.800781 170.988281 C 305.027344 170.34375 306.492188 170.34375 307.71875 170.988281 L 315.167969 174.902344 C 315.449219 175.050781 315.675781 174.9375 315.785156 174.859375 C 315.894531 174.777344 316.074219 174.597656 316.019531 174.28125 L 314.59375 165.992188 C 314.363281 164.621094 314.816406 163.226562 315.808594 162.261719 L 321.832031 156.390625 C 322.058594 156.167969 322.023438 155.917969 321.980469 155.785156 C 321.941406 155.65625 321.820312 155.433594 321.507812 155.386719 L 313.179688 154.179688 C 311.8125 153.980469 310.625 153.117188 310.011719 151.875 L 306.285156 144.328125 C 306.144531 144.042969 305.894531 144 305.757812 144 C 305.621094 144 305.375 144.042969 305.234375 144.328125 Z M 305.234375 144.328125 " fill-opacity="1" fill-rule="nonzero"/></svg>