<svg xmlns="http://www.w3.org/2000/svg" xmlns:xlink="http://www.w3.org/1999/xlink" width="500" zoomAndPan="magnify" viewBox="0 0 375 374.999991" height="500" preserveAspectRatio="xMidYMid meet" version="1.0"><defs><clipPath id="9e62a9ea29"><path d="M 353 154 L 372.589844 154 L 372.589844 264 L 353 264 Z M 353 154 " clip-rule="nonzero"/></clipPath></defs><g clip-path="url(#9e62a9ea29)"><path fill="#43105f" d="M 355.847656 263.210938 C 355.585938 263.210938 355.324219 263.160156 355.070312 263.050781 C 354.085938 262.625 353.632812 261.476562 354.0625 260.492188 C 356.855469 254.058594 359.300781 247.398438 361.328125 240.691406 C 361.636719 239.664062 362.722656 239.082031 363.753906 239.394531 C 364.78125 239.703125 365.363281 240.789062 365.050781 241.820312 C 362.980469 248.667969 360.484375 255.472656 357.632812 262.042969 C 357.3125 262.773438 356.597656 263.210938 355.847656 263.210938 Z M 368.171875 222.472656 C 368.054688 222.472656 367.941406 222.464844 367.824219 222.441406 C 366.765625 222.253906 366.0625 221.242188 366.253906 220.183594 C 367.492188 213.300781 368.34375 206.253906 368.785156 199.242188 C 368.855469 198.171875 369.777344 197.355469 370.851562 197.421875 C 371.921875 197.492188 372.738281 198.414062 372.667969 199.488281 C 372.214844 206.648438 371.347656 213.84375 370.082031 220.871094 C 369.914062 221.8125 369.09375 222.472656 368.171875 222.472656 Z M 370.863281 179.992188 C 369.832031 179.992188 368.972656 179.1875 368.921875 178.144531 C 368.570312 171.128906 367.808594 164.074219 366.664062 157.175781 C 366.484375 156.117188 367.203125 155.113281 368.261719 154.9375 C 369.320312 154.761719 370.324219 155.476562 370.5 156.539062 C 371.671875 163.582031 372.449219 170.785156 372.808594 177.949219 C 372.859375 179.023438 372.035156 179.9375 370.960938 179.992188 C 370.929688 179.992188 370.894531 179.992188 370.863281 179.992188 Z M 370.863281 179.992188 " fill-opacity="1" fill-rule="nonzero"/></g><path fill="#43105f" d="M 0.441406 197.253906 C -0.597656 197.253906 -1.457031 196.433594 -1.5 195.386719 C -1.609375 192.777344 -1.664062 190.121094 -1.664062 187.5 C -1.664062 182.957031 -1.5 178.371094 -1.175781 173.863281 C -1.097656 172.789062 -0.167969 171.988281 0.90625 172.0625 C 1.976562 172.140625 2.78125 173.070312 2.707031 174.140625 C 2.386719 178.558594 2.226562 183.050781 2.226562 187.5 C 2.226562 190.066406 2.28125 192.667969 2.386719 195.226562 C 2.429688 196.300781 1.597656 197.207031 0.523438 197.25 C 0.496094 197.253906 0.46875 197.253906 0.441406 197.253906 Z M 3.511719 154.816406 C 3.390625 154.816406 3.269531 154.804688 3.148438 154.78125 C 2.09375 154.582031 1.398438 153.566406 1.597656 152.511719 C 2.925781 145.476562 4.679688 138.445312 6.8125 131.617188 C 7.132812 130.59375 8.222656 130.019531 9.25 130.339844 C 10.273438 130.660156 10.847656 131.75 10.527344 132.777344 C 8.441406 139.460938 6.722656 146.34375 5.421875 153.234375 C 5.246094 154.167969 4.429688 154.816406 3.511719 154.816406 Z M 16.1875 114.195312 C 15.921875 114.195312 15.65625 114.140625 15.398438 114.027344 C 14.417969 113.589844 13.972656 112.441406 14.410156 111.457031 C 17.316406 104.921875 20.636719 98.480469 24.285156 92.3125 C 24.828125 91.390625 26.023438 91.082031 26.949219 91.628906 C 27.871094 92.175781 28.179688 93.367188 27.632812 94.292969 C 24.0625 100.332031 20.8125 106.640625 17.964844 113.039062 C 17.644531 113.765625 16.933594 114.195312 16.1875 114.195312 Z M 37.835938 77.550781 C 37.425781 77.550781 37.015625 77.421875 36.664062 77.15625 C 35.808594 76.507812 35.640625 75.289062 36.289062 74.433594 C 40.609375 68.730469 45.308594 63.21875 50.253906 58.042969 C 51 57.265625 52.230469 57.238281 53.003906 57.980469 C 53.78125 58.722656 53.808594 59.953125 53.066406 60.730469 C 48.222656 65.796875 43.621094 71.199219 39.386719 76.78125 C 39.003906 77.285156 38.425781 77.550781 37.835938 77.550781 Z M 67.246094 46.796875 C 66.6875 46.796875 66.132812 46.558594 65.746094 46.09375 C 65.0625 45.269531 65.175781 44.042969 66 43.355469 C 71.503906 38.777344 77.332031 34.476562 83.316406 30.5625 C 84.214844 29.976562 85.421875 30.226562 86.007812 31.128906 C 86.597656 32.027344 86.34375 33.230469 85.445312 33.820312 C 79.582031 37.648438 73.878906 41.863281 68.488281 46.347656 C 68.125 46.648438 67.683594 46.796875 67.246094 46.796875 Z M 102.851562 23.527344 C 102.136719 23.527344 101.453125 23.132812 101.109375 22.449219 C 100.628906 21.488281 101.019531 20.320312 101.980469 19.839844 C 108.382812 16.636719 115.039062 13.773438 121.765625 11.335938 C 122.773438 10.96875 123.890625 11.488281 124.253906 12.5 C 124.621094 13.507812 124.101562 14.625 123.089844 14.992188 C 116.507812 17.382812 109.992188 20.183594 103.71875 23.320312 C 103.441406 23.460938 103.144531 23.527344 102.851562 23.527344 Z M 247.859375 14.714844 C 247.640625 14.714844 247.421875 14.679688 247.207031 14.601562 C 240.605469 12.253906 233.792969 10.265625 226.960938 8.695312 C 225.914062 8.453125 225.261719 7.410156 225.5 6.363281 C 225.742188 5.316406 226.785156 4.664062 227.832031 4.902344 C 234.808594 6.507812 241.765625 8.539062 248.511719 10.9375 C 249.523438 11.296875 250.050781 12.410156 249.691406 13.421875 C 249.40625 14.21875 248.660156 14.714844 247.859375 14.714844 Z M 142.84375 9.011719 C 141.960938 9.011719 141.164062 8.40625 140.953125 7.511719 C 140.703125 6.46875 141.351562 5.421875 142.398438 5.171875 C 149.351562 3.527344 156.484375 2.269531 163.601562 1.433594 C 164.667969 1.308594 165.636719 2.070312 165.761719 3.136719 C 165.886719 4.207031 165.121094 5.171875 164.054688 5.296875 C 157.085938 6.117188 150.101562 7.347656 143.292969 8.957031 C 143.140625 8.992188 142.992188 9.011719 142.84375 9.011719 Z M 206.382812 5.175781 C 206.3125 5.175781 206.238281 5.171875 206.167969 5.164062 C 199.417969 4.414062 192.527344 4.035156 185.691406 4.035156 C 185.496094 4.035156 185.300781 4.035156 185.101562 4.035156 C 185.101562 4.035156 185.097656 4.035156 185.097656 4.035156 C 184.027344 4.035156 183.15625 3.167969 183.152344 2.097656 C 183.148438 1.023438 184.015625 0.148438 185.089844 0.144531 C 185.292969 0.144531 185.492188 0.144531 185.691406 0.144531 C 192.671875 0.144531 199.703125 0.53125 206.597656 1.296875 C 207.664062 1.417969 208.433594 2.378906 208.316406 3.445312 C 208.203125 4.441406 207.363281 5.175781 206.382812 5.175781 Z M 206.382812 5.175781 " fill-opacity="1" fill-rule="nonzero"/><path fill="#43105f" d="M 185.691406 374.855469 C 184.621094 374.855469 183.539062 374.847656 182.472656 374.828125 C 181.398438 374.808594 180.542969 373.925781 180.558594 372.851562 C 180.578125 371.777344 181.460938 370.914062 182.535156 370.9375 C 183.582031 370.957031 184.640625 370.964844 185.691406 370.964844 C 191.667969 370.964844 197.699219 370.675781 203.613281 370.101562 C 204.6875 369.996094 205.632812 370.78125 205.738281 371.847656 C 205.84375 372.917969 205.058594 373.867188 203.988281 373.972656 C 197.949219 374.558594 191.792969 374.855469 185.691406 374.855469 Z M 161.242188 373.257812 C 161.160156 373.257812 161.074219 373.25 160.984375 373.242188 C 153.878906 372.304688 146.757812 370.945312 139.824219 369.199219 C 138.78125 368.9375 138.152344 367.878906 138.414062 366.839844 C 138.675781 365.796875 139.730469 365.164062 140.773438 365.425781 C 147.5625 367.136719 154.535156 368.464844 161.492188 369.382812 C 162.558594 369.523438 163.308594 370.5 163.167969 371.566406 C 163.039062 372.546875 162.203125 373.257812 161.242188 373.257812 Z M 119.960938 362.867188 C 119.730469 362.867188 119.5 362.828125 119.273438 362.742188 C 112.582031 360.203125 105.964844 357.246094 99.605469 353.949219 C 98.652344 353.457031 98.28125 352.28125 98.773438 351.328125 C 99.269531 350.375 100.441406 350 101.394531 350.496094 C 107.625 353.722656 114.101562 356.621094 120.652344 359.101562 C 121.65625 359.484375 122.160156 360.605469 121.78125 361.609375 C 121.484375 362.390625 120.746094 362.867188 119.960938 362.867188 Z M 82.167969 343.289062 C 81.796875 343.289062 81.417969 343.179688 81.082031 342.953125 C 75.152344 338.957031 69.386719 334.566406 63.945312 329.910156 C 63.128906 329.214844 63.03125 327.984375 63.730469 327.167969 C 64.429688 326.351562 65.65625 326.257812 66.472656 326.957031 C 71.804688 331.515625 77.449219 335.8125 83.257812 339.730469 C 84.148438 340.328125 84.382812 341.539062 83.785156 342.429688 C 83.410156 342.988281 82.792969 343.289062 82.167969 343.289062 Z M 82.167969 343.289062 " fill-opacity="1" fill-rule="nonzero"/><path fill="#edc7ec" d="M 321.820312 187.5 C 321.820312 189.726562 321.765625 191.953125 321.65625 194.179688 C 321.550781 196.40625 321.386719 198.625 321.167969 200.84375 C 320.949219 203.058594 320.675781 205.269531 320.347656 207.472656 C 320.023438 209.679688 319.640625 211.871094 319.207031 214.058594 C 318.773438 216.242188 318.285156 218.414062 317.742188 220.578125 C 317.199219 222.738281 316.605469 224.882812 315.960938 227.015625 C 315.3125 229.148438 314.613281 231.261719 313.863281 233.359375 C 313.113281 235.457031 312.3125 237.535156 311.460938 239.59375 C 310.605469 241.652344 309.703125 243.6875 308.753906 245.703125 C 307.800781 247.71875 306.796875 249.707031 305.746094 251.671875 C 304.699219 253.636719 303.601562 255.574219 302.453125 257.484375 C 301.308594 259.394531 300.117188 261.277344 298.878906 263.128906 C 297.640625 264.984375 296.359375 266.804688 295.03125 268.59375 C 293.707031 270.382812 292.335938 272.136719 290.921875 273.859375 C 289.507812 275.582031 288.054688 277.269531 286.558594 278.921875 C 285.0625 280.570312 283.527344 282.183594 281.949219 283.757812 C 280.375 285.335938 278.761719 286.871094 277.109375 288.367188 C 275.460938 289.863281 273.773438 291.316406 272.050781 292.730469 C 270.328125 294.144531 268.574219 295.515625 266.785156 296.839844 C 264.996094 298.167969 263.175781 299.449219 261.320312 300.6875 C 259.46875 301.925781 257.585938 303.117188 255.675781 304.261719 C 253.765625 305.410156 251.828125 306.507812 249.863281 307.558594 C 247.898438 308.605469 245.910156 309.609375 243.894531 310.5625 C 241.878906 311.511719 239.84375 312.414062 237.785156 313.269531 C 235.726562 314.121094 233.648438 314.921875 231.550781 315.671875 C 229.453125 316.421875 227.339844 317.121094 225.207031 317.769531 C 223.074219 318.414062 220.929688 319.011719 218.769531 319.550781 C 216.605469 320.09375 214.433594 320.582031 212.25 321.015625 C 210.0625 321.449219 207.871094 321.832031 205.664062 322.15625 C 203.460938 322.484375 201.25 322.757812 199.035156 322.976562 C 196.816406 323.195312 194.597656 323.359375 192.371094 323.46875 C 190.144531 323.578125 187.917969 323.632812 185.691406 323.632812 C 183.464844 323.632812 181.238281 323.578125 179.011719 323.46875 C 176.785156 323.359375 174.566406 323.195312 172.347656 322.976562 C 170.128906 322.757812 167.921875 322.484375 165.714844 322.15625 C 163.511719 321.832031 161.320312 321.449219 159.132812 321.015625 C 156.949219 320.582031 154.773438 320.09375 152.613281 319.550781 C 150.453125 319.011719 148.304688 318.414062 146.175781 317.769531 C 144.042969 317.121094 141.925781 316.421875 139.828125 315.671875 C 137.730469 314.921875 135.65625 314.121094 133.597656 313.269531 C 131.539062 312.417969 129.5 311.511719 127.488281 310.5625 C 125.472656 309.609375 123.484375 308.605469 121.519531 307.558594 C 119.554688 306.507812 117.617188 305.410156 115.707031 304.261719 C 113.796875 303.117188 111.914062 301.925781 110.0625 300.6875 C 108.207031 299.449219 106.386719 298.167969 104.597656 296.839844 C 102.808594 295.515625 101.054688 294.144531 99.332031 292.730469 C 97.609375 291.316406 95.921875 289.863281 94.269531 288.367188 C 92.621094 286.871094 91.007812 285.335938 89.433594 283.757812 C 87.855469 282.183594 86.320312 280.570312 84.824219 278.921875 C 83.328125 277.269531 81.875 275.582031 80.460938 273.859375 C 79.046875 272.136719 77.675781 270.382812 76.351562 268.59375 C 75.023438 266.804688 73.738281 264.984375 72.503906 263.128906 C 71.265625 261.277344 70.074219 259.394531 68.929688 257.484375 C 67.78125 255.574219 66.683594 253.636719 65.632812 251.671875 C 64.585938 249.707031 63.582031 247.71875 62.628906 245.703125 C 61.675781 243.6875 60.773438 241.652344 59.921875 239.59375 C 59.070312 237.535156 58.269531 235.457031 57.519531 233.359375 C 56.765625 231.261719 56.070312 229.148438 55.421875 227.015625 C 54.773438 224.882812 54.179688 222.738281 53.640625 220.578125 C 53.097656 218.414062 52.609375 216.242188 52.175781 214.058594 C 51.742188 211.871094 51.359375 209.679688 51.035156 207.472656 C 50.707031 205.269531 50.433594 203.058594 50.214844 200.84375 C 49.996094 198.625 49.832031 196.40625 49.722656 194.179688 C 49.613281 191.953125 49.558594 189.726562 49.558594 187.5 C 49.558594 185.273438 49.613281 183.046875 49.722656 180.820312 C 49.832031 178.59375 49.996094 176.375 50.214844 174.15625 C 50.433594 171.941406 50.707031 169.730469 51.035156 167.527344 C 51.359375 165.320312 51.742188 163.128906 52.175781 160.941406 C 52.609375 158.757812 53.097656 156.582031 53.640625 154.421875 C 54.179688 152.261719 54.773438 150.113281 55.421875 147.984375 C 56.070312 145.851562 56.765625 143.738281 57.519531 141.640625 C 58.269531 139.542969 59.070312 137.464844 59.921875 135.40625 C 60.773438 133.347656 61.675781 131.308594 62.628906 129.296875 C 63.582031 127.28125 64.585938 125.292969 65.632812 123.328125 C 66.683594 121.363281 67.78125 119.425781 68.929688 117.515625 C 70.074219 115.605469 71.265625 113.722656 72.503906 111.871094 C 73.738281 110.015625 75.023438 108.195312 76.351562 106.40625 C 77.675781 104.617188 79.046875 102.863281 80.460938 101.140625 C 81.875 99.417969 83.328125 97.730469 84.824219 96.078125 C 86.320312 94.429688 87.855469 92.816406 89.433594 91.242188 C 91.007812 89.664062 92.621094 88.128906 94.269531 86.632812 C 95.921875 85.136719 97.609375 83.683594 99.332031 82.269531 C 101.054688 80.855469 102.808594 79.484375 104.597656 78.160156 C 106.386719 76.832031 108.207031 75.550781 110.0625 74.3125 C 111.914062 73.074219 113.796875 71.882812 115.707031 70.738281 C 117.617188 69.589844 119.554688 68.492188 121.519531 67.441406 C 123.484375 66.394531 125.472656 65.390625 127.488281 64.4375 C 129.5 63.488281 131.539062 62.582031 133.597656 61.730469 C 135.65625 60.878906 137.730469 60.078125 139.828125 59.328125 C 141.925781 58.574219 144.042969 57.878906 146.175781 57.230469 C 148.304688 56.585938 150.453125 55.988281 152.613281 55.449219 C 154.773438 54.90625 156.949219 54.417969 159.132812 53.984375 C 161.320312 53.550781 163.511719 53.167969 165.714844 52.84375 C 167.921875 52.515625 170.128906 52.242188 172.347656 52.023438 C 174.566406 51.804688 176.785156 51.640625 179.011719 51.53125 C 181.238281 51.421875 183.464844 51.367188 185.691406 51.367188 C 187.917969 51.367188 190.144531 51.421875 192.371094 51.53125 C 194.597656 51.640625 196.816406 51.804688 199.035156 52.023438 C 201.25 52.242188 203.460938 52.515625 205.664062 52.84375 C 207.871094 53.167969 210.0625 53.550781 212.25 53.984375 C 214.433594 54.417969 216.605469 54.90625 218.769531 55.449219 C 220.929688 55.988281 223.074219 56.585938 225.207031 57.230469 C 227.339844 57.878906 229.453125 58.574219 231.550781 59.328125 C 233.648438 60.078125 235.726562 60.878906 237.785156 61.730469 C 239.84375 62.582031 241.878906 63.488281 243.894531 64.4375 C 245.910156 65.390625 247.898438 66.394531 249.863281 67.441406 C 251.828125 68.492188 253.765625 69.589844 255.675781 70.738281 C 257.585938 71.882812 259.46875 73.074219 261.320312 74.3125 C 263.175781 75.550781 264.996094 76.832031 266.785156 78.160156 C 268.574219 79.484375 270.328125 80.855469 272.050781 82.269531 C 273.773438 83.683594 275.460938 85.136719 277.109375 86.632812 C 278.761719 88.128906 280.375 89.664062 281.949219 91.242188 C 283.527344 92.816406 285.0625 94.429688 286.558594 96.078125 C 288.054688 97.730469 289.507812 99.417969 290.921875 101.140625 C 292.335938 102.863281 293.707031 104.617188 295.03125 106.40625 C 296.359375 108.195312 297.640625 110.015625 298.878906 111.871094 C 300.117188 113.722656 301.308594 115.605469 302.453125 117.515625 C 303.601562 119.425781 304.699219 121.363281 305.746094 123.328125 C 306.796875 125.292969 307.800781 127.28125 308.753906 129.296875 C 309.703125 131.308594 310.605469 133.347656 311.460938 135.40625 C 312.3125 137.464844 313.113281 139.542969 313.863281 141.640625 C 314.613281 143.738281 315.3125 145.851562 315.960938 147.984375 C 316.605469 150.113281 317.199219 152.261719 317.742188 154.421875 C 318.285156 156.582031 318.773438 158.757812 319.207031 160.941406 C 319.640625 163.128906 320.023438 165.320312 320.347656 167.527344 C 320.675781 169.730469 320.949219 171.941406 321.167969 174.15625 C 321.386719 176.375 321.550781 178.59375 321.65625 180.820312 C 321.765625 183.046875 321.820312 185.273438 321.820312 187.5 Z M 321.820312 187.5 " fill-opacity="1" fill-rule="nonzero"/><path fill="#ffffff" d="M 316.777344 323.574219 L 187.414062 323.574219 C 181.054688 323.574219 175.898438 318.417969 175.898438 312.058594 L 175.898438 216.894531 C 175.898438 210.535156 181.054688 205.378906 187.414062 205.378906 L 316.777344 205.378906 C 323.136719 205.378906 328.292969 210.535156 328.292969 216.894531 L 328.292969 312.058594 C 328.292969 318.417969 323.136719 323.574219 316.777344 323.574219 Z M 316.777344 323.574219 " fill-opacity="1" fill-rule="nonzero"/><path fill="#43105f" d="M 316.777344 325.519531 L 187.414062 325.519531 C 179.992188 325.519531 173.953125 319.480469 173.953125 312.058594 L 173.953125 216.894531 C 173.953125 209.472656 179.992188 203.433594 187.414062 203.433594 L 316.777344 203.433594 C 324.199219 203.433594 330.238281 209.472656 330.238281 216.894531 L 330.238281 312.058594 C 330.238281 319.480469 324.199219 325.519531 316.777344 325.519531 Z M 187.414062 207.324219 C 182.136719 207.324219 177.84375 211.617188 177.84375 216.894531 L 177.84375 312.058594 C 177.84375 317.335938 182.136719 321.628906 187.414062 321.628906 L 316.777344 321.628906 C 322.054688 321.628906 326.347656 317.335938 326.347656 312.058594 L 326.347656 216.894531 C 326.347656 211.617188 322.054688 207.324219 316.777344 207.324219 Z M 187.414062 207.324219 " fill-opacity="1" fill-rule="nonzero"/><path fill="#ffffff" d="M 194.527344 302.222656 L 209.332031 272.890625 L 246.105469 274.507812 L 265.96875 231.898438 Z M 194.527344 302.222656 " fill-opacity="1" fill-rule="nonzero"/><path fill="#43105f" d="M 194.527344 304.171875 C 194.230469 304.171875 193.933594 304.101562 193.652344 303.960938 C 192.691406 303.476562 192.308594 302.308594 192.792969 301.347656 L 207.597656 272.011719 C 207.941406 271.328125 208.65625 270.910156 209.417969 270.945312 L 244.890625 272.503906 L 264.207031 231.078125 C 264.660156 230.101562 265.816406 229.683594 266.792969 230.136719 C 267.765625 230.589844 268.1875 231.746094 267.730469 232.71875 L 247.867188 275.328125 C 247.535156 276.042969 246.804688 276.484375 246.019531 276.449219 L 210.503906 274.886719 L 196.265625 303.101562 C 195.921875 303.777344 195.238281 304.171875 194.527344 304.171875 Z M 194.527344 304.171875 " fill-opacity="1" fill-rule="nonzero"/><path fill="#dc3aa7" d="M 198.992188 295.089844 C 199.457031 295.382812 199.886719 295.714844 200.28125 296.09375 C 200.675781 296.46875 201.03125 296.882812 201.347656 297.332031 C 201.660156 297.777344 201.929688 298.253906 202.148438 298.757812 C 202.371094 299.257812 202.539062 299.777344 202.660156 300.316406 C 202.777344 300.855469 202.84375 301.398438 202.855469 301.953125 C 202.867188 302.503906 202.824219 303.050781 202.726562 303.597656 C 202.632812 304.140625 202.484375 304.671875 202.285156 305.191406 C 202.085938 305.707031 201.839844 306.203125 201.542969 306.671875 C 201.25 307.140625 200.914062 307.578125 200.53125 307.980469 C 200.152344 308.386719 199.738281 308.75 199.289062 309.070312 C 198.839844 309.394531 198.363281 309.667969 197.859375 309.898438 C 197.359375 310.128906 196.839844 310.304688 196.304688 310.433594 C 195.765625 310.558594 195.226562 310.632812 194.675781 310.652344 C 194.128906 310.667969 193.582031 310.636719 193.042969 310.546875 C 192.503906 310.457031 191.976562 310.316406 191.464844 310.121094 C 190.953125 309.929688 190.46875 309.6875 190.003906 309.394531 C 189.542969 309.105469 189.113281 308.773438 188.714844 308.394531 C 188.320312 308.019531 187.964844 307.605469 187.652344 307.15625 C 187.335938 306.710938 187.066406 306.234375 186.847656 305.730469 C 186.625 305.230469 186.457031 304.707031 186.339844 304.171875 C 186.21875 303.632812 186.15625 303.089844 186.144531 302.535156 C 186.132812 301.984375 186.175781 301.4375 186.269531 300.890625 C 186.363281 300.347656 186.511719 299.816406 186.710938 299.296875 C 186.910156 298.78125 187.15625 298.285156 187.453125 297.816406 C 187.746094 297.347656 188.085938 296.910156 188.464844 296.507812 C 188.84375 296.101562 189.257812 295.738281 189.710938 295.417969 C 190.160156 295.09375 190.632812 294.816406 191.136719 294.589844 C 191.640625 294.359375 192.160156 294.183594 192.695312 294.054688 C 193.230469 293.929688 193.773438 293.855469 194.320312 293.835938 C 194.871094 293.816406 195.414062 293.851562 195.953125 293.941406 C 196.496094 294.03125 197.019531 294.171875 197.53125 294.367188 C 198.042969 294.558594 198.53125 294.800781 198.992188 295.089844 Z M 198.992188 295.089844 " fill-opacity="1" fill-rule="nonzero"/><path fill="#43105f" d="M 194.421875 312.582031 C 194.195312 312.582031 193.96875 312.574219 193.738281 312.558594 C 191.003906 312.378906 188.511719 311.136719 186.722656 309.066406 C 184.914062 306.976562 184.039062 304.296875 184.257812 301.519531 C 184.707031 295.835938 189.667969 291.515625 195.320312 291.890625 C 198.054688 292.070312 200.546875 293.3125 202.335938 295.382812 C 204.144531 297.472656 205.019531 300.152344 204.800781 302.929688 L 202.859375 302.777344 L 204.800781 302.929688 C 204.371094 308.382812 199.785156 312.582031 194.421875 312.582031 Z M 194.636719 295.757812 C 191.277344 295.757812 188.40625 298.394531 188.136719 301.824219 C 188 303.558594 188.542969 305.226562 189.664062 306.523438 C 190.769531 307.800781 192.304688 308.566406 193.996094 308.675781 C 194.136719 308.6875 194.28125 308.691406 194.421875 308.691406 C 197.777344 308.691406 200.652344 306.054688 200.921875 302.625 C 201.058594 300.890625 200.515625 299.222656 199.394531 297.925781 C 198.289062 296.648438 196.75 295.882812 195.0625 295.773438 C 194.917969 295.761719 194.777344 295.757812 194.636719 295.757812 Z M 194.636719 295.757812 " fill-opacity="1" fill-rule="nonzero"/><path fill="#ffd080" d="M 213.800781 265.761719 C 214.261719 266.050781 214.691406 266.386719 215.089844 266.761719 C 215.484375 267.140625 215.839844 267.550781 216.152344 268 C 216.46875 268.449219 216.734375 268.921875 216.957031 269.425781 C 217.179688 269.929688 217.347656 270.449219 217.464844 270.988281 C 217.585938 271.523438 217.648438 272.070312 217.660156 272.621094 C 217.671875 273.171875 217.628906 273.722656 217.535156 274.265625 C 217.441406 274.8125 217.292969 275.34375 217.09375 275.859375 C 216.894531 276.378906 216.648438 276.871094 216.351562 277.339844 C 216.058594 277.808594 215.71875 278.246094 215.339844 278.652344 C 214.960938 279.054688 214.546875 279.417969 214.09375 279.742188 C 213.644531 280.0625 213.171875 280.339844 212.667969 280.566406 C 212.164062 280.796875 211.644531 280.976562 211.109375 281.101562 C 210.574219 281.226562 210.03125 281.300781 209.484375 281.320312 C 208.933594 281.339844 208.390625 281.304688 207.851562 281.214844 C 207.308594 281.125 206.785156 280.984375 206.273438 280.792969 C 205.761719 280.597656 205.273438 280.355469 204.8125 280.066406 C 204.347656 279.773438 203.917969 279.441406 203.523438 279.066406 C 203.128906 278.6875 202.773438 278.277344 202.457031 277.828125 C 202.144531 277.378906 201.875 276.902344 201.65625 276.402344 C 201.433594 275.898438 201.265625 275.378906 201.144531 274.839844 C 201.027344 274.304688 200.960938 273.757812 200.949219 273.207031 C 200.9375 272.652344 200.980469 272.105469 201.078125 271.558594 C 201.171875 271.015625 201.320312 270.484375 201.519531 269.96875 C 201.71875 269.449219 201.964844 268.957031 202.261719 268.488281 C 202.554688 268.015625 202.890625 267.578125 203.273438 267.175781 C 203.652344 266.773438 204.066406 266.410156 204.515625 266.085938 C 204.964844 265.761719 205.441406 265.488281 205.945312 265.257812 C 206.445312 265.03125 206.964844 264.851562 207.5 264.726562 C 208.035156 264.597656 208.578125 264.527344 209.128906 264.507812 C 209.675781 264.488281 210.222656 264.523438 210.761719 264.609375 C 211.300781 264.699219 211.828125 264.839844 212.339844 265.035156 C 212.851562 265.226562 213.335938 265.46875 213.800781 265.761719 Z M 213.800781 265.761719 " fill-opacity="1" fill-rule="nonzero"/><path fill="#43105f" d="M 209.226562 283.246094 C 209 283.246094 208.773438 283.238281 208.542969 283.222656 C 205.808594 283.042969 203.316406 281.800781 201.527344 279.734375 C 199.71875 277.640625 198.84375 274.960938 199.0625 272.183594 C 199.511719 266.5 204.472656 262.179688 210.125 262.554688 C 212.859375 262.734375 215.351562 263.976562 217.140625 266.046875 C 218.949219 268.136719 219.824219 270.816406 219.605469 273.59375 C 219.171875 279.050781 214.589844 283.246094 209.226562 283.246094 Z M 209.441406 266.421875 C 206.082031 266.421875 203.210938 269.0625 202.941406 272.488281 C 202.804688 274.222656 203.347656 275.890625 204.46875 277.1875 C 205.574219 278.464844 207.109375 279.230469 208.800781 279.34375 C 212.335938 279.578125 215.445312 276.863281 215.726562 273.289062 L 217.664062 273.441406 L 215.726562 273.289062 C 215.863281 271.554688 215.320312 269.886719 214.199219 268.589844 C 213.09375 267.3125 211.554688 266.546875 209.867188 266.4375 C 209.722656 266.425781 209.582031 266.421875 209.441406 266.421875 Z M 209.441406 266.421875 " fill-opacity="1" fill-rule="nonzero"/><path fill="#dc3aa7" d="M 250.636719 267.328125 C 251.097656 267.621094 251.527344 267.953125 251.925781 268.332031 C 252.320312 268.707031 252.675781 269.121094 252.992188 269.570312 C 253.304688 270.015625 253.574219 270.492188 253.792969 270.996094 C 254.015625 271.496094 254.183594 272.019531 254.304688 272.554688 C 254.421875 273.09375 254.488281 273.636719 254.5 274.191406 C 254.511719 274.742188 254.46875 275.289062 254.371094 275.835938 C 254.277344 276.382812 254.128906 276.914062 253.929688 277.429688 C 253.730469 277.949219 253.484375 278.441406 253.1875 278.910156 C 252.894531 279.378906 252.554688 279.816406 252.175781 280.222656 C 251.796875 280.625 251.382812 280.988281 250.933594 281.3125 C 250.484375 281.632812 250.007812 281.910156 249.503906 282.136719 C 249.003906 282.367188 248.484375 282.546875 247.945312 282.671875 C 247.410156 282.796875 246.867188 282.871094 246.320312 282.890625 C 245.773438 282.910156 245.226562 282.875 244.6875 282.785156 C 244.144531 282.699219 243.621094 282.554688 243.109375 282.363281 C 242.597656 282.167969 242.109375 281.925781 241.648438 281.636719 C 241.183594 281.347656 240.757812 281.011719 240.359375 280.636719 C 239.964844 280.257812 239.609375 279.847656 239.292969 279.398438 C 238.980469 278.949219 238.710938 278.472656 238.492188 277.972656 C 238.269531 277.46875 238.101562 276.949219 237.980469 276.410156 C 237.863281 275.875 237.796875 275.328125 237.785156 274.777344 C 237.773438 274.222656 237.816406 273.675781 237.910156 273.128906 C 238.007812 272.585938 238.15625 272.054688 238.355469 271.535156 C 238.554688 271.019531 238.800781 270.527344 239.09375 270.054688 C 239.390625 269.585938 239.726562 269.148438 240.109375 268.746094 C 240.488281 268.34375 240.902344 267.976562 241.351562 267.65625 C 241.800781 267.332031 242.277344 267.058594 242.78125 266.828125 C 243.28125 266.597656 243.800781 266.421875 244.335938 266.292969 C 244.871094 266.167969 245.414062 266.09375 245.964844 266.074219 C 246.511719 266.058594 247.058594 266.089844 247.597656 266.179688 C 248.136719 266.269531 248.664062 266.410156 249.175781 266.605469 C 249.6875 266.796875 250.171875 267.039062 250.636719 267.328125 Z M 250.636719 267.328125 " fill-opacity="1" fill-rule="nonzero"/><path fill="#43105f" d="M 245.996094 284.863281 C 245.773438 284.863281 245.542969 284.855469 245.316406 284.839844 C 242.578125 284.660156 240.085938 283.417969 238.296875 281.351562 C 236.492188 279.257812 235.617188 276.578125 235.835938 273.800781 C 236.285156 268.117188 241.246094 263.796875 246.894531 264.171875 C 249.632812 264.351562 252.125 265.59375 253.914062 267.664062 C 255.71875 269.753906 256.59375 272.433594 256.375 275.210938 L 254.4375 275.058594 L 256.375 275.210938 C 255.945312 280.667969 251.359375 284.863281 245.996094 284.863281 Z M 246.210938 268.039062 C 242.855469 268.039062 239.984375 270.679688 239.714844 274.105469 C 239.578125 275.839844 240.121094 277.507812 241.242188 278.804688 C 242.34375 280.082031 243.882812 280.847656 245.570312 280.960938 C 249.109375 281.195312 252.214844 278.480469 252.496094 274.90625 C 252.632812 273.171875 252.09375 271.503906 250.96875 270.207031 C 249.867188 268.929688 248.328125 268.164062 246.640625 268.054688 C 246.496094 268.042969 246.355469 268.039062 246.210938 268.039062 Z M 246.210938 268.039062 " fill-opacity="1" fill-rule="nonzero"/><path fill="#ffd080" d="M 270.132812 224.785156 C 270.59375 225.074219 271.023438 225.410156 271.421875 225.785156 C 271.816406 226.164062 272.171875 226.574219 272.484375 227.023438 C 272.800781 227.472656 273.070312 227.949219 273.289062 228.449219 C 273.511719 228.953125 273.679688 229.472656 273.796875 230.011719 C 273.917969 230.546875 273.980469 231.09375 273.992188 231.644531 C 274.003906 232.195312 273.964844 232.746094 273.867188 233.289062 C 273.773438 233.835938 273.625 234.367188 273.425781 234.882812 C 273.226562 235.402344 272.980469 235.894531 272.683594 236.363281 C 272.390625 236.835938 272.050781 237.269531 271.671875 237.675781 C 271.292969 238.078125 270.878906 238.441406 270.429688 238.765625 C 269.976562 239.085938 269.503906 239.363281 269 239.59375 C 268.496094 239.820312 267.976562 240 267.441406 240.125 C 266.90625 240.253906 266.363281 240.324219 265.816406 240.34375 C 265.265625 240.363281 264.722656 240.328125 264.183594 240.238281 C 263.640625 240.152344 263.117188 240.011719 262.605469 239.816406 C 262.09375 239.621094 261.605469 239.378906 261.144531 239.089844 C 260.679688 238.800781 260.25 238.464844 259.855469 238.089844 C 259.460938 237.710938 259.105469 237.300781 258.789062 236.851562 C 258.476562 236.402344 258.207031 235.929688 257.988281 235.425781 C 257.765625 234.921875 257.597656 234.402344 257.476562 233.863281 C 257.359375 233.328125 257.292969 232.78125 257.28125 232.230469 C 257.269531 231.679688 257.3125 231.128906 257.410156 230.585938 C 257.503906 230.039062 257.652344 229.507812 257.851562 228.992188 C 258.050781 228.472656 258.296875 227.980469 258.59375 227.511719 C 258.886719 227.039062 259.222656 226.605469 259.605469 226.199219 C 259.984375 225.796875 260.398438 225.433594 260.847656 225.109375 C 261.296875 224.789062 261.773438 224.511719 262.277344 224.28125 C 262.777344 224.054688 263.296875 223.875 263.832031 223.75 C 264.371094 223.625 264.910156 223.550781 265.460938 223.53125 C 266.007812 223.511719 266.554688 223.546875 267.09375 223.636719 C 267.632812 223.722656 268.160156 223.867188 268.671875 224.058594 C 269.183594 224.253906 269.667969 224.496094 270.132812 224.785156 Z M 270.132812 224.785156 " fill-opacity="1" fill-rule="nonzero"/><path fill="#43105f" d="M 265.550781 242.257812 C 265.324219 242.257812 265.097656 242.25 264.867188 242.234375 C 262.132812 242.050781 259.640625 240.8125 257.851562 238.742188 C 256.042969 236.652344 255.171875 233.972656 255.390625 231.191406 C 255.835938 225.507812 260.796875 221.191406 266.449219 221.5625 C 269.183594 221.746094 271.675781 222.984375 273.46875 225.054688 C 275.273438 227.144531 276.148438 229.828125 275.929688 232.605469 C 275.5 238.058594 270.914062 242.257812 265.550781 242.257812 Z M 265.765625 225.429688 C 262.410156 225.429688 259.539062 228.070312 259.265625 231.5 C 259.132812 233.230469 259.671875 234.898438 260.792969 236.199219 C 261.898438 237.472656 263.4375 238.238281 265.125 238.351562 C 268.660156 238.589844 271.769531 235.871094 272.050781 232.296875 C 272.1875 230.566406 271.644531 228.898438 270.523438 227.601562 C 269.421875 226.324219 267.882812 225.558594 266.191406 225.445312 C 266.050781 225.4375 265.90625 225.429688 265.765625 225.429688 Z M 265.765625 225.429688 " fill-opacity="1" fill-rule="nonzero"/><path fill="#43105f" d="M 240.242188 224.882812 L 195.558594 224.882812 C 194.484375 224.882812 193.613281 224.011719 193.613281 222.9375 C 193.613281 221.863281 194.484375 220.992188 195.558594 220.992188 L 240.242188 220.992188 C 241.316406 220.992188 242.1875 221.863281 242.1875 222.9375 C 242.1875 224.011719 241.316406 224.882812 240.242188 224.882812 Z M 240.242188 224.882812 " fill-opacity="1" fill-rule="nonzero"/><path fill="#43105f" d="M 240.242188 242.714844 L 195.558594 242.714844 C 194.484375 242.714844 193.613281 241.84375 193.613281 240.769531 C 193.613281 239.695312 194.484375 238.824219 195.558594 238.824219 L 240.242188 238.824219 C 241.316406 238.824219 242.1875 239.695312 242.1875 240.769531 C 242.1875 241.84375 241.316406 242.714844 240.242188 242.714844 Z M 240.242188 242.714844 " fill-opacity="1" fill-rule="nonzero"/><path fill="#ffd080" d="M 293.808594 221.664062 L 316.4375 221.664062 L 316.4375 268.949219 L 293.808594 268.949219 Z M 293.808594 221.664062 " fill-opacity="1" fill-rule="nonzero"/><path fill="#43105f" d="M 316.4375 270.894531 L 293.808594 270.894531 C 292.734375 270.894531 291.863281 270.023438 291.863281 268.949219 L 291.863281 221.664062 C 291.863281 220.589844 292.734375 219.71875 293.808594 219.71875 L 316.4375 219.71875 C 317.511719 219.71875 318.382812 220.589844 318.382812 221.664062 L 318.382812 268.949219 C 318.382812 270.023438 317.511719 270.894531 316.4375 270.894531 Z M 295.753906 267.003906 L 314.492188 267.003906 L 314.492188 223.609375 L 295.753906 223.609375 Z M 295.753906 267.003906 " fill-opacity="1" fill-rule="nonzero"/><path fill="#dc3aa7" d="M 280.5625 336.382812 L 266.871094 322.691406 L 235.90625 353.652344 C 232.128906 357.433594 232.128906 363.566406 235.90625 367.347656 C 239.6875 371.125 245.820312 371.125 249.601562 367.347656 Z M 280.5625 336.382812 " fill-opacity="1" fill-rule="nonzero"/><path fill="#43105f" d="M 242.753906 372.121094 C 239.777344 372.121094 236.800781 370.988281 234.53125 368.722656 C 232.335938 366.523438 231.128906 363.605469 231.128906 360.5 C 231.128906 357.394531 232.335938 354.472656 234.53125 352.277344 L 265.492188 321.316406 C 266.253906 320.558594 267.484375 320.558594 268.246094 321.316406 L 281.9375 335.007812 C 282.695312 335.769531 282.695312 337 281.9375 337.757812 L 250.976562 368.722656 C 248.710938 370.988281 245.730469 372.121094 242.753906 372.121094 Z M 266.867188 325.441406 L 237.285156 355.027344 C 235.820312 356.488281 235.015625 358.433594 235.015625 360.5 C 235.015625 362.566406 235.820312 364.507812 237.285156 365.96875 C 240.300781 368.988281 245.207031 368.988281 248.226562 365.96875 L 277.8125 336.382812 Z M 266.867188 325.441406 " fill-opacity="1" fill-rule="nonzero"/><path fill="#ffffff" d="M 320.335938 317.890625 C 320.335938 319.035156 320.277344 320.175781 320.167969 321.316406 C 320.054688 322.457031 319.886719 323.589844 319.664062 324.710938 C 319.4375 325.835938 319.160156 326.945312 318.828125 328.039062 C 318.496094 329.136719 318.109375 330.214844 317.671875 331.273438 C 317.234375 332.332031 316.746094 333.363281 316.207031 334.375 C 315.664062 335.382812 315.078125 336.367188 314.441406 337.316406 C 313.804688 338.269531 313.125 339.1875 312.398438 340.074219 C 311.671875 340.960938 310.902344 341.808594 310.09375 342.617188 C 309.28125 343.425781 308.433594 344.195312 307.550781 344.921875 C 306.664062 345.648438 305.746094 346.332031 304.792969 346.964844 C 303.839844 347.601562 302.859375 348.191406 301.847656 348.730469 C 300.839844 349.269531 299.804688 349.761719 298.746094 350.199219 C 297.6875 350.636719 296.613281 351.023438 295.515625 351.355469 C 294.417969 351.6875 293.308594 351.964844 292.1875 352.1875 C 291.0625 352.410156 289.929688 352.578125 288.792969 352.691406 C 287.652344 352.804688 286.507812 352.859375 285.363281 352.859375 C 284.21875 352.859375 283.074219 352.804688 281.9375 352.691406 C 280.796875 352.578125 279.664062 352.410156 278.542969 352.1875 C 277.417969 351.964844 276.308594 351.6875 275.210938 351.355469 C 274.117188 351.023438 273.039062 350.636719 271.980469 350.199219 C 270.921875 349.761719 269.890625 349.269531 268.878906 348.730469 C 267.867188 348.191406 266.886719 347.601562 265.933594 346.964844 C 264.984375 346.332031 264.0625 345.648438 263.179688 344.921875 C 262.292969 344.195312 261.445312 343.425781 260.636719 342.617188 C 259.824219 341.808594 259.058594 340.960938 258.332031 340.074219 C 257.605469 339.1875 256.921875 338.269531 256.285156 337.316406 C 255.652344 336.367188 255.0625 335.382812 254.523438 334.375 C 253.984375 333.363281 253.492188 332.332031 253.054688 331.273438 C 252.617188 330.214844 252.230469 329.136719 251.898438 328.039062 C 251.566406 326.945312 251.289062 325.835938 251.066406 324.710938 C 250.84375 323.589844 250.675781 322.457031 250.5625 321.316406 C 250.449219 320.175781 250.394531 319.035156 250.394531 317.890625 C 250.394531 316.746094 250.449219 315.601562 250.5625 314.460938 C 250.675781 313.320312 250.84375 312.191406 251.066406 311.066406 C 251.289062 309.945312 251.566406 308.835938 251.898438 307.738281 C 252.230469 306.640625 252.617188 305.566406 253.054688 304.507812 C 253.492188 303.449219 253.984375 302.414062 254.523438 301.40625 C 255.0625 300.394531 255.652344 299.414062 256.285156 298.460938 C 256.921875 297.507812 257.605469 296.589844 258.332031 295.703125 C 259.058594 294.820312 259.828125 293.972656 260.636719 293.160156 C 261.445312 292.351562 262.292969 291.582031 263.179688 290.855469 C 264.0625 290.128906 264.984375 289.449219 265.933594 288.8125 C 266.886719 288.175781 267.867188 287.589844 268.878906 287.046875 C 269.890625 286.507812 270.921875 286.019531 271.980469 285.582031 C 273.039062 285.144531 274.117188 284.757812 275.210938 284.425781 C 276.308594 284.09375 277.417969 283.8125 278.542969 283.589844 C 279.664062 283.367188 280.796875 283.199219 281.9375 283.085938 C 283.074219 282.976562 284.21875 282.917969 285.363281 282.917969 C 286.507812 282.917969 287.652344 282.976562 288.792969 283.085938 C 289.929688 283.199219 291.0625 283.367188 292.1875 283.589844 C 293.308594 283.8125 294.417969 284.09375 295.515625 284.425781 C 296.613281 284.757812 297.6875 285.144531 298.746094 285.582031 C 299.804688 286.019531 300.839844 286.507812 301.847656 287.046875 C 302.859375 287.589844 303.839844 288.175781 304.792969 288.8125 C 305.746094 289.449219 306.664062 290.128906 307.550781 290.855469 C 308.433594 291.582031 309.28125 292.351562 310.09375 293.160156 C 310.902344 293.972656 311.671875 294.820312 312.398438 295.703125 C 313.125 296.589844 313.804688 297.507812 314.441406 298.460938 C 315.078125 299.414062 315.664062 300.394531 316.207031 301.40625 C 316.746094 302.414062 317.234375 303.449219 317.671875 304.507812 C 318.109375 305.566406 318.496094 306.640625 318.828125 307.738281 C 319.160156 308.835938 319.4375 309.945312 319.664062 311.066406 C 319.886719 312.191406 320.054688 313.320312 320.167969 314.460938 C 320.277344 315.601562 320.335938 316.746094 320.335938 317.890625 Z M 320.335938 317.890625 " fill-opacity="1" fill-rule="nonzero"/><path fill="#43105f" d="M 285.363281 354.804688 C 275.503906 354.804688 266.234375 350.964844 259.261719 343.992188 C 252.289062 337.019531 248.449219 327.75 248.449219 317.890625 C 248.449219 308.027344 252.289062 298.757812 259.261719 291.785156 C 266.234375 284.8125 275.503906 280.972656 285.363281 280.972656 C 295.226562 280.972656 304.496094 284.8125 311.46875 291.785156 C 318.441406 298.757812 322.28125 308.027344 322.28125 317.890625 C 322.28125 327.75 318.441406 337.019531 311.46875 343.992188 C 304.496094 350.964844 295.226562 354.804688 285.363281 354.804688 Z M 285.363281 284.863281 C 276.542969 284.863281 268.25 288.300781 262.011719 294.535156 C 255.773438 300.773438 252.339844 309.066406 252.339844 317.890625 C 252.339844 326.710938 255.773438 335.003906 262.011719 341.242188 C 268.25 347.480469 276.542969 350.914062 285.363281 350.914062 C 294.183594 350.914062 302.480469 347.480469 308.714844 341.242188 C 314.953125 335.003906 318.390625 326.710938 318.390625 317.890625 C 318.390625 309.066406 314.953125 300.773438 308.714844 294.535156 C 302.480469 288.300781 294.1875 284.863281 285.363281 284.863281 Z M 285.363281 284.863281 " fill-opacity="1" fill-rule="nonzero"/><path fill="#ffffff" d="M 203.886719 31.410156 L 306.117188 31.410156 C 311.386719 31.410156 315.660156 35.683594 315.660156 40.957031 L 315.660156 171.011719 L 213.433594 171.011719 L 213.433594 44.296875 Z M 203.886719 31.410156 " fill-opacity="1" fill-rule="nonzero"/><path fill="#43105f" d="M 315.660156 172.957031 L 213.433594 172.957031 C 212.359375 172.957031 211.488281 172.085938 211.488281 171.011719 L 211.488281 44.296875 C 211.488281 43.222656 212.359375 42.351562 213.433594 42.351562 C 214.507812 42.351562 215.378906 43.222656 215.378906 44.296875 L 215.378906 169.066406 L 313.714844 169.066406 L 313.714844 40.957031 C 313.714844 36.765625 310.308594 33.355469 306.117188 33.355469 L 203.886719 33.355469 C 202.8125 33.355469 201.941406 32.484375 201.941406 31.410156 C 201.941406 30.335938 202.8125 29.464844 203.886719 29.464844 L 306.117188 29.464844 C 312.453125 29.464844 317.605469 34.621094 317.605469 40.957031 L 317.605469 171.011719 C 317.605469 172.085938 316.734375 172.957031 315.660156 172.957031 Z M 315.660156 172.957031 " fill-opacity="1" fill-rule="nonzero"/><path fill="#ffffff" d="M 213.433594 65.425781 L 213.433594 40.957031 C 213.433594 35.683594 209.160156 31.410156 203.886719 31.410156 C 198.613281 31.410156 194.339844 35.683594 194.339844 40.957031 L 194.339844 65.425781 Z M 213.433594 65.425781 " fill-opacity="1" fill-rule="nonzero"/><path fill="#43105f" d="M 213.433594 67.371094 L 194.339844 67.371094 C 193.265625 67.371094 192.394531 66.5 192.394531 65.425781 L 192.394531 40.957031 C 192.394531 34.621094 197.550781 29.464844 203.886719 29.464844 C 210.222656 29.464844 215.378906 34.621094 215.378906 40.957031 L 215.378906 65.425781 C 215.378906 66.5 214.507812 67.371094 213.433594 67.371094 Z M 196.285156 63.480469 L 211.488281 63.480469 L 211.488281 40.957031 C 211.488281 36.765625 208.078125 33.355469 203.886719 33.355469 C 199.695312 33.355469 196.285156 36.765625 196.285156 40.957031 Z M 196.285156 63.480469 " fill-opacity="1" fill-rule="nonzero"/><path fill="#43105f" d="M 303.71875 128.617188 L 225.378906 128.617188 C 224.304688 128.617188 223.433594 127.746094 223.433594 126.671875 C 223.433594 125.597656 224.304688 124.726562 225.378906 124.726562 L 303.71875 124.726562 C 304.792969 124.726562 305.664062 125.597656 305.664062 126.671875 C 305.664062 127.746094 304.792969 128.617188 303.71875 128.617188 Z M 303.71875 128.617188 " fill-opacity="1" fill-rule="nonzero"/><path fill="#43105f" d="M 303.71875 150.21875 L 225.378906 150.21875 C 224.304688 150.21875 223.433594 149.347656 223.433594 148.273438 C 223.433594 147.199219 224.304688 146.328125 225.378906 146.328125 L 303.71875 146.328125 C 304.792969 146.328125 305.664062 147.199219 305.664062 148.273438 C 305.664062 149.347656 304.792969 150.21875 303.71875 150.21875 Z M 303.71875 150.21875 " fill-opacity="1" fill-rule="nonzero"/><path fill="#43105f" d="M 262.382812 106.628906 L 225.378906 106.628906 C 224.304688 106.628906 223.433594 105.757812 223.433594 104.683594 C 223.433594 103.609375 224.304688 102.738281 225.378906 102.738281 L 262.382812 102.738281 C 263.457031 102.738281 264.328125 103.609375 264.328125 104.683594 C 264.328125 105.757812 263.457031 106.628906 262.382812 106.628906 Z M 262.382812 106.628906 " fill-opacity="1" fill-rule="nonzero"/><path fill="#43105f" d="M 303.71875 84.640625 L 225.378906 84.640625 C 224.304688 84.640625 223.433594 83.769531 223.433594 82.695312 C 223.433594 81.621094 224.304688 80.75 225.378906 80.75 L 303.71875 80.75 C 304.792969 80.75 305.664062 81.621094 305.664062 82.695312 C 305.664062 83.769531 304.792969 84.640625 303.71875 84.640625 Z M 303.71875 84.640625 " fill-opacity="1" fill-rule="nonzero"/><path fill="#ffffff" d="M 284.550781 66.003906 L 244.542969 66.003906 C 241.027344 66.003906 238.152344 63.128906 238.152344 59.613281 L 238.152344 54.125 C 238.152344 50.609375 241.027344 47.730469 244.542969 47.730469 L 284.550781 47.730469 C 288.066406 47.730469 290.941406 50.609375 290.941406 54.125 L 290.941406 59.613281 C 290.945312 63.128906 288.066406 66.003906 284.550781 66.003906 Z M 284.550781 66.003906 " fill-opacity="1" fill-rule="nonzero"/><path fill="#43105f" d="M 284.550781 67.949219 L 244.542969 67.949219 C 239.945312 67.949219 236.207031 64.207031 236.207031 59.613281 L 236.207031 54.121094 C 236.207031 49.527344 239.945312 45.785156 244.542969 45.785156 L 284.550781 45.785156 C 289.148438 45.785156 292.886719 49.527344 292.886719 54.121094 L 292.886719 59.613281 C 292.886719 64.207031 289.148438 67.949219 284.550781 67.949219 Z M 244.542969 49.675781 C 242.089844 49.675781 240.097656 51.671875 240.097656 54.121094 L 240.097656 59.613281 C 240.097656 62.0625 242.089844 64.058594 244.542969 64.058594 L 284.550781 64.058594 C 287.003906 64.058594 289 62.0625 289 59.613281 L 289 54.121094 C 289 51.671875 287.003906 49.675781 284.550781 49.675781 Z M 244.542969 49.675781 " fill-opacity="1" fill-rule="nonzero"/><path fill="#ffd080" d="M 228.410156 144.769531 L 217.992188 133.453125 C 215.714844 130.976562 212.5 129.566406 209.132812 129.566406 L 155.28125 129.566406 C 150.714844 129.566406 147.015625 125.863281 147.015625 121.300781 L 147.015625 69.390625 C 147.015625 64.824219 150.714844 61.125 155.28125 61.125 L 223.71875 61.125 C 228.285156 61.125 231.984375 64.824219 231.984375 69.390625 L 231.984375 143.375 C 231.984375 145.25 229.679688 146.152344 228.410156 144.769531 Z M 228.410156 144.769531 " fill-opacity="1" fill-rule="nonzero"/><path fill="#43105f" d="M 229.914062 147.382812 C 228.820312 147.382812 227.753906 146.933594 226.976562 146.085938 L 216.5625 134.769531 C 214.65625 132.699219 211.949219 131.511719 209.132812 131.511719 L 155.28125 131.511719 C 149.652344 131.511719 145.070312 126.929688 145.070312 121.300781 L 145.070312 69.390625 C 145.070312 63.761719 149.652344 59.179688 155.28125 59.179688 L 223.71875 59.179688 C 229.347656 59.179688 233.929688 63.761719 233.929688 69.390625 L 233.929688 143.375 C 233.929688 145.039062 232.929688 146.503906 231.378906 147.105469 C 230.902344 147.292969 230.40625 147.382812 229.914062 147.382812 Z M 229.839844 143.453125 C 229.871094 143.488281 229.894531 143.511719 229.964844 143.480469 C 230.039062 143.453125 230.039062 143.421875 230.039062 143.375 L 230.039062 69.390625 C 230.039062 65.90625 227.203125 63.070312 223.71875 63.070312 L 155.28125 63.070312 C 151.796875 63.070312 148.960938 65.90625 148.960938 69.390625 L 148.960938 121.300781 C 148.960938 124.785156 151.796875 127.621094 155.28125 127.621094 L 209.132812 127.621094 C 213.03125 127.621094 216.785156 129.265625 219.425781 132.136719 Z M 229.839844 143.453125 " fill-opacity="1" fill-rule="nonzero"/><path fill="#43105f" d="M 189.371094 109.613281 C 188.296875 109.613281 187.425781 108.746094 187.425781 107.667969 L 187.425781 105.605469 C 187.425781 101.40625 189.378906 97.425781 192.652344 94.953125 C 197.3125 91.4375 200.09375 87.972656 200.09375 85.691406 C 200.09375 82.746094 198.925781 80.003906 196.808594 77.960938 C 194.6875 75.921875 191.898438 74.859375 188.949219 74.972656 C 183.597656 75.175781 179.085938 79.511719 178.675781 84.839844 C 178.550781 86.507812 178.792969 88.125 179.398438 89.648438 C 179.796875 90.648438 179.308594 91.777344 178.308594 92.175781 C 177.3125 92.574219 176.179688 92.085938 175.785156 91.085938 C 174.957031 89.007812 174.625 86.804688 174.800781 84.542969 C 175.355469 77.273438 181.503906 71.363281 188.800781 71.085938 C 192.816406 70.933594 196.617188 72.378906 199.507812 75.160156 C 202.394531 77.941406 203.984375 81.679688 203.984375 85.6875 C 203.984375 90.304688 199.097656 94.960938 194.996094 98.058594 C 192.691406 99.800781 191.316406 102.621094 191.316406 105.605469 L 191.316406 107.667969 C 191.316406 108.746094 190.445312 109.613281 189.371094 109.613281 Z M 189.371094 109.613281 " fill-opacity="1" fill-rule="nonzero"/><path fill="#43105f" d="M 189.371094 121.039062 C 187.664062 121.039062 186.273438 119.648438 186.273438 117.941406 C 186.273438 116.234375 187.664062 114.84375 189.371094 114.84375 C 191.078125 114.84375 192.46875 116.234375 192.46875 117.941406 C 192.46875 119.648438 191.078125 121.039062 189.371094 121.039062 Z M 189.371094 117.148438 C 188.933594 117.148438 188.578125 117.503906 188.578125 117.941406 C 188.578125 118.378906 188.933594 118.734375 189.371094 118.734375 C 189.808594 118.734375 190.164062 118.378906 190.164062 117.941406 C 190.164062 117.503906 189.808594 117.148438 189.371094 117.148438 Z M 189.371094 117.148438 " fill-opacity="1" fill-rule="nonzero"/><path fill="#dc3aa7" d="M 343.78125 98.675781 C 344.570312 99.464844 345.316406 100.292969 346.027344 101.15625 C 346.734375 102.015625 347.398438 102.914062 348.019531 103.839844 C 348.636719 104.769531 349.210938 105.722656 349.738281 106.707031 C 350.261719 107.691406 350.738281 108.699219 351.167969 109.730469 C 351.59375 110.761719 351.96875 111.8125 352.292969 112.878906 C 352.617188 113.949219 352.886719 115.027344 353.105469 116.125 C 353.324219 117.21875 353.488281 118.320312 353.597656 119.429688 C 353.707031 120.542969 353.761719 121.65625 353.761719 122.769531 C 353.761719 123.886719 353.707031 125 353.597656 126.109375 C 353.488281 127.222656 353.324219 128.324219 353.105469 129.417969 C 352.886719 130.511719 352.617188 131.59375 352.292969 132.660156 C 351.96875 133.730469 351.59375 134.777344 351.167969 135.808594 C 350.738281 136.839844 350.261719 137.847656 349.738281 138.832031 C 349.210938 139.816406 348.636719 140.773438 348.019531 141.699219 C 347.398438 142.628906 346.734375 143.523438 346.027344 144.386719 C 345.320312 145.25 344.570312 146.074219 343.78125 146.863281 C 342.992188 147.652344 342.167969 148.402344 341.304688 149.109375 C 340.441406 149.816406 339.546875 150.480469 338.617188 151.101562 C 337.691406 151.722656 336.734375 152.292969 335.75 152.820312 C 334.765625 153.347656 333.757812 153.824219 332.726562 154.25 C 331.695312 154.675781 330.648438 155.054688 329.578125 155.378906 C 328.511719 155.699219 327.429688 155.972656 326.335938 156.191406 C 325.242188 156.40625 324.136719 156.570312 323.027344 156.679688 C 321.917969 156.789062 320.804688 156.84375 319.6875 156.84375 C 318.570312 156.84375 317.457031 156.789062 316.347656 156.679688 C 315.238281 156.570312 314.136719 156.40625 313.039062 156.191406 C 311.945312 155.972656 310.863281 155.703125 309.796875 155.378906 C 308.730469 155.054688 307.679688 154.679688 306.648438 154.25 C 305.617188 153.824219 304.609375 153.347656 303.625 152.820312 C 302.640625 152.296875 301.683594 151.722656 300.757812 151.101562 C 299.828125 150.484375 298.933594 149.820312 298.070312 149.109375 C 297.210938 148.402344 296.382812 147.652344 295.59375 146.863281 C 294.804688 146.074219 294.054688 145.25 293.347656 144.386719 C 292.640625 143.523438 291.976562 142.628906 291.355469 141.703125 C 290.738281 140.773438 290.164062 139.816406 289.636719 138.832031 C 289.109375 137.847656 288.632812 136.84375 288.207031 135.8125 C 287.78125 134.78125 287.40625 133.730469 287.082031 132.664062 C 286.757812 131.59375 286.484375 130.511719 286.269531 129.417969 C 286.050781 128.324219 285.886719 127.222656 285.777344 126.113281 C 285.667969 125 285.613281 123.886719 285.613281 122.773438 C 285.613281 121.65625 285.667969 120.542969 285.777344 119.433594 C 285.886719 118.320312 286.050781 117.21875 286.269531 116.125 C 286.484375 115.03125 286.757812 113.949219 287.082031 112.878906 C 287.40625 111.8125 287.78125 110.761719 288.207031 109.730469 C 288.632812 108.703125 289.109375 107.695312 289.636719 106.710938 C 290.164062 105.726562 290.734375 104.769531 291.355469 103.839844 C 291.976562 102.914062 292.640625 102.019531 293.347656 101.15625 C 294.054688 100.292969 294.804688 99.46875 295.59375 98.679688 C 296.382812 97.890625 297.207031 97.140625 298.070312 96.433594 C 298.933594 95.722656 299.828125 95.058594 300.757812 94.441406 C 301.683594 93.820312 302.640625 93.246094 303.625 92.722656 C 304.609375 92.195312 305.617188 91.71875 306.648438 91.292969 C 307.679688 90.863281 308.726562 90.488281 309.796875 90.164062 C 310.863281 89.839844 311.945312 89.570312 313.039062 89.351562 C 314.132812 89.136719 315.234375 88.972656 316.347656 88.863281 C 317.457031 88.753906 318.570312 88.699219 319.6875 88.699219 C 320.800781 88.699219 321.914062 88.753906 323.027344 88.863281 C 324.136719 88.972656 325.238281 89.132812 326.332031 89.351562 C 327.429688 89.570312 328.507812 89.839844 329.578125 90.164062 C 330.644531 90.488281 331.695312 90.863281 332.726562 91.292969 C 333.757812 91.71875 334.765625 92.195312 335.75 92.722656 C 336.734375 93.246094 337.6875 93.820312 338.617188 94.441406 C 339.542969 95.058594 340.441406 95.722656 341.300781 96.433594 C 342.164062 97.140625 342.992188 97.886719 343.78125 98.675781 Z M 343.78125 98.675781 " fill-opacity="1" fill-rule="nonzero"/><path fill="#43105f" d="M 319.695312 158.789062 C 299.835938 158.789062 283.679688 142.628906 283.679688 122.769531 C 283.679688 102.90625 299.835938 86.75 319.695312 86.75 C 339.558594 86.75 355.714844 102.90625 355.714844 122.769531 C 355.714844 142.628906 339.558594 158.789062 319.695312 158.789062 Z M 319.695312 90.640625 C 301.980469 90.640625 287.570312 105.054688 287.570312 122.769531 C 287.570312 140.484375 301.980469 154.898438 319.695312 154.898438 C 337.414062 154.898438 351.824219 140.484375 351.824219 122.769531 C 351.824219 105.054688 337.414062 90.640625 319.695312 90.640625 Z M 319.695312 90.640625 " fill-opacity="1" fill-rule="nonzero"/><path fill="#43105f" d="M 314.476562 137.359375 C 313.960938 137.359375 313.464844 137.15625 313.101562 136.792969 L 300.453125 124.144531 C 299.691406 123.382812 299.691406 122.152344 300.453125 121.394531 C 301.210938 120.632812 302.445312 120.632812 303.203125 121.394531 L 314.476562 132.664062 L 338.394531 108.746094 C 339.15625 107.984375 340.386719 107.984375 341.144531 108.746094 C 341.90625 109.503906 341.90625 110.738281 341.144531 111.496094 L 315.851562 136.792969 C 315.488281 137.15625 314.992188 137.359375 314.476562 137.359375 Z M 314.476562 137.359375 " fill-opacity="1" fill-rule="nonzero"/><path fill="#ffd080" d="M 127.78125 285.085938 L 107.921875 285.085938 C 109.6875 285.085938 111.28125 284.378906 112.441406 283.21875 C 113.597656 282.0625 114.304688 280.480469 114.304688 278.714844 C 114.304688 275.183594 111.453125 272.332031 107.921875 272.332031 L 93.4375 272.332031 L 93.4375 246.207031 L 63.421875 246.207031 L 63.421875 272.332031 L 48.9375 272.332031 C 47.171875 272.332031 45.574219 273.050781 44.417969 274.195312 C 43.257812 275.351562 42.550781 276.949219 42.550781 278.714844 C 42.550781 282.230469 45.40625 285.085938 48.9375 285.085938 L 29.078125 285.085938 C 26.125 285.085938 23.457031 286.285156 21.519531 288.222656 C 19.585938 290.140625 18.402344 292.824219 18.402344 295.765625 C 18.402344 301.667969 23.171875 306.441406 29.078125 306.441406 L 127.777344 306.441406 C 130.730469 306.441406 133.402344 305.253906 135.335938 303.320312 C 137.269531 301.386719 138.457031 298.714844 138.457031 295.765625 C 138.457031 289.875 133.683594 285.085938 127.78125 285.085938 Z M 127.78125 285.085938 " fill-opacity="1" fill-rule="nonzero"/><path fill="#43105f" d="M 127.78125 308.386719 L 29.078125 308.386719 C 22.117188 308.386719 16.457031 302.726562 16.457031 295.765625 C 16.457031 292.375 17.765625 289.207031 20.148438 286.839844 C 22.535156 284.457031 25.707031 283.140625 29.078125 283.140625 L 41.886719 283.140625 C 41.078125 281.859375 40.605469 280.339844 40.605469 278.714844 C 40.605469 276.480469 41.472656 274.386719 43.042969 272.820312 C 44.632812 271.246094 46.722656 270.386719 48.9375 270.386719 L 61.476562 270.386719 L 61.476562 246.207031 C 61.476562 245.132812 62.347656 244.261719 63.421875 244.261719 L 93.4375 244.261719 C 94.511719 244.261719 95.382812 245.132812 95.382812 246.207031 L 95.382812 270.386719 L 107.921875 270.386719 C 112.511719 270.386719 116.25 274.121094 116.25 278.714844 C 116.25 280.304688 115.808594 281.828125 114.980469 283.140625 L 127.78125 283.140625 C 134.742188 283.140625 140.402344 288.804688 140.402344 295.765625 C 140.402344 299.144531 139.09375 302.316406 136.710938 304.695312 C 134.332031 307.078125 131.160156 308.386719 127.78125 308.386719 Z M 29.078125 287.03125 C 26.746094 287.03125 24.550781 287.941406 22.894531 289.597656 C 21.25 291.230469 20.34375 293.421875 20.34375 295.765625 C 20.34375 300.578125 24.261719 304.496094 29.078125 304.496094 L 127.78125 304.496094 C 130.121094 304.496094 132.316406 303.589844 133.960938 301.945312 C 135.605469 300.300781 136.511719 298.105469 136.511719 295.765625 C 136.511719 290.949219 132.59375 287.03125 127.777344 287.03125 L 107.917969 287.03125 C 106.84375 287.03125 105.972656 286.160156 105.972656 285.085938 C 105.972656 284.011719 106.84375 283.140625 107.917969 283.140625 C 109.113281 283.140625 110.230469 282.679688 111.066406 281.84375 C 111.898438 281.007812 112.359375 279.898438 112.359375 278.714844 C 112.359375 276.265625 110.367188 274.273438 107.917969 274.273438 L 93.4375 274.273438 C 92.363281 274.273438 91.492188 273.40625 91.492188 272.328125 L 91.492188 248.152344 L 65.367188 248.152344 L 65.367188 272.328125 C 65.367188 273.40625 64.496094 274.273438 63.421875 274.273438 L 48.9375 274.273438 C 47.753906 274.273438 46.636719 274.738281 45.785156 275.578125 C 44.957031 276.40625 44.496094 277.523438 44.496094 278.714844 C 44.496094 281.15625 46.488281 283.140625 48.9375 283.140625 C 50.011719 283.140625 50.882812 284.011719 50.882812 285.085938 C 50.882812 286.160156 50.011719 287.03125 48.9375 287.03125 Z M 29.078125 287.03125 " fill-opacity="1" fill-rule="nonzero"/><path fill="#dc3aa7" d="M 102.300781 236.339844 L 102.300781 240.582031 C 102.300781 246.476562 99.136719 251.253906 95.238281 251.253906 L 61.183594 251.253906 C 57.28125 251.253906 54.117188 246.476562 54.117188 240.582031 L 54.117188 236.339844 Z M 102.300781 236.339844 " fill-opacity="1" fill-rule="nonzero"/><path fill="#43105f" d="M 95.238281 253.199219 L 61.183594 253.199219 C 56.132812 253.199219 52.175781 247.65625 52.175781 240.582031 L 52.175781 236.339844 C 52.175781 235.265625 53.046875 234.394531 54.121094 234.394531 C 55.195312 234.394531 56.066406 235.265625 56.066406 236.339844 L 56.066406 240.582031 C 56.066406 245.3125 58.410156 249.308594 61.183594 249.308594 L 95.238281 249.308594 C 98.011719 249.308594 100.355469 245.3125 100.355469 240.582031 L 100.355469 236.339844 C 100.355469 235.265625 101.226562 234.394531 102.300781 234.394531 C 103.375 234.394531 104.246094 235.265625 104.246094 236.339844 L 104.246094 240.582031 C 104.246094 247.65625 100.289062 253.199219 95.238281 253.199219 Z M 95.238281 253.199219 " fill-opacity="1" fill-rule="nonzero"/><path fill="#dc3aa7" d="M 30.351562 191.925781 C 22.789062 199.484375 18.542969 209.738281 18.542969 220.429688 L 18.542969 242.867188 C 18.542969 249.160156 26.148438 252.308594 30.597656 247.859375 L 46.507812 231.953125 Z M 30.351562 191.925781 " fill-opacity="1" fill-rule="nonzero"/><path fill="#43105f" d="M 25.660156 251.898438 C 24.492188 251.898438 23.308594 251.664062 22.15625 251.1875 C 18.726562 249.769531 16.597656 246.578125 16.597656 242.867188 L 16.597656 220.429688 C 16.597656 214.855469 17.679688 209.414062 19.8125 204.257812 C 21.949219 199.105469 25.03125 194.492188 28.972656 190.550781 C 29.734375 189.789062 30.964844 189.789062 31.726562 190.550781 C 32.484375 191.308594 32.484375 192.539062 31.726562 193.300781 C 24.476562 200.546875 20.488281 210.183594 20.488281 220.429688 L 20.488281 242.867188 C 20.488281 245.386719 22.117188 246.960938 23.644531 247.59375 C 25.171875 248.226562 27.441406 248.269531 29.222656 246.484375 L 45.128906 230.578125 C 45.890625 229.816406 47.121094 229.816406 47.882812 230.578125 C 48.640625 231.335938 48.640625 232.566406 47.882812 233.328125 L 31.972656 249.238281 C 30.226562 250.980469 27.980469 251.898438 25.660156 251.898438 Z M 25.660156 251.898438 " fill-opacity="1" fill-rule="nonzero"/><path fill="#dc3aa7" d="M 126.507812 191.925781 C 134.066406 199.484375 138.3125 209.738281 138.3125 220.429688 L 138.3125 242.867188 C 138.3125 249.160156 130.707031 252.308594 126.257812 247.859375 L 110.351562 231.953125 Z M 126.507812 191.925781 " fill-opacity="1" fill-rule="nonzero"/><path fill="#43105f" d="M 131.195312 251.898438 C 128.875 251.898438 126.628906 250.980469 124.882812 249.238281 L 108.976562 233.328125 C 108.214844 232.566406 108.214844 231.335938 108.976562 230.578125 C 109.734375 229.816406 110.96875 229.816406 111.726562 230.578125 L 127.632812 246.484375 C 129.417969 248.269531 131.683594 248.226562 133.210938 247.59375 C 134.738281 246.960938 136.367188 245.386719 136.367188 242.867188 L 136.367188 220.429688 C 136.367188 210.179688 132.378906 200.546875 125.132812 193.300781 C 124.371094 192.539062 124.371094 191.308594 125.132812 190.546875 C 125.890625 189.789062 127.125 189.789062 127.882812 190.546875 C 131.828125 194.492188 134.910156 199.105469 137.042969 204.257812 C 139.175781 209.414062 140.257812 214.855469 140.257812 220.429688 L 140.257812 242.867188 C 140.257812 246.578125 138.128906 249.769531 134.699219 251.1875 C 133.550781 251.664062 132.363281 251.898438 131.195312 251.898438 Z M 131.195312 251.898438 " fill-opacity="1" fill-rule="nonzero"/><path fill="#ffffff" d="M 102.824219 236.339844 C 105.738281 236.339844 108.453125 234.851562 110.003906 232.386719 C 122.390625 212.695312 129.566406 189.394531 129.566406 164.410156 C 129.566406 128.1875 114.503906 95.488281 90.304688 72.222656 C 83.683594 65.855469 73.261719 65.855469 66.640625 72.222656 C 42.441406 95.488281 27.375 128.1875 27.375 164.410156 C 27.375 189.394531 34.554688 212.695312 46.941406 232.386719 C 48.492188 234.851562 51.207031 236.339844 54.121094 236.339844 Z M 102.824219 236.339844 " fill-opacity="1" fill-rule="nonzero"/><path fill="#43105f" d="M 102.824219 238.285156 L 54.121094 238.285156 C 50.507812 238.285156 47.210938 236.46875 45.296875 233.425781 C 32.300781 212.769531 25.429688 188.902344 25.429688 164.410156 C 25.429688 146.4375 29.039062 129.03125 36.148438 112.679688 C 43.019531 96.890625 52.824219 82.804688 65.292969 70.820312 C 72.683594 63.714844 84.261719 63.714844 91.652344 70.820312 C 104.121094 82.804688 113.925781 96.890625 120.792969 112.679688 C 127.90625 129.03125 131.511719 146.433594 131.511719 164.410156 C 131.511719 188.902344 124.644531 212.769531 111.648438 233.425781 C 109.734375 236.46875 106.433594 238.285156 102.824219 238.285156 Z M 78.472656 69.382812 C 74.699219 69.382812 70.929688 70.796875 67.988281 73.625 C 43.054688 97.59375 29.320312 129.835938 29.320312 164.410156 C 29.320312 188.167969 35.984375 211.316406 48.589844 231.351562 C 49.785156 233.257812 51.855469 234.394531 54.121094 234.394531 L 102.824219 234.394531 C 105.089844 234.394531 107.15625 233.257812 108.355469 231.351562 C 120.960938 211.316406 127.621094 188.167969 127.621094 164.410156 C 127.621094 129.835938 113.890625 97.59375 88.957031 73.625 C 86.015625 70.796875 82.242188 69.382812 78.472656 69.382812 Z M 78.472656 69.382812 " fill-opacity="1" fill-rule="nonzero"/><path fill="#dc3aa7" d="M 90.304688 72.222656 C 83.679688 65.855469 73.261719 65.855469 66.640625 72.222656 C 62.152344 76.539062 57.980469 81.183594 54.15625 86.109375 C 54.292969 86.136719 54.386719 86.152344 54.386719 86.152344 L 102.824219 86.152344 C 98.992188 81.207031 94.808594 76.550781 90.304688 72.222656 Z M 90.304688 72.222656 " fill-opacity="1" fill-rule="nonzero"/><path fill="#43105f" d="M 102.824219 88.097656 L 54.390625 88.097656 C 54.269531 88.097656 54.148438 88.085938 54.027344 88.066406 L 53.800781 88.023438 C 53.132812 87.898438 52.578125 87.4375 52.339844 86.800781 C 52.097656 86.167969 52.203125 85.453125 52.621094 84.917969 C 56.5 79.917969 60.761719 75.175781 65.292969 70.820312 C 72.683594 63.710938 84.261719 63.710938 91.652344 70.820312 C 96.203125 75.191406 100.476562 79.953125 104.359375 84.960938 C 104.816406 85.550781 104.898438 86.34375 104.570312 87.011719 C 104.242188 87.675781 103.566406 88.097656 102.824219 88.097656 Z M 58.171875 84.207031 L 98.773438 84.207031 C 95.699219 80.492188 92.410156 76.945312 88.957031 73.625 C 83.078125 67.972656 73.867188 67.972656 67.988281 73.625 C 64.539062 76.941406 61.246094 80.488281 58.171875 84.207031 Z M 58.171875 84.207031 " fill-opacity="1" fill-rule="nonzero"/><path fill="#ffd080" d="M 91.78125 197.050781 C 92.074219 189.558594 94.660156 181.980469 99.417969 176.210938 C 103.347656 171.445312 105.710938 165.316406 105.710938 158.632812 C 105.710938 142.859375 92.5625 130.1875 76.730469 131.179688 C 62.976562 132.042969 51.863281 143.492188 51.261719 157.394531 C 50.953125 164.441406 53.277344 170.9375 57.324219 175.960938 C 62.210938 182.027344 65.195312 189.230469 65.195312 197.050781 Z M 91.78125 197.050781 " fill-opacity="1" fill-rule="nonzero"/><path fill="#43105f" d="M 91.785156 198.996094 C 91.757812 198.996094 91.734375 198.996094 91.707031 198.996094 C 90.632812 198.953125 89.796875 198.050781 89.839844 196.976562 C 90.160156 188.71875 93.027344 180.902344 97.917969 174.972656 C 101.6875 170.398438 103.765625 164.597656 103.765625 158.632812 C 103.765625 151.554688 100.820312 144.726562 95.6875 139.90625 C 90.5625 135.089844 83.871094 132.683594 76.855469 133.121094 C 64.148438 133.921875 53.761719 144.617188 53.203125 157.476562 C 52.929688 163.757812 54.933594 169.890625 58.839844 174.742188 C 64.269531 181.484375 67.140625 189.199219 67.140625 197.050781 C 67.140625 198.125 66.269531 198.996094 65.195312 198.996094 C 64.121094 198.996094 63.25 198.125 63.25 197.050781 C 63.25 190.097656 60.675781 183.226562 55.808594 177.179688 C 51.308594 171.589844 49.003906 164.535156 49.316406 157.308594 C 49.628906 150.105469 52.59375 143.265625 57.667969 138.042969 C 62.75 132.8125 69.476562 129.6875 76.609375 129.238281 C 84.710938 128.730469 92.433594 131.511719 98.351562 137.070312 C 104.265625 142.625 107.65625 150.484375 107.65625 158.632812 C 107.65625 165.496094 105.261719 172.179688 100.917969 177.445312 C 96.628906 182.648438 94.007812 189.820312 93.726562 197.125 C 93.6875 198.175781 92.824219 198.996094 91.785156 198.996094 Z M 91.785156 198.996094 " fill-opacity="1" fill-rule="nonzero"/><path fill="#ffd080" d="M 78.867188 213.84375 L 78.082031 213.84375 C 70.945312 213.84375 65.160156 208.058594 65.160156 200.921875 C 65.160156 200.871094 65.113281 197.050781 65.160156 197.050781 L 91.78125 197.050781 C 91.832031 197.050781 91.78125 200.871094 91.78125 200.921875 L 91.78125 200.925781 C 91.78125 208.058594 86 213.84375 78.867188 213.84375 Z M 78.867188 213.84375 " fill-opacity="1" fill-rule="nonzero"/><path fill="#43105f" d="M 78.867188 215.789062 L 78.082031 215.789062 C 69.886719 215.789062 63.21875 209.121094 63.21875 200.921875 L 63.214844 200.828125 C 63.210938 200.503906 63.199219 199.570312 63.195312 198.714844 C 63.195312 198.277344 63.195312 197.859375 63.195312 197.550781 C 63.203125 196.855469 63.207031 196.261719 63.777344 195.683594 C 64.144531 195.3125 64.640625 195.105469 65.160156 195.105469 L 91.78125 195.105469 C 92.300781 195.105469 92.800781 195.3125 93.167969 195.683594 C 93.738281 196.261719 93.742188 196.859375 93.75 197.550781 C 93.75 197.859375 93.75 198.277344 93.75 198.714844 C 93.742188 199.570312 93.734375 200.503906 93.730469 200.828125 L 93.726562 200.9375 C 93.726562 209.121094 87.0625 215.789062 78.867188 215.789062 Z M 67.089844 198.996094 C 67.09375 199.460938 67.097656 200.046875 67.105469 200.785156 L 67.105469 200.921875 C 67.105469 206.976562 72.03125 211.898438 78.082031 211.898438 L 78.867188 211.898438 C 84.914062 211.898438 89.835938 206.976562 89.835938 200.925781 L 89.839844 200.78125 C 89.847656 200.046875 89.851562 199.460938 89.855469 198.996094 Z M 67.089844 198.996094 " fill-opacity="1" fill-rule="nonzero"/><path fill="#43105f" d="M 78.472656 198.996094 C 77.398438 198.996094 76.527344 198.125 76.527344 197.050781 L 76.527344 172.777344 C 76.527344 171.703125 77.398438 170.832031 78.472656 170.832031 C 79.546875 170.832031 80.417969 171.703125 80.417969 172.777344 L 80.417969 197.050781 C 80.417969 198.125 79.546875 198.996094 78.472656 198.996094 Z M 78.472656 198.996094 " fill-opacity="1" fill-rule="nonzero"/><path fill="#ffffff" d="M 90.5 160.746094 C 90.5 167.390625 85.117188 172.777344 78.472656 172.777344 C 71.832031 172.777344 66.445312 167.390625 66.445312 160.746094 C 66.445312 154.105469 71.828125 148.71875 78.472656 148.71875 C 85.117188 148.71875 90.5 154.105469 90.5 160.746094 Z M 90.5 160.746094 " fill-opacity="1" fill-rule="nonzero"/><path fill="#43105f" d="M 78.472656 174.722656 C 70.765625 174.722656 64.5 168.453125 64.5 160.746094 C 64.5 153.042969 70.765625 146.773438 78.472656 146.773438 C 86.175781 146.773438 92.445312 153.042969 92.445312 160.746094 C 92.445312 168.453125 86.175781 174.722656 78.472656 174.722656 Z M 78.472656 150.664062 C 72.914062 150.664062 68.390625 155.1875 68.390625 160.746094 C 68.390625 166.308594 72.914062 170.832031 78.472656 170.832031 C 84.03125 170.832031 88.554688 166.308594 88.554688 160.746094 C 88.554688 155.1875 84.03125 150.664062 78.472656 150.664062 Z M 78.472656 150.664062 " fill-opacity="1" fill-rule="nonzero"/><path fill="#43105f" d="M 78.535156 123 C 78.523438 123 78.515625 123 78.503906 123 C 77.429688 122.984375 76.574219 122.101562 76.589844 121.027344 L 76.714844 112.527344 C 76.730469 111.453125 77.617188 110.59375 78.691406 110.609375 C 79.765625 110.625 80.621094 111.507812 80.605469 112.582031 L 80.476562 121.085938 C 80.460938 122.148438 79.59375 123 78.535156 123 Z M 78.535156 123 " fill-opacity="1" fill-rule="nonzero"/><path fill="#43105f" d="M 102.71875 133.445312 C 102.210938 133.445312 101.703125 133.25 101.324219 132.855469 C 100.574219 132.085938 100.59375 130.851562 101.363281 130.105469 L 107.464844 124.183594 C 108.234375 123.433594 109.464844 123.453125 110.214844 124.226562 C 110.964844 124.996094 110.945312 126.226562 110.171875 126.976562 L 104.074219 132.894531 C 103.695312 133.261719 103.207031 133.445312 102.71875 133.445312 Z M 102.71875 133.445312 " fill-opacity="1" fill-rule="nonzero"/><path fill="#43105f" d="M 54.046875 132.71875 C 53.539062 132.71875 53.03125 132.519531 52.652344 132.125 L 46.730469 126.027344 C 45.980469 125.253906 46 124.023438 46.769531 123.273438 C 47.542969 122.527344 48.773438 122.546875 49.523438 123.316406 L 55.441406 129.417969 C 56.191406 130.1875 56.171875 131.417969 55.402344 132.167969 C 55.023438 132.535156 54.535156 132.71875 54.046875 132.71875 Z M 54.046875 132.71875 " fill-opacity="1" fill-rule="nonzero"/></svg>